<svg xmlns="http://www.w3.org/2000/svg" width="638" height="589" viewBox="0 0 638 589">
    <defs>
        <linearGradient id="a" x1="0%" x2="100.013%" y1="50.002%" y2="50.002%">
            <stop offset="0%" stop-color="#FFF"/>
            <stop offset="44%" stop-color="#FDFEFF"/>
            <stop offset="67%" stop-color="#F5F9FF"/>
            <stop offset="84%" stop-color="#E8F2FF"/>
            <stop offset="99%" stop-color="#D5E8FF"/>
            <stop offset="100%" stop-color="#D4E7FF"/>
        </linearGradient>
        <linearGradient id="b" x1="-.003%" x2="100.005%" y1="50.003%" y2="50.003%">
            <stop offset="0%" stop-color="#D4E7FF"/>
            <stop offset="1%" stop-color="#D5E8FF"/>
            <stop offset="16%" stop-color="#E8F2FF"/>
            <stop offset="33%" stop-color="#F5F9FF"/>
            <stop offset="56%" stop-color="#FDFEFF"/>
            <stop offset="100%" stop-color="#FFF"/>
        </linearGradient>
        <linearGradient id="c" x1="-.002%" y1="49.984%" y2="49.984%">
            <stop offset="0%" stop-color="#D4E7FF" stop-opacity="0"/>
            <stop offset="1%" stop-color="#D5E8FF"/>
            <stop offset="16%" stop-color="#E8F2FF"/>
            <stop offset="33%" stop-color="#F5F9FF"/>
            <stop offset="56%" stop-color="#FDFEFF"/>
            <stop offset="100%" stop-color="#FFF"/>
        </linearGradient>
        <linearGradient id="d" x1=".015%" y1="50.007%" y2="50.007%">
            <stop offset="0%" stop-color="#E9F2FF"/>
            <stop offset="100%" stop-color="#E9F1FF"/>
        </linearGradient>
        <linearGradient id="e" x1=".015%" y1="49.993%" y2="49.993%">
            <stop offset="0%" stop-color="#E9EFFF"/>
            <stop offset="100%" stop-color="#D4E3FF"/>
        </linearGradient>
        <linearGradient id="f" x1="0%" y1="50.133%" y2="50.133%">
            <stop offset="0%" stop-color="#004DAA"/>
            <stop offset="100%" stop-color="#0029E9"/>
        </linearGradient>
        <linearGradient id="g" x1="0%" y1="50.049%" y2="50.049%">
            <stop offset="0%" stop-color="#004DAA"/>
            <stop offset="100%" stop-color="#0029E9"/>
        </linearGradient>
        <linearGradient id="h" x1=".207%" y1="50.042%" y2="50.042%">
            <stop offset="0%" stop-color="#004DAA"/>
            <stop offset="100%" stop-color="#0029E9"/>
        </linearGradient>
        <linearGradient id="i" x1="0%" y1="50.02%" y2="50.02%">
            <stop offset="0%" stop-color="#6AAEFF"/>
            <stop offset="100%" stop-color="#005EFF"/>
        </linearGradient>
        <linearGradient id="j" x1="0%" y1="50%" y2="50%">
            <stop offset="0%" stop-color="#004DAA"/>
            <stop offset="100%" stop-color="#0029E9"/>
        </linearGradient>
        <linearGradient id="k" x1="0%" y1="49.832%" y2="49.832%">
            <stop offset="0%" stop-color="#025"/>
            <stop offset="100%" stop-color="#003A7F"/>
        </linearGradient>
        <linearGradient id="l" x1="0%" y1="50%" y2="50%">
            <stop offset="0%" stop-color="#6AAEFF"/>
            <stop offset="100%" stop-color="#005EFF"/>
        </linearGradient>
        <linearGradient id="m" x1=".143%" y1="50.028%" y2="50.028%">
            <stop offset="0%" stop-color="#004DAA"/>
            <stop offset="100%" stop-color="#0029E9"/>
        </linearGradient>
        <linearGradient id="n" x1="0%" y1="49.955%" y2="49.955%">
            <stop offset="0%" stop-color="#025"/>
            <stop offset="100%" stop-color="#003A7F"/>
        </linearGradient>
        <linearGradient id="o" x1="0%" y1="50%" y2="50%">
            <stop offset="0%" stop-color="#004DAA"/>
            <stop offset="100%" stop-color="#0029E9"/>
        </linearGradient>
        <linearGradient id="p" x1="0%" y1="50%" y2="50%">
            <stop offset="0%" stop-color="#025"/>
            <stop offset="100%" stop-color="#003A7F"/>
        </linearGradient>
        <linearGradient id="q" x1="0%" y1="50.035%" y2="50.035%">
            <stop offset="0%" stop-color="#6AAEFF"/>
            <stop offset="100%" stop-color="#005EFF"/>
        </linearGradient>
        <linearGradient id="r" x1="0%" y1="50.035%" y2="50.035%">
            <stop offset="0%" stop-color="#004DAA"/>
            <stop offset="100%" stop-color="#0029E9"/>
        </linearGradient>
        <linearGradient id="s" x1="0%" y1="49.979%" y2="49.979%">
            <stop offset="0%" stop-color="#6AAEFF"/>
            <stop offset="100%" stop-color="#005EFF"/>
        </linearGradient>
        <linearGradient id="t" x1="0%" y1="49.956%" y2="49.956%">
            <stop offset="0%" stop-color="#004DAA"/>
            <stop offset="100%" stop-color="#0029E9"/>
        </linearGradient>
        <linearGradient id="u" x1="0%" y1="50%" y2="50%">
            <stop offset="0%" stop-color="#E9EFFF"/>
            <stop offset="100%" stop-color="#D4E3FF"/>
        </linearGradient>
        <linearGradient id="v" x1="-.025%" y1="49.966%" y2="49.966%">
            <stop offset="0%" stop-color="#6AAEFF"/>
            <stop offset="100%" stop-color="#005EFF"/>
        </linearGradient>
        <linearGradient id="w" x1=".036%" y1="49.979%" y2="49.979%">
            <stop offset="0%" stop-color="#D4E3FF"/>
            <stop offset="100%" stop-color="#E9EFFF"/>
        </linearGradient>
        <linearGradient id="x" x1=".019%" x2="100.019%" y1="49.982%" y2="49.982%">
            <stop offset="0%" stop-color="#E9EFFF"/>
            <stop offset="100%" stop-color="#D4E3FF"/>
        </linearGradient>
        <linearGradient id="y" x1="-.007%" x2="100.041%" y1="49.995%" y2="49.995%">
            <stop offset="0%" stop-color="#F22AFF"/>
            <stop offset="100%" stop-color="#6C00E9"/>
        </linearGradient>
        <linearGradient id="z" x1="0%" x2="100.087%" y1="50.008%" y2="50.008%">
            <stop offset="0%" stop-color="#F22AFF"/>
            <stop offset="100%" stop-color="#6C00E9"/>
        </linearGradient>
        <linearGradient id="A" x1="0%" x2="100.087%" y1="49.998%" y2="49.998%">
            <stop offset="0%" stop-color="#FF0007"/>
            <stop offset="100%" stop-color="#FFAAAC"/>
        </linearGradient>
        <linearGradient id="B" x1="0%" y1="50.002%" y2="50.002%">
            <stop offset="0%" stop-color="#025"/>
            <stop offset="100%" stop-color="#003A7F"/>
        </linearGradient>
        <linearGradient id="C" x1=".015%" y1="49.993%" y2="49.993%">
            <stop offset="0%" stop-color="#E9EFFF"/>
            <stop offset="100%" stop-color="#D4E3FF"/>
        </linearGradient>
        <linearGradient id="D" x1="0%" y1="49.751%" y2="49.751%">
            <stop offset="0%" stop-color="#FF0007"/>
            <stop offset="100%" stop-color="#FFAAAC"/>
        </linearGradient>
        <linearGradient id="E" x1="-.016%" x2="99.995%" y1="49.443%" y2="49.443%">
            <stop offset="0%" stop-color="#025"/>
            <stop offset="100%" stop-color="#003A7F"/>
        </linearGradient>
        <linearGradient id="F" x1="-.078%" x2="99.995%" y1="50.189%" y2="50.189%">
            <stop offset="0%" stop-color="#025"/>
            <stop offset="100%" stop-color="#003A7F"/>
        </linearGradient>
        <linearGradient id="G" x1="0%" x2="99.442%" y1="50.004%" y2="50.004%">
            <stop offset="0%" stop-color="#FF7F83"/>
            <stop offset="100%" stop-color="#FFD4D5"/>
        </linearGradient>
        <linearGradient id="H" x1="0%" x2="100.033%" y1="49.99%" y2="49.99%">
            <stop offset="0%" stop-color="#FF7F83"/>
            <stop offset="100%" stop-color="#FFD4D5"/>
        </linearGradient>
        <linearGradient id="I" x1=".006%" y1="49.958%" y2="49.958%">
            <stop offset="0%" stop-color="#6AAEFF"/>
            <stop offset="100%" stop-color="#005EFF"/>
        </linearGradient>
        <linearGradient id="J" x1="-.015%" y1="50%" y2="50%">
            <stop offset="0%" stop-color="#D4E3FF"/>
            <stop offset="100%" stop-color="#E9EFFF"/>
        </linearGradient>
        <linearGradient id="K" x1="-.229%" y1="50.075%" y2="50.075%">
            <stop offset="0%" stop-color="#025"/>
            <stop offset="100%" stop-color="#003A7F"/>
        </linearGradient>
        <linearGradient id="L" x1=".003%" x2="100.087%" y1="50.237%" y2="50.237%">
            <stop offset="0%" stop-color="#6AAEFF"/>
            <stop offset="100%" stop-color="#005EFF"/>
        </linearGradient>
        <linearGradient id="M" x1=".238%" x2="100.332%" y1="50.844%" y2="50.844%">
            <stop offset="0%" stop-color="#6AAEFF"/>
            <stop offset="100%" stop-color="#005EFF"/>
        </linearGradient>
        <linearGradient id="N" x1="0%" x2="99.99%" y1="49.997%" y2="49.997%">
            <stop offset="0%" stop-color="#025"/>
            <stop offset="100%" stop-color="#003A7F"/>
        </linearGradient>
        <linearGradient id="O" x1=".277%" x2="100.106%" y1="49.974%" y2="49.974%">
            <stop offset="0%" stop-color="#025"/>
            <stop offset="100%" stop-color="#003A7F"/>
        </linearGradient>
        <linearGradient id="P" x1=".001%" x2="100.025%" y1="50.182%" y2="50.182%">
            <stop offset="0%" stop-color="#FFD4D5"/>
            <stop offset="100%" stop-color="#FF7F83"/>
        </linearGradient>
        <linearGradient id="Q" x1=".008%" x2="100.055%" y1="49.982%" y2="49.982%">
            <stop offset="0%" stop-color="#FFD4D5"/>
            <stop offset="100%" stop-color="#FF7F83"/>
        </linearGradient>
        <linearGradient id="R" x1="-.001%" y1="50%" y2="50%">
            <stop offset="0%" stop-color="#6AAEFF"/>
            <stop offset="100%" stop-color="#002FE9"/>
        </linearGradient>
        <linearGradient id="S" x1="0%" y1="49.999%" y2="49.999%">
            <stop offset="0%" stop-color="#FFD4D5"/>
            <stop offset="100%" stop-color="#FF7F83"/>
        </linearGradient>
        <linearGradient id="T" x1=".004%" x2="99.976%" y1="50.026%" y2="50.026%">
            <stop offset="0%" stop-color="#FFD4D5"/>
            <stop offset="100%" stop-color="#FF7F83"/>
        </linearGradient>
        <linearGradient id="U" x1=".214%" y1="50%" y2="50%">
            <stop offset="0%" stop-color="#6AAEFF"/>
            <stop offset="100%" stop-color="#005EFF"/>
        </linearGradient>
        <linearGradient id="V" x1="0%" y1="50.052%" y2="50.052%">
            <stop offset="0%" stop-color="#6A8CFF"/>
            <stop offset="100%" stop-color="#0011BF"/>
        </linearGradient>
        <linearGradient id="W" x1=".047%" y1="49.983%" y2="49.983%">
            <stop offset="0%" stop-color="#6A8CFF"/>
            <stop offset="100%" stop-color="#0011BF"/>
        </linearGradient>
        <linearGradient id="X" x1="-.017%" x2="99.959%" y1="49.975%" y2="49.975%">
            <stop offset="0%" stop-color="#FF7F83"/>
            <stop offset="100%" stop-color="#FFD4D5"/>
        </linearGradient>
        <linearGradient id="Y" x1="0%" x2="100.15%" y1="50.064%" y2="50.064%">
            <stop offset="0%" stop-color="#FF7F83"/>
            <stop offset="100%" stop-color="#FFD4D5"/>
        </linearGradient>
        <linearGradient id="Z" x1="0%" x2="100.016%" y1="49.979%" y2="49.979%">
            <stop offset="0%" stop-color="#E9EFFF"/>
            <stop offset="100%" stop-color="#D4E3FF"/>
        </linearGradient>
        <linearGradient id="aa" x1="0%" y1="49.89%" y2="49.89%">
            <stop offset="0%" stop-color="#6AAEFF"/>
            <stop offset="100%" stop-color="#005EFF"/>
        </linearGradient>
        <linearGradient id="ab" x1="-1.545%" y1="49.928%" y2="49.928%">
            <stop offset="0%" stop-color="#94B9FF"/>
            <stop offset="19%" stop-color="#9ABDFF"/>
            <stop offset="44%" stop-color="#ABC8FF"/>
            <stop offset="72%" stop-color="#C7DBFF"/>
            <stop offset="100%" stop-color="#E9F2FF"/>
        </linearGradient>
        <linearGradient id="ac" x1="0%" x2="99.952%" y1="50.016%" y2="50.016%">
            <stop offset="0%" stop-color="#94B9FF"/>
            <stop offset="19%" stop-color="#9ABDFF"/>
            <stop offset="44%" stop-color="#ABC8FF"/>
            <stop offset="72%" stop-color="#C7DBFF"/>
            <stop offset="100%" stop-color="#E9F2FF"/>
        </linearGradient>
        <linearGradient id="ad" x1="0%" y1="49.778%" y2="49.778%">
            <stop offset="0%" stop-color="#E9F2FF"/>
            <stop offset="28%" stop-color="#C7DBFF"/>
            <stop offset="56%" stop-color="#ABC8FF"/>
            <stop offset="81%" stop-color="#9ABDFF"/>
            <stop offset="100%" stop-color="#94B9FF"/>
        </linearGradient>
        <linearGradient id="ae" x1=".014%" y1="49.912%" y2="49.912%">
            <stop offset="0%" stop-color="#6AAEFF"/>
            <stop offset="100%" stop-color="#002294"/>
        </linearGradient>
    </defs>
    <g fill="none" fill-rule="evenodd">
        <path fill="url(#a)" fill-rule="nonzero" d="M231.66 375.587l180.4 104.373c10.197 5.9 26.73 5.9 36.938 0l180.4-104.362c10.197-5.9 10.197-15.465 0-21.354L449.174 250.09c-10.197-5.9-26.741-5.9-36.949 0L231.671 354.244c-10.208 5.889-10.208 15.443-.011 21.343z" opacity=".05"/>
        <path fill="url(#b)" fill-rule="nonzero" d="M4.147 443.624l97.9 56.634c5.5 3.203 14.509 3.203 20.042 0l97.9-56.623c5.5-3.203 5.5-8.387 0-11.59l-97.812-56.513c-5.5-3.192-14.509-3.203-20.053 0l-97.9 56.513c-5.61 3.192-5.61 8.354-.077 11.58z" opacity=".05"/>
        <path fill="url(#c)" fill-rule="nonzero" d="M198.473 512.982l60.874 35.224a13.72 13.72 0 0 0 12.452 0l60.874-35.224c3.432-1.992 3.432-5.217 0-7.21l-60.808-35.124a13.775 13.775 0 0 0-12.463 0l-60.907 35.136c-3.454 1.98-3.454 5.206-.022 7.198z" opacity=".05"/>
        <path fill="url(#d)" fill-rule="nonzero" d="M311.19 411.362l-6.6 9.752-.308.474-3.982 5.922-16.742-2.521a56.093 56.093 0 0 1-9.306 5.68l6.82 7.353.781.847-4.059 1.167L253 447.169l-7.7-8.267c-4.488.565-9.007.851-13.53.859l-6.171 9.191-27.566-4.084-1.1-.165-1.254-.187.187-.286 5.984-8.905a58.786 58.786 0 0 1-10.01-4.403l-16.379 4.7-5.258-5.68-8.228-8.894 6.6-1.893 9.647-2.763c-.762-2.303-1-4.748-.693-7.155l-9.9-1.464-6.875-1.024 10.846-16.103 16.621 2.421a35.301 35.301 0 0 1 1.903-1.398l.671-.473c.836-.572 1.716-1.1 2.64-1.673a58.656 58.656 0 0 1 4.125-2.257l-.891-.968-6.545-7.067 28.842-8.289 7.381 7.98c1.771-.23 3.564-.418 5.357-.572a96.263 96.263 0 0 1 7.436-.352h1.265l1.661-2.477.121-.187.572-.847 3.564-5.306 6.028.892 23.903 3.555-5.918 8.806c2.09.704 4.07 1.475 5.918 2.312a47.662 47.662 0 0 1 4.4 2.256l15.785-4.535 13.497 14.563-8.228 2.366-7.7 2.202c.73 2.349.922 4.832.561 7.265l8.745 1.31 7.876 1.189z" opacity=".2"/>
        <path fill="url(#e)" fill-rule="nonzero" d="M311.19 393.42l-6.6 9.763-.308.462-3.982 5.933-16.775-2.487a56.093 56.093 0 0 1-9.306 5.669l6.82 7.353.781.847-4.059 1.178-24.761 7.1-7.7-8.267c-4.489.559-9.007.846-13.53.859l-6.171 9.19-27.566-4.083-1.1-.176-1.254-.187.187-.275 5.984-8.905a58.797 58.797 0 0 1-10.01-4.403l-16.379 4.7-5.258-5.68-8.228-8.883 6.6-1.893 9.647-2.774c-.763-2.3-1-4.74-.693-7.144l-9.9-1.475-6.875-1.024 10.846-16.115 16.577 2.466a30.215 30.215 0 0 1 1.903-1.398c.22-.176.44-.32.671-.484.836-.562 1.716-1.101 2.64-1.673a69.297 69.297 0 0 1 4.125-2.257l-.891-.958-6.545-7.077 28.842-8.278 7.381 7.97c1.771-.232 3.564-.419 5.357-.562 2.464-.205 4.943-.327 7.436-.363h1.265l1.661-2.488.121-.176.572-.848 3.564-5.305 6.028.891 23.903 3.545-5.918 8.806c2.09.704 4.07 1.464 5.918 2.3a63.027 63.027 0 0 1 4.4 2.202l15.785-4.535 13.497 14.574-8.228 2.355-7.7 2.202c.73 2.348.922 4.832.561 7.265l8.745 1.299 7.92 1.243z"/>
        <ellipse cx="235.844" cy="391.327" fill="#F3F6FF" fill-rule="nonzero" rx="23.551" ry="12.328" transform="rotate(-3.29 235.844 391.327)"/>
        <path stroke="#000" stroke-width="1.1" d="M281.061 420.101l2.497-1.772c-.803.606-1.628 1.156-2.497 1.772z"/>
        <path fill="url(#f)" fill-rule="nonzero" d="M197.56 369.368c-1.441.705-2.816 1.464-4.136 2.202-.913.55-1.782 1.1-2.629 1.684l-.682.462v-12.383l7.447 8.035z"/>
        <path fill="url(#g)" fill-rule="nonzero" d="M276.254 355.697v11.128a60.805 60.805 0 0 0-5.918-2.3l5.918-8.828z"/>
        <path fill="url(#h)" fill-rule="nonzero" d="M309.969 379.12v11.24l-6.6 1.893-8.8-1.3a15.894 15.894 0 0 0-.55-7.264l7.7-2.202 8.25-2.366z"/>
        <path fill="url(#i)" fill-rule="nonzero" d="M311.19 393.42v11.249l-10.857 16.148v-11.239l3.982-5.933z"/>
        <path fill="url(#j)" fill-rule="nonzero" d="M300.333 409.578v11.239l-16.775-2.488v-11.25z"/>
        <path fill="url(#k)" fill-rule="nonzero" d="M283.558 407.08v11.304l-2.497 1.773-6.809-7.353a56.093 56.093 0 0 0 9.306-5.724z"/>
        <path fill="url(#l)" fill-rule="nonzero" d="M281.853 420.95v11.249l-28.842 8.277v-11.238l24.783-7.122z"/>
        <path fill="url(#m)" fill-rule="nonzero" d="M253.011 429.238v11.238l-7.667-8.266v-11.25z"/>
        <path fill="url(#n)" fill-rule="nonzero" d="M245.355 420.96v11.25c-4.489.557-9.007.847-13.53.87v-11.25c4.524-.012 9.042-.302 13.53-.87z"/>
        <path fill="url(#o)" fill-rule="nonzero" d="M231.825 421.83v11.25l-6.171 9.18v-11.24z"/>
        <path fill="url(#p)" fill-rule="nonzero" d="M201.894 417.394l-5.995 8.905a54.933 54.933 0 0 1-4.026-2.026v-11.25a58.532 58.532 0 0 0 10.021 4.37z"/>
        <path fill="url(#q)" fill-rule="nonzero" d="M225.654 431.02v11.24l-29.942-4.436v-11.25l1.254.187 1.122.165z"/>
        <path fill="url(#r)" fill-rule="nonzero" d="M191.873 413.024v11.25l-16.379 4.7v-11.25z"/>
        <path fill="url(#s)" fill-rule="nonzero" d="M175.494 417.724v11.25L162.008 414.4V403.16l8.228 8.883z"/>
        <path fill="url(#t)" fill-rule="nonzero" d="M178.255 398.494l-9.647 2.774-7.821-1.167v-11.239l6.864 1.013 9.9 1.475a16.191 16.191 0 0 0 .704 7.144z"/>
        <path fill="#D76E39" fill-rule="nonzero" d="M298.1 487.533l25.586-14.783 51.436 29.412-25.85 14.937z"/>
        <path fill="#D3C5E3" fill-rule="nonzero" d="M281.039 497.385L254.1 512.949l86.647 48.5 25.597-14.784z"/>
        <path fill="#5167F4" fill-rule="nonzero" d="M340.747 462.887l34.375 19.56 25.344-14.628-34.133-19.715z"/>
        <path fill="#404A68" fill-rule="nonzero" d="M404 239v16.221a21.447 21.447 0 0 1-.86 5.99C398.448 277.543 374.86 290 346.49 290c-28.37 0-51.936-12.412-56.63-28.789a21.447 21.447 0 0 1-.859-5.99V239c.002 2.78.541 5.532 1.587 8.105a26.145 26.145 0 0 0 3.36 6.001c8.957 12.18 29.108 20.628 52.542 20.628s43.607-8.47 52.564-20.639a26.488 26.488 0 0 0 3.36-5.99A21.585 21.585 0 0 0 404 239z"/>
        <path fill="#F3F6FF" fill-rule="nonzero" d="M404.03 239.645c0 2.766-.534 5.506-1.573 8.069a26.754 26.754 0 0 1-2.849 5.24c-6.028 8.684-17.798 15.575-32.45 18.954a92.022 92.022 0 0 1-20.537 2.279c-17.292 0-32.791-4.602-43.318-11.877-5.962-4.128-10.318-9.104-12.507-14.585a21.676 21.676 0 0 1-1.573-8.069 24.005 24.005 0 0 1 6.072-15.476c9.427-11.294 28.875-19.065 51.326-19.065 14.696 0 28.116 3.302 38.269 8.806 11.748 6.329 19.14 15.487 19.14 25.724z"/>
        <path fill="#837CBC" fill-rule="nonzero" d="M384.89 213.899l-39.6 23.5-41.987 24.9c-5.962-4.128-10.318-9.104-12.507-14.585a21.676 21.676 0 0 1-1.573-8.069 24.005 24.005 0 0 1 6.072-15.476c9.427-11.294 28.875-19.065 51.326-19.065 14.696 0 28.116 3.324 38.269 8.795z"/>
        <path fill="url(#u)" fill-rule="nonzero" d="M404.03 239.645c0 2.766-.534 5.506-1.573 8.069a26.754 26.754 0 0 1-2.849 5.24l-54.34-15.554 39.6-23.501c11.77 6.351 19.162 15.51 19.162 25.746z"/>
        <path fill="url(#v)" fill-rule="nonzero" d="M384.89 213.899l-39.6 23.5-49.973-13.208c9.427-11.294 28.875-19.065 51.326-19.065 14.674-.022 28.094 3.302 38.247 8.773z"/>
        <path fill="#2BB8B3" fill-rule="nonzero" d="M399.608 252.953c-6.028 8.685-17.798 15.576-32.45 18.955l-21.89-34.508 54.34 15.553z"/>
        <path fill="url(#w)" fill-rule="nonzero" d="M311.19 393.42l-6.6 9.763c-35.068-29.357-75.394-35.873-107.965-34.784l-6.545-7.077 28.842-8.278 7.381 7.97c1.771-.232 3.564-.419 5.357-.562 2.464-.205 4.943-.327 7.436-.363h1.265l1.661-2.488.121-.176.572-.848 3.564-5.305 6.028.891 23.903 3.545-5.918 8.806c2.09.704 4.07 1.464 5.918 2.3a63.027 63.027 0 0 1 4.4 2.202l15.785-4.535 13.497 14.574-8.228 2.355-7.7 2.202c.73 2.348.922 4.832.561 7.265l8.745 1.299 7.92 1.243z"/>
        <path fill="#F3F6FF" fill-rule="nonzero" d="M267.124 170.716a13.97 13.97 0 0 1-6.974 12.109L90.596 280.79a7.695 7.695 0 0 1-6.798.495l-1.023-.495a7.92 7.92 0 0 1-1.1-.837 7.462 7.462 0 0 1-1.573-1.849l-.176-.297a7.82 7.82 0 0 1-.946-3.754V114.48a14.312 14.312 0 0 1 7.139-12.372L254.43 4.812l3.729-2.202a6.18 6.18 0 0 1 2.09-.737 5.331 5.331 0 0 1 1.672 0c.344.038.683.112 1.012.22l.297.11 1.32.683a5.89 5.89 0 0 1 2.574 4.92v162.91z"/>
        <path stroke="#000" stroke-width="1.1" d="M248.6 40.553l-.517-.209-.286-.11a.704.704 0 0 1 .198.066c.208.068.41.153.605.253z"/>
        <path fill="#E9EFFF" fill-rule="nonzero" d="M90.728 108.436l38.841-22.477a2.814 2.814 0 0 1 4.224 2.444v151.903a11.009 11.009 0 0 1-5.5 9.554L93.357 270.06a4.397 4.397 0 0 1-4.408-.005 4.404 4.404 0 0 1-2.192-3.826V115.426a8.037 8.037 0 0 1 3.971-6.99z"/>
        <path fill="#F3F6FF" fill-rule="nonzero" d="M94.6 117.88v29.72a2.334 2.334 0 0 0 3.487 2.015l25.564-14.772a4.624 4.624 0 0 0 2.31-4.007V101.48a2.488 2.488 0 0 0-3.718-2.201L96.8 114.006a4.404 4.404 0 0 0-2.2 3.875z"/>
        <path fill="url(#x)" fill-rule="nonzero" d="M146.443 76.283l106.7-61.641a4.079 4.079 0 0 1 6.116 3.533V123.56a9.302 9.302 0 0 1-4.653 8.058l-106.26 61.367a4.485 4.485 0 0 1-4.5.006 4.492 4.492 0 0 1-2.243-3.903V84.638a9.61 9.61 0 0 1 4.84-8.355z"/>
        <path fill="#E3ECFF" fill-rule="nonzero" d="M141.636 209.298v26.12a3.903 3.903 0 1 0 5.852 3.39l108.735-62.841a6.132 6.132 0 0 0 3.069-5.317v-27.793a2.83 2.83 0 0 0-4.246-2.455l-110.462 63.843a5.868 5.868 0 0 0-2.948 5.053z"/>
        <path stroke="#000" stroke-width="1.1" d="M248.061 40.344l-.286-.11a.704.704 0 0 1 .198.066l.088.044z"/>
        <path fill="#CAD8FC" fill-rule="nonzero" d="M263.142 2.192l-.242-.066a5.013 5.013 0 0 0-1.012-.22 5.331 5.331 0 0 0-1.672 0 6.18 6.18 0 0 0-2.09.737l-3.729 2.202-168.366 97.262a14.311 14.311 0 0 0-7.139 12.372v159.465a7.82 7.82 0 0 0 .946 3.754l.176.297c.42.698.951 1.323 1.573 1.85.342.31.71.59 1.1.836l-2.992-1.475a7.955 7.955 0 0 1-3.234-2.95 7.8 7.8 0 0 1-1.1-4.062V112.74a14.312 14.312 0 0 1 7.139-12.372L250.932 3.062 254.661.86a5.936 5.936 0 0 1 4.774-.528l.803.33.363.187 2.541 1.343z"/>
        <path fill="#003576" fill-rule="nonzero" d="M161.106 147.909c-.32-6-1.584-36.083 4.697-39.715a3.298 3.298 0 0 1 2.75-.297c3.113 1.035 5.5 6.604 8.283 13.077 2.2 5.162 4.972 11.602 7.326 12.383.369.13.777.077 1.1-.143 3.3-1.926 3.762-16.874 4.092-28.884.495-17.612 1.1-28.487 5.291-30.909a2.98 2.98 0 0 1 2.684-.22c3.3 1.365 5.5 8.586 8.8 20.265 2.552 9.092 5.731 20.408 9.086 21.784a1.54 1.54 0 0 0 1.43-.154c4.543-2.631 4.235-18.372 4.004-31.008-.341-15.741-.308-25.516 3.751-27.85a2.737 2.737 0 0 1 2.662-.164c3.245 1.552 4.796 9.972 6.952 23.666 1.375 8.806 3.3 20.749 5.621 21.872.077 0 .187.088.451-.066 3.014-1.74 3.069-15.41 2.2-24.47l2.354-.242c.396 3.93 2.09 23.644-3.3 26.77a2.76 2.76 0 0 1-2.662.154c-3.3-1.552-4.785-9.973-6.941-23.655-1.386-8.806-3.3-20.76-5.632-21.883-.077 0-.176-.088-.451.066-3.102 1.805-2.86 14.552-2.651 25.79.297 15.323.572 29.787-5.181 33.111a3.87 3.87 0 0 1-3.509.297c-4.4-1.805-7.37-12.262-10.472-23.324-2.2-7.904-4.972-17.722-7.403-18.713a.594.594 0 0 0-.605.077c-3.3 1.937-3.773 16.896-4.114 28.916-.484 17.612-1.1 28.455-5.269 30.876a3.606 3.606 0 0 1-3.014.33c-3.355-1.1-5.984-7.22-8.8-13.693-2.123-4.931-4.752-11.007-6.853-11.767a.945.945 0 0 0-.814.11c-3.685 2.125-4.279 23.226-3.52 37.536l-2.343.077z" opacity=".2"/>
        <path fill="url(#y)" fill-rule="nonzero" d="M155.98 150.738c-.275-5.108-1.342-30.7 4.07-33.826a2.968 2.968 0 0 1 2.475-.264c2.717.902 4.763 5.658 7.128 11.183 1.87 4.337 4.191 9.753 6.105 10.391a.88.88 0 0 0 .759-.11c2.75-1.585 3.102-14.188 3.377-24.315.418-14.992.935-24.217 4.576-26.352a2.704 2.704 0 0 1 2.442-.187c2.893 1.178 4.752 7.33 7.546 17.282 2.2 7.705 4.829 17.215 7.601 18.338a1.1 1.1 0 0 0 1.045-.121c3.751-2.202 3.498-15.41 3.3-26.12-.253-13.397-.231-21.719 3.3-23.788a2.529 2.529 0 0 1 2.431-.143c2.893 1.376 4.158 8.564 5.984 20.188 1.1 6.967 2.761 17.49 4.664 18.404h.22c1.496-.858 3.014-7.815 1.727-20.562l2.365-.242c.341 3.302 1.782 20.155-2.904 22.852a2.507 2.507 0 0 1-2.42.143c-2.893-1.376-4.158-8.564-5.995-20.177-1.1-6.968-2.75-17.502-4.664-18.416h-.22c-2.541 1.475-2.321 12.692-2.2 21.696.253 13.033.484 25.317-4.477 28.223a3.496 3.496 0 0 1-3.135.264c-3.839-1.563-6.336-10.468-8.976-19.89-1.87-6.604-4.191-14.937-6.171-15.74-.077 0-.154-.067-.352 0-2.761 1.584-3.113 14.21-3.388 24.359-.418 14.97-.935 24.216-4.565 26.308a3.2 3.2 0 0 1-2.695.297c-2.926-.969-5.17-6.186-7.535-11.701-1.782-4.15-3.993-9.301-5.698-9.907a.594.594 0 0 0-.539.077c-3.058 1.761-3.531 19.56-2.893 31.636l-2.288.22z"/>
        <path fill="#BACDFF" fill-rule="nonzero" d="M146.751 84.308v8.255a.65.65 0 0 0 .968.562l7.128-4.117c.393-.227.636-.646.638-1.1V79.75a.694.694 0 0 0-1.034-.595L147.4 83.24c-.396.21-.645.62-.649 1.068z"/>
        <path fill="url(#z)" fill-rule="nonzero" d="M166.705 161.57v5.085a.738.738 0 0 0 1.1.638l10.78-6.22c.45-.262.726-.744.726-1.265v-5.284a.672.672 0 0 0-1.001-.583l-10.813 6.252a1.574 1.574 0 0 0-.792 1.376z"/>
        <path fill="url(#A)" fill-rule="nonzero" d="M198.077 143.429v5.074a.738.738 0 0 0 1.1.639l10.78-6.22c.45-.262.726-.744.726-1.265v-5.284a.66.66 0 0 0-1.001-.572l-10.802 6.296c-.479.276-.782.78-.803 1.332z"/>
        <path fill="#ACC2E4" fill-rule="nonzero" d="M229.438 125.377v5.074a.738.738 0 0 0 1.1.639l10.78-6.22c.45-.262.726-.744.726-1.266v-5.272a.672.672 0 0 0-1.012-.583l-10.802 6.24a1.596 1.596 0 0 0-.792 1.388z"/>
        <path fill="#002F6C" fill-rule="nonzero" d="M144.408 168.449a15.39 15.39 0 0 0-5.852-.76 19.579 19.579 0 0 0-3.08.44 27.148 27.148 0 0 0-7.524 2.973c-15.818 8.916-28.952 32.417-29.315 52.45a35.356 35.356 0 0 0 1.463 11.558 20.346 20.346 0 0 0 3.608 6.792 14.6 14.6 0 0 0 4.4 3.654L97.438 241l-1.1-.462c-6.314-3.016-10.241-10.843-10.032-22.213.385-20.056 13.519-43.546 29.326-52.462 6.512-3.676 12.474-4.304 17.204-2.366l.671.297 10.901 4.656z" opacity=".8"/>
        <path fill="#4290FF" fill-rule="nonzero" d="M112.519 215.748c-.024.882.01 1.764.099 2.642L99.11 230.784a40.402 40.402 0 0 1-.484-7.21c.297-15.795 8.503-33.727 19.701-44.976l8.261 10.732c-7.678 4.997-13.893 16.522-14.069 26.418z"/>
        <path fill="#ACC2E4" fill-rule="nonzero" d="M149.215 217.454c-5.401 11.283-13.574 21.178-22.638 26.286-7.051 3.974-13.442 4.403-18.326 1.838a14.236 14.236 0 0 1-4.4-3.643 20.29 20.29 0 0 1-3.751-6.836 28.8 28.8 0 0 1-1.034-4.315l8.888-8.156 1.859-1.707 2.761-2.531a16.4 16.4 0 0 0 .649 3.225v.077a10.592 10.592 0 0 0 1.859 3.5 7.514 7.514 0 0 0 2.288 1.872c2.519 1.31 5.808 1.1 9.438-.947a21.824 21.824 0 0 0 3.003-2.07 36.02 36.02 0 0 0 10.802-16.962l8.602 10.37z"/>
        <path fill="#17C8B8" fill-rule="nonzero" d="M149.787 171.817l-3.597 6.131-6.842 11.624a7.228 7.228 0 0 0-2.266-1.838l-.979-.43a7.937 7.937 0 0 0-2.97-.385c-.533.027-1.064.1-1.584.22a13.854 13.854 0 0 0-3.883 1.53c-.352.199-.693.408-1.034.628l-8.261-10.732a44.158 44.158 0 0 1 9.625-7.496 27.071 27.071 0 0 1 7.524-2.983 19.348 19.348 0 0 1 3.08-.43 15.39 15.39 0 0 1 5.841.76l1.914.825a14.3 14.3 0 0 1 3.432 2.576z"/>
        <path fill="#002F6C" fill-rule="nonzero" d="M140.712 207.107a36.02 36.02 0 0 1-10.802 16.963 21.824 21.824 0 0 1-3.003 2.069c-3.63 2.047-6.919 2.257-9.438.947a7.514 7.514 0 0 1-2.288-1.872 10.592 10.592 0 0 1-1.859-3.5v-.077c.49-.21.968-.449 1.43-.716 6.094-3.445 11.418-11.073 13.794-19.031l12.166 5.217z" opacity=".7"/>
        <path fill="#000" fill-rule="nonzero" d="M139.348 189.605l-6.248-2.653a7.937 7.937 0 0 1 2.97.386l.979.429a7.228 7.228 0 0 1 2.299 1.838z"/>
        <path stroke="#000" stroke-width="1.1" d="M159.907 257.202a3.618 3.618 0 0 0-.506-.253l.506.253z"/>
        <path fill="#CAD8FC" fill-rule="nonzero" d="M163.086 258.776a3.628 3.628 0 0 0-1.936-.341 3.573 3.573 0 0 0-1.43.462l-2.42 1.431-74.492 43.04a7.772 7.772 0 0 0-3.883 6.725v78.571a4.304 4.304 0 0 0 2.2 3.787l-2.728-1.387a4.08 4.08 0 0 1-.924-.474 4.338 4.338 0 0 1-1.958-3.643V308.42a7.772 7.772 0 0 1 3.883-6.737l76.362-44.118.583-.33a3.562 3.562 0 0 1 2.497-.43l.66.21.495.253 3.091 1.508z"/>
        <path fill="#F3F6FF" fill-rule="nonzero" d="M165.155 262.078v80.047a7.466 7.466 0 0 1-3.708 6.439L85.47 392.44a4.397 4.397 0 0 1-4.037.176l-.374-.198a4.305 4.305 0 0 1-2.2-3.787v-78.538a7.773 7.773 0 0 1 3.883-6.726l74.558-43.039 2.453-1.42a3.573 3.573 0 0 1 1.43-.462 3.628 3.628 0 0 1 1.936.341 3.58 3.58 0 0 1 2.036 3.291z"/>
        <path fill="#CAD8FC" fill-rule="nonzero" d="M265.573 199.336a3.518 3.518 0 0 0-1.936-.33c-.506.042-.995.2-1.43.462l-2.453 1.409-74.492 43.039a7.772 7.772 0 0 0-3.883 6.726v78.538a4.405 4.405 0 0 0 .88 2.653c.36.444.8.817 1.298 1.1l-2.728-1.398a5.235 5.235 0 0 1-.924-.473 4.338 4.338 0 0 1-1.958-3.643V248.89a7.772 7.772 0 0 1 3.883-6.736l76.362-44.118.583-.33a3.628 3.628 0 0 1 2.497-.43l.66.21.495.253 3.146 1.596z"/>
        <path fill="#F3F6FF" fill-rule="nonzero" d="M267.641 202.539v80.046a7.453 7.453 0 0 1-3.707 6.44l-75.977 43.908a4.32 4.32 0 0 1-4.037.177l-.374-.188a4.61 4.61 0 0 1-1.298-1.1 4.405 4.405 0 0 1-.88-2.653v-78.582a7.772 7.772 0 0 1 3.883-6.726l74.492-43.04 2.453-1.408c.435-.262.924-.42 1.43-.462a3.518 3.518 0 0 1 1.936.33 3.578 3.578 0 0 1 2.079 3.258z"/>
        <path fill="#2F81FF" fill-rule="nonzero" d="M86.724 313.142v29.72a2.323 2.323 0 0 0 3.476 1.97l25.564-14.76a4.624 4.624 0 0 0 2.31-4.007v-29.291a2.488 2.488 0 0 0-3.718-2.147l-25.421 14.684a4.404 4.404 0 0 0-2.211 3.831z" opacity=".4"/>
        <path fill="#000" fill-rule="nonzero" d="M125.961 301.892a.814.814 0 0 1-.693-.396.793.793 0 0 1 .297-1.1l15.686-9.07a.792.792 0 0 1 .781 1.375l-15.686 9.06a.704.704 0 0 1-.385.131zM125.961 310.94a.814.814 0 0 1-.693-.396.793.793 0 0 1 .297-1.1l23.529-13.584a.792.792 0 0 1 1.1.286.782.782 0 0 1-.297 1.101l-23.529 13.583a.704.704 0 0 1-.407.11zM125.939 320a.78.78 0 0 1-.682-.397.793.793 0 0 1 .286-1.1l31.394-18.108a.785.785 0 1 1 .781 1.365l-31.383 18.119a.88.88 0 0 1-.396.12z" opacity=".2"/>
        <path fill="#837CBC" fill-rule="nonzero" d="M86.735 358.262v19.395a2.902 2.902 0 1 0 4.4 2.52l63.8-36.83a4.922 4.922 0 0 0 2.453-4.26v-20.441a2.3 2.3 0 0 0-3.443-1.993L89.232 354.08a4.855 4.855 0 0 0-2.497 4.183z" opacity=".8"/>
        <path fill="#000" fill-rule="nonzero" d="M193.171 274.187l9.218-5.328a2.408 2.408 0 0 1 3.619 2.08v27.31a4.238 4.238 0 0 1-2.112 3.665l-9.482 5.504a2.067 2.067 0 0 1-3.102-1.783v-28.267a3.699 3.699 0 0 1 1.859-3.181zM217.239 243.366l11.33-6.319a1.462 1.462 0 0 1 2.2 1.277v45.461a4.26 4.26 0 0 1-2.112 3.666l-9.482 5.503a2.067 2.067 0 0 1-3.102-1.783l-.253-45.296a2.818 2.818 0 0 1 1.419-2.51zM246.994 242.98l9.218-5.327a2.408 2.408 0 0 1 3.619 2.08v27.31a4.25 4.25 0 0 1-2.123 3.665l-9.471 5.504a2.067 2.067 0 0 1-3.102-1.783v-28.245a3.699 3.699 0 0 1 1.859-3.204z" opacity=".1"/>
        <path fill="#E5EDFF" fill-rule="nonzero" d="M211.933 588.61c.583-11.008 2.882-66.331-8.8-73.079a6.41 6.41 0 0 0-5.346-.583c-5.874 1.948-10.296 12.24-15.4 24.161-4.026 9.39-9.042 21.08-13.2 22.455-.55.193-1.16.111-1.64-.22-5.94-3.423-6.687-30.667-7.303-52.56-.902-32.385-2.013-52.385-9.9-56.92a5.783 5.783 0 0 0-5.27-.418c-6.27 2.553-10.284 15.861-16.323 37.359-4.642 16.566-10.428 37.183-16.412 39.627-.73.294-1.56.195-2.2-.264-8.118-4.69-7.58-33.375-7.14-56.436.507-28.971.507-46.903-7.193-51.416a5.497 5.497 0 0 0-5.247-.308c-6.248 2.972-8.998 18.515-12.947 43.612-2.376 15.058-5.962 37.8-10.087 39.77-.055 0-.143.066-.462-.121-3.223-1.86-6.512-16.875-3.74-44.415l-5.093-.518c-.737 7.221-3.85 43.535 6.27 49.38a5.497 5.497 0 0 0 5.236.297c6.27-2.972 8.954-18.504 12.87-43.557 2.376-15.058 5.962-37.821 10.087-39.792.066 0 .143-.066.473.121 5.5 3.182 5.016 27.409 4.653 46.87-.54 28.168-1.1 54.773 9.69 60.97a7.454 7.454 0 0 0 6.755.573c8.294-3.38 13.695-22.61 19.415-42.93 4.037-14.375 9.053-32.262 13.32-34.001.155-.066.342-.143.77.11 5.952 3.434 6.71 30.71 7.327 52.627.89 32.35 2.013 52.329 9.9 56.853a6.937 6.937 0 0 0 5.819.65c6.325-2.103 11.165-13.364 16.28-25.318 3.85-8.949 8.624-20.1 12.32-21.321.39-.14.825-.082 1.166.154 6.6 3.809 7.623 42.28 6.248 68.367l5.104.22z"/>
        <path fill="#335089" fill-rule="nonzero" d="M558.888 364.613c-3.762-17.337-23.32-31.922-50.413-35.598-34.529-4.623-68.2 10.402-75.251 33.55-.242.815-.462 1.64-.638 2.466a28.87 28.87 0 0 1 .638-14.695c7.029-23.115 40.7-38.174 75.251-33.562 33.308 4.458 55.22 25.56 50.413 47.839z"/>
        <path fill="url(#B)" fill-rule="nonzero" d="M558.888 364.613a30.849 30.849 0 0 1-.638 2.444c-7.04 23.115-40.7 38.162-75.251 33.55-27.093-3.621-46.651-18.261-50.413-35.576.176-.825.396-1.651.638-2.466 7.029-23.115 40.7-38.173 75.251-33.55 27.093 3.621 46.651 18.261 50.413 35.598z"/>
        <path fill="#E5EDFF" fill-rule="nonzero" d="M490.534 364.448a4.663 4.663 0 0 1-2.431-.694l-35.2-21.288a5.427 5.427 0 0 1-2.607-4.612v-6.869a4.018 4.018 0 0 0-1.98-3.456l-20.999-12.24L391.6 335.97a9.19 9.19 0 0 1-9.183-.005 9.203 9.203 0 0 1-4.6-7.953V144.607a10.47 10.47 0 0 0-5.237-9.073 10.455 10.455 0 0 0-10.471.014l-91.179 52.89a1.187 1.187 0 0 1-1.805-1.024c.003-.431.24-.827.617-1.034l91.135-52.836a12.83 12.83 0 0 1 12.842-.016 12.847 12.847 0 0 1 6.43 11.123v183.362a6.814 6.814 0 0 0 3.406 5.904 6.805 6.805 0 0 0 6.813-.004l36.938-21.343 22.187 12.933a6.407 6.407 0 0 1 3.168 5.504v6.869a3.05 3.05 0 0 0 1.463 2.587l35.2 21.288a2.33 2.33 0 0 0 3.542-2.003v-21.432a1.188 1.188 0 1 1 2.376 0v21.443a4.657 4.657 0 0 1-4.708 4.689z"/>
        <path fill="#AFC3EC" fill-rule="nonzero" d="M536.899 261.715s-4.026 13.385-6.908 25.163a75.327 75.327 0 0 1-71.874 0c-2.871-11.778-6.897-25.163-6.897-25.163 25.775 17.848 59.904 17.848 85.679 0z"/>
        <circle cx="494.5" cy="200.5" r="75.5" fill="#FFF"/>
        <g fill-rule="nonzero">
            <path fill="#1A4780" d="M494.472 222.963a.833.833 0 0 1-.499-.164l-19.639-14.487a.824.824 0 0 1-.334-.662v-7.238a.828.828 0 0 1 1.017-.802l11.307 2.532c.2.045.375.16.494.324l7.662 10.586 7.65-10.588a.833.833 0 0 1 .493-.324l11.308-2.533a.84.84 0 0 1 .706.159.82.82 0 0 1 .314.644v7.24c0 .26-.124.506-.335.662L494.97 222.8a.84.84 0 0 1-.498.164zm-18.806-15.727l18.806 13.876 18.813-13.876v-5.795l-9.985 2.234-8.142 11.27a.836.836 0 0 1-1.355 0l-8.156-11.27-9.981-2.233v5.794z"/>
            <path fill="#4F81C4" d="M474.833 201.235a.828.828 0 0 1-.833-.823v-16.854c0-1.635.151-3.41 1.272-4.153a2.106 2.106 0 0 1 1.205-.342c.816 0 1.659.34 2.336.614.968.385 9.267 5.119 16.08 9.056a.821.821 0 0 1 .412.717.822.822 0 0 1-.423.71l-19.637 10.968a.837.837 0 0 1-.412.107zm1.693-20.53a.941.941 0 0 0-.092.004l-.263.028-.128.227c-.175.299-.377.99-.377 2.594v15.448l17.136-9.574-.772-.443c-2.127-1.226-12.792-7.357-13.839-7.785-1.085-.438-1.44-.498-1.665-.498z"/>
            <path fill="#2BB8B3" d="M494.47 215.29a.836.836 0 0 1-.675-.345l-8.144-11.269-11-2.461a.82.82 0 1 1-.225-1.52l19.69-10.997c6.764-3.909 15.02-8.617 16.02-9.02.678-.274 1.521-.615 2.338-.615.427-.01.848.109 1.204.342 1.121.743 1.273 2.518 1.273 4.156v16.85a.82.82 0 0 1-.65.804l-10.992 2.46-8.16 11.27a.836.836 0 0 1-.677.343l-.001.002zm-17.348-15.208l9.205 2.058c.2.044.375.16.494.324l7.651 10.588 7.667-10.589a.833.833 0 0 1 .493-.323l10.653-2.386v-16.196c0-1.607-.202-2.298-.372-2.595l-.147-.254h-.307c-.2 0-.593.051-1.676.487l-.025.01c-1.045.428-11.768 6.585-15.817 8.922l-17.82 9.954z"/>
        </g>
        <path fill="url(#C)" fill-rule="nonzero" d="M529.991 286.878c-1.595 6.605-2.838 12.604-2.838 15.576.006.212-.02.423-.077.627-.1 1.42-.291 2.832-.572 4.227a75.38 75.38 0 0 1-64.9 0 35.51 35.51 0 0 1-.561-4.227 2.104 2.104 0 0 1-.088-.627c0-2.972-1.232-9.026-2.838-15.576a75.327 75.327 0 0 0 71.874 0z"/>
        <path fill="#F3F6FF" fill-rule="nonzero" d="M526.504 307.308c-3.13 15.447-16.7 26.55-32.45 26.55-15.75 0-29.32-11.103-32.45-26.55a75.38 75.38 0 0 0 64.9 0z"/>
        <path fill="url(#D)" fill-rule="nonzero" d="M506.583 331.425a14.815 14.815 0 0 1-12.524 6.903 14.815 14.815 0 0 1-12.523-6.903 33.177 33.177 0 0 0 25.047 0z"/>
        <path fill="url(#E)" fill-rule="nonzero" d="M421.3 418.384s-2.255 7.232 1.804 6.858c4.059-.374 12.727-5.052 12.353-6.858-.374-1.805-9.592-.198-9.592-.198l-2.904-1.1-1.661 1.298z"/>
        <path fill="url(#F)" fill-rule="nonzero" d="M410.861 415.842s-2.2 7.154 1.793 6.791c3.993-.363 12.606-5.008 12.232-6.791-.374-1.784-9.493-.21-9.493-.21l-2.893-1.1-1.639 1.31z"/>
        <path fill="url(#G)" fill-rule="nonzero" d="M416.119 373.672s2.2 7.771 2.002 12.416c-.198 4.646 3.102 33.232 3.102 33.232s.385.638 1.771.561a3.97 3.97 0 0 0 2.2-.737s.44-45.505-.693-48.62c-1.133-3.115-8.338-1.728-8.338-1.728l-.044 4.876z"/>
        <path fill="url(#H)" fill-rule="nonzero" d="M405.966 371.977s2.2 7.705 1.991 12.284c-.209 4.58 3.069 32.913 3.069 32.913s.385.638 1.749.56a3.936 3.936 0 0 0 2.134-.726s.44-45.064-.682-48.157c-1.122-3.093-8.261-1.695-8.261-1.695v4.82z"/>
        <path fill="url(#I)" fill-rule="nonzero" d="M430.342 373.54a15.952 15.952 0 0 0-5.687-1.42c-5.368.165-4.796 1.607-10.483 1.893-5.687.286-11.374-3.61-11.374-3.61 0-.738-1.419-3.203-.066-8.058 1.265-4.513.704-6.175.132-8.41a5.3 5.3 0 0 1 5.236-1.595c4.587.968 12.76-1.486 12.76-1.486a22.997 22.997 0 0 1-9.724-.066 43.81 43.81 0 0 1-2.926-.771 24.542 24.542 0 0 1-5.797-2.345l3.597-.297c2.662-.209 6.446-.517 9.9-.76 4.741-.352 9.009-.605 9.394-.473.902.32 2.464 2.356 2.464 2.356l2.574 25.042z"/>
        <path fill="url(#J)" fill-rule="nonzero" d="M403.216 305.15s-6.6 12.109-6.171 17.073c.429 4.964 13.123 7.21 13.123 7.21l-.583-12.868-6.369-11.414z"/>
        <path fill="url(#K)" fill-rule="nonzero" d="M249.557 317.325s-3.201 14.232-5.676 17.612c-1.76 2.41-2.948 17.337-3.498 25.768l-.44.66v-.979c.858-12.593 1.98-25.141 3.124-27.695 2.42-5.415 4.07-12.174 3.652-14.497a2.202 2.202 0 0 0-.418-.902l3.256.033z"/>
        <path fill="url(#L)" fill-rule="nonzero" d="M238.304 388.763a8.007 8.007 0 0 1 .924 4.282c-.242 2.202-.924 3.434-5.874 2.378-4.95-1.057-12.727-1.41-12.826-3.302-.099-1.894 11.737-3.567 11.737-3.567l6.039.21z"/>
        <path fill="url(#M)" fill-rule="nonzero" d="M246.4 383.16a8.117 8.117 0 0 1 .924 4.282c-.242 2.202-.924 3.435-5.874 2.378-4.95-1.057-12.727-1.409-12.826-3.302-.099-1.894 11.737-3.567 11.737-3.567l6.039.21z"/>
        <path fill="url(#N)" fill-rule="nonzero" d="M251.174 327.154c-1.21 2.72-2.398 16.765-3.3 30.128-.902 13.363-1.474 25.878-1.474 25.878a3.43 3.43 0 0 1-3.3 1.002c-2.365-.341-2.695-1.178-2.695-1.178l-.176-7.925-.176-8.553-.11-5.13.44-.66c.55-8.431 1.738-23.358 3.498-25.768 2.475-3.413 5.676-17.612 5.676-17.612h-3.3c.206.265.35.574.418.902.418 2.323-1.232 9.082-3.652 14.497-1.1 2.554-2.266 15.102-3.124 27.695l-.88-41.487v-1.409l.275-.198 1.628-1.233 1.188-.892.099-.066 7.579-5.702s4.62.936 5.049 3.237c.429 2.3-1.232 9.07-3.663 14.474z"/>
        <path fill="url(#O)" fill-rule="nonzero" d="M243.1 332.724c-1.1 2.554-2.266 15.102-3.124 27.695 0 .374 0 .749-.077 1.1-.099 1.476-.198 2.929-.286 4.404-.187 2.994-.363 5.91-.517 8.597-.462 8.156-.737 14.243-.737 14.243a3.409 3.409 0 0 1-3.3 1.002c-2.376-.341-2.706-1.178-2.706-1.178l-.374-17.612-.154-7.177-.154-7.529-.671-25.24-.165-7.947 7.7-5.757 3.102-2.334c.187.028.37.073.55.132a9.204 9.204 0 0 1 3.751 1.828c.115.113.222.234.319.363.206.265.35.574.418.902.44 2.334-1.21 9.093-3.575 14.508z"/>
        <path fill="url(#P)" fill-rule="nonzero" d="M207.086 263.29a4.543 4.543 0 0 1-2.376-1.784c-2.035-2.884 1.1-2.785-1.804-5.504-1.023-.957.231-2.201 2.321-2.829 2.09-.627 5.027 4.326 4.598 8.267-.429 3.94-2.739 1.85-2.739 1.85z"/>
        <path fill="url(#Q)" fill-rule="nonzero" d="M233.937 247.35a4.279 4.279 0 0 1-2.277-1.607c-1.991-2.63.935-2.63-1.859-5.063-.99-.859.154-2.026 2.079-2.708 1.925-.682 4.84 3.886 4.565 7.584-.275 3.699-2.508 1.794-2.508 1.794z"/>
        <path fill="url(#R)" fill-rule="nonzero" d="M251.196 276.641s-10.681-32.472-16.621-30.755c-5.291 1.52 7.876 31.372 7.876 31.372l8.745-.617z"/>
        <path fill="url(#S)" fill-rule="nonzero" d="M243.914 270.565l.429 5.416s-2.464 2.498-2.596 2.51c-.132.01-4.488-.44-4.488-.44a59.392 59.392 0 0 0-.264-6.737l-.286-.837 6.424-1.63.781 1.718z"/>
        <path fill="url(#T)" fill-rule="nonzero" d="M234.058 259.745s-2.926 6.472-2.145 6.868c.781.397-.352 5.504 2.827 5.361a9.723 9.723 0 0 0 8.646-5.24c2.046-3.841-3.168-9.059-3.168-9.059l-3.883-1.034-2.277 3.104z"/>
        <path fill="#012860" fill-rule="nonzero" d="M234.223 250.686s-4.466 5.966-.165 9.059c4.301 3.093 3.883 4.403 3.223 5.603a2.665 2.665 0 0 0-.242 2.201s3.674-4.403 4.125-1.717c.451 2.686-3.839 3.467-1.232 4.656 2.607 1.189 8.47-.418 9.537-5.823 1.067-5.405-2.563-7.44-2.563-7.44s.286-3.303-2.057-4.459c-2.343-1.156-4.279.187-5.269-.385-.99-.573.495-3.49-1.617-4.403-1.166-.496-3.74 2.708-3.74 2.708z"/>
        <path fill="url(#U)" fill-rule="nonzero" d="M256.597 315.729a10.419 10.419 0 0 1-2.09 1.783c-.408.232-.83.438-1.265.616-.594.254-1.1.397-1.1.397l-1.1-4.326-.495 4.766s-1.518 1.1-8.294 2.686a36.276 36.276 0 0 1-13.827.143 19.089 19.089 0 0 1-.099-7.705c.748-4.855 1.562-4.932 2.2-14.52.638-9.587-7.59-14.804-14.696-22.576-7.106-7.77-11.286-12.548-7.612-15.41 2.2-1.74 11.198 7.199 17.996 12.284l.088.066c3.113 2.323 5.753 3.809 7.051 3.06l4.004-2.3a12.961 12.961 0 0 1 10.538-1.1l.506.186c3.993 1.541 4.4 6.065 3.773 12.527l-.066.583c-.693 6.78 1.221 11.305 2.717 16.787a60.304 60.304 0 0 1 1.771 12.053z"/>
        <path fill="url(#V)" fill-rule="nonzero" d="M233.464 276.971c-1.32 1.101-2.486 4.932-4.29 6.198-1.804 1.266 0-1.927.363-4.227.33-2.059-2.563-4.557-3.124-5.03 3.113 2.322 5.753 3.808 7.051 3.06z"/>
        <path fill="url(#W)" fill-rule="nonzero" d="M256.597 315.729a10.419 10.419 0 0 1-2.09 1.783c-.408.232-.83.438-1.265.616a4.978 4.978 0 0 1-.33-2.884c.539-4.524-3.751-2.674-6.963-4.16-3.212-1.486 4.554-6.275 5.17-9.654.616-3.38-.858-6.197-4.4-7.64-3.542-1.441 5.5-7.484 5.5-7.484l-.066.583c-.693 6.78 1.221 11.305 2.717 16.787.98 3.949 1.56 7.987 1.727 12.053z"/>
        <path fill="url(#X)" fill-rule="nonzero" d="M421.52 285.678s2.354 3.49 1.782 4.745c-.286.605 2.277 4.05.594 5.217-2.299 1.596-5.819 1.387-9.526-1.596s-1.375-8.366-1.375-8.366l3.828-3.192 4.697 3.192z"/>
        <path fill="url(#Y)" fill-rule="nonzero" d="M440.286 299.438s3.575-9.73 4.191-9.125c.616.605-.759 3.731.352 5.008 1.111 1.277 2.563 1.871 1.1 3.676-1.463 1.806-5.357 3.963-5.357 3.963l-.286-3.522z"/>
        <path fill="url(#Z)" fill-rule="nonzero" d="M432.443 323.72a16.614 16.614 0 0 1-7.194-6.483c.154.352 1.1 2.763.605 3.962-.186.389-.41.758-.671 1.101v.077l-.077.1a.385.385 0 0 1-.055.087 3.117 3.117 0 0 0-.528 2.906c.385 1.277 1.1 2.554 1.815 4.745a38.273 38.273 0 0 1 1.408 5.91c.608 3.912.98 7.856 1.111 11.812 0 0-.374.22-1.034.56a28.444 28.444 0 0 1-6.963 2.357 22.997 22.997 0 0 1-9.724-.066 43.81 43.81 0 0 1-2.926-.771 24.542 24.542 0 0 1-5.797-2.345c-1.485-.902-1.749-1.53-1.749-1.53s.077-.77.22-2.003c.429-3.875 1.408-12.328 2.2-15.994.671-3.159-.11-7.287-.671-11.646a42.826 42.826 0 0 1-.451-7.012c.275-8.684 10.725-9.026 10.725-9.026s7.535-.396 11.781 5.295c2.871 3.842 5.5 6.428 7.172 7.089.814.33 1.408.198 1.716-.44.198-.43.55-1.387 1.012-2.61 1.727-4.523 4.983-12.68 7.524-11.007 3.256 2.158-4.037 27.695-9.449 24.932z"/>
        <path fill="url(#aa)" fill-rule="nonzero" d="M418.77 340.022a20.25 20.25 0 0 0 4.004-1.034 10.044 10.044 0 0 0 2.585-2.026 10.614 10.614 0 0 1-1.716 3.644c-1.1 1.232-1.419 1.365-1.419 1.365s.605-2.08-.539-1.916c-.97.087-1.947.076-2.915-.033z"/>
        <path fill="url(#ab)" fill-rule="nonzero" d="M426.283 330.215c-.143-.166-2.75-3.05-4.4-3.523-1.65-.473-1.65-.616.22-1.552a8.736 8.736 0 0 0 2.937-2.576 3.117 3.117 0 0 0-.528 2.906c.341 1.277 1.045 2.554 1.771 4.745z"/>
        <path fill="url(#ac)" fill-rule="nonzero" d="M410.168 335.685c-2.376 2.015-4.796 4.403-5.863 6.462-.814 1.552-.869 2.96.363 3.973.47.385.919.797 1.342 1.233a24.07 24.07 0 0 1 2.2 2.642 24.542 24.542 0 0 1-5.797-2.345c-1.485-.902-1.749-1.53-1.749-1.53s.077-.77.22-2.003c.429-3.875 1.408-12.328 2.2-15.994.671-3.159-.11-7.287-.671-11.646 0 0 6.006 4.15 4.4 6.087-1.606 1.938-2.783 5.724-1.177 6.869 1.606 1.145 8.668 2.763 4.532 6.252z"/>
        <path fill="url(#ad)" fill-rule="nonzero" d="M434.28 313.725c.132 1.2-2.64-.891-2.64-.891.814.33 1.408.198 1.716-.44.198-.43.55-1.387 1.012-2.61a11.191 11.191 0 0 0-.088 3.941z"/>
        <path fill="url(#ae)" fill-rule="nonzero" d="M420.86 350.832s-8.173 2.454-12.76 1.486a5.3 5.3 0 0 0-5.236 1.618l-.132-.518c-.366-1.9-.474-3.84-.319-5.768a24.542 24.542 0 0 0 5.797 2.345c.869.264 1.848.517 2.926.77 3.2.715 6.515.738 9.724.067z"/>
        <path fill="#012860" fill-rule="nonzero" d="M421.52 285.678s-3.3.639-1.782 5.24c1.518 4.601 2.959 6.792.704 8.41-2.255 1.618-1.166 2.917-.55 4.403 1.386 3.368 1.914 8.806-5.5 8.255-7.414-.55-13.838-4.524-11.726-10.006 1.177-3.049 5.951-4.403 3.454-6.604-1.298-1.167-1.32-4.656 0-8.366 1.705-4.81 4.51-8.024 9.625-7.254 5.115.77 5.775 5.922 5.775 5.922z"/>
    </g>
</svg>
