<?xml version="1.0" standalone="no"?>
<!DOCTYPE svg PUBLIC "-//W3C//DTD SVG 20010904//EN"
 "http://www.w3.org/TR/2001/REC-SVG-20010904/DTD/svg10.dtd">
<svg version="1.0" xmlns="http://www.w3.org/2000/svg"
 width="770.000000pt" height="540.000000pt" viewBox="0 0 770.000000 540.000000"
 preserveAspectRatio="xMidYMid meet">

<g transform="translate(0.000000,540.000000) scale(0.100000,-0.100000)"
fill="#000000" stroke="none">
<path d="M0 2700 l0 -2700 761 0 760 0 -15 22 c-18 25 -21 85 -6 108 7 11 -27
51 -143 170 -179 183 -274 297 -260 311 6 6 38 -25 91 -88 81 -99 326 -348
339 -347 5 0 24 4 44 8 72 15 133 -40 128 -114 -5 -70 -4 -70 308 -70 l273 0
0 145 0 145 528 -2 527 -3 3 -142 3 -143 357 0 358 0 -4 35 c-4 31 1 41 37 75
23 22 46 51 51 65 6 15 14 23 20 20 21 -13 8 -47 -35 -87 -44 -41 -51 -60 -39
-92 5 -14 35 -16 230 -16 l224 0 0 60 c0 51 4 65 25 85 l24 25 445 0 c311 0
453 -3 470 -11 29 -14 46 -55 46 -115 l0 -44 1075 0 1075 0 0 2700 0 2700
-442 0 -443 0 3 -87 c4 -120 -18 -165 -100 -205 -32 -16 -58 -33 -58 -38 0 -5
18 -21 41 -35 52 -33 51 -68 -1 -103 -19 -13 -36 -27 -38 -32 -2 -5 15 -20 37
-35 35 -22 41 -30 41 -60 0 -19 -4 -35 -10 -35 -5 0 -10 11 -10 24 0 18 -12
33 -42 53 -64 43 -63 54 16 117 l29 23 -44 29 c-34 23 -44 36 -44 57 1 18 -4
27 -15 27 -26 0 -79 38 -100 72 -16 27 -20 51 -20 131 l0 97 -40 0 -40 0 0
-304 c0 -264 -2 -307 -16 -320 -13 -14 -49 -16 -238 -16 -159 0 -225 3 -234
12 -9 9 -12 94 -12 320 l0 308 -290 0 -290 0 0 -75 c0 -67 -3 -79 -25 -100
l-24 -25 -465 0 c-255 0 -472 3 -481 6 -29 11 -43 61 -37 131 l5 63 -139 0
-138 0 32 -33 c30 -31 41 -57 25 -57 -4 0 -24 17 -45 37 l-38 37 -38 -37 c-21
-20 -41 -37 -45 -37 -16 0 -5 26 25 57 l33 34 -400 -5 c-220 -2 -407 -4 -415
-4 -8 0 -113 2 -232 4 l-218 5 0 -144 c0 -128 -2 -148 -19 -168 l-19 -24 -277
0 -277 0 -24 28 c-23 27 -24 35 -24 168 l0 139 -200 0 c-195 0 -200 -1 -190
-19 24 -46 1 -118 -45 -139 -36 -17 -86 -15 -114 4 -22 16 -24 15 -64 -22 -70
-66 -128 -126 -217 -225 -137 -153 -126 -136 -107 -157 85 -93 -16 -220 -133
-168 -17 7 -123 -152 -206 -307 -31 -60 -50 -85 -57 -78 -6 6 1 29 22 70 36
69 125 218 175 292 30 45 32 53 23 87 -19 72 30 132 106 132 28 0 39 8 72 52
22 29 109 123 193 209 141 145 152 159 152 193 0 21 5 46 10 57 11 19 -1 19
-745 19 l-755 0 0 -2700z m1895 2520 c9 -15 -21 -65 -50 -84 -32 -21 -46 -55
-33 -79 5 -9 27 -29 49 -43 41 -26 63 -64 54 -93 -3 -10 -25 -38 -50 -63 -25
-26 -45 -54 -45 -62 0 -9 -4 -16 -10 -16 -5 0 -10 13 -10 28 0 21 12 40 45 70
25 23 45 50 45 61 0 13 -20 35 -55 61 -48 36 -55 45 -55 76 0 28 9 43 45 78
25 25 45 51 45 60 0 18 15 22 25 6z m2163 -221 c53 -5 153 -21 222 -35 l125
-25 20 24 c39 48 84 58 135 32 34 -17 60 -62 60 -100 0 -22 8 -29 53 -48 28
-12 105 -47 169 -79 84 -41 116 -61 112 -72 -4 -11 -26 -3 -97 34 -51 27 -127
63 -169 80 l-77 32 -26 -20 c-38 -30 -78 -36 -119 -17 -31 15 -66 64 -66 94 0
11 -36 22 -155 45 -141 27 -245 36 -432 36 -207 0 -346 -16 -535 -61 -126 -30
-127 -31 -138 -65 -23 -68 -102 -95 -168 -57 -28 16 -30 16 -143 -40 -130 -64
-260 -143 -368 -224 -47 -35 -76 -52 -83 -45 -21 21 240 195 438 293 l122 60
-5 39 c-5 35 -2 43 30 75 26 26 43 35 69 35 40 0 94 -31 103 -60 5 -15 12 -19
23 -15 72 28 262 65 447 88 68 9 363 6 453 -4z m2485 -146 c97 -120 218 -306
207 -317 -5 -5 -11 -8 -13 -5 -2 2 -32 47 -67 99 -35 52 -92 133 -127 179 -69
89 -82 111 -65 111 6 0 36 -30 65 -67z m-1365 -43 c32 -20 35 -20 80 -4 63 23
210 30 281 14 234 -52 412 -274 411 -513 0 -79 -27 -174 -70 -255 -31 -57 -38
-77 -30 -92 16 -30 12 -82 -10 -117 -32 -53 -111 -62 -160 -18 -13 11 -27 9
-90 -12 -268 -91 -558 50 -659 322 -58 154 -24 366 77 494 18 22 18 26 4 50
-36 63 21 151 96 151 20 0 52 -9 70 -20z m-3108 -191 c0 -7 -8 -17 -17 -24
-15 -11 -10 -14 34 -20 135 -18 281 -135 317 -252 14 -44 -19 -23 -43 28 -46
93 -163 178 -269 195 -43 7 -44 6 -31 -14 7 -12 10 -24 7 -28 -9 -8 -78 48
-78 63 0 12 59 63 73 63 4 0 7 -5 7 -11z m1806 -34 c10 -8 31 -15 47 -15 61 0
93 -90 45 -124 -68 -48 -137 17 -104 95 5 12 -1 20 -23 29 -60 24 -111 -7
-160 -99 l-32 -61 28 -11 c15 -5 53 -22 84 -36 l57 -25 88 22 c119 30 242 31
306 2 102 -45 102 -143 0 -261 l-38 -44 33 -49 c33 -51 53 -104 53 -148 0 -28
-34 -90 -50 -90 -5 0 -18 -17 -27 -37 -23 -47 -62 -64 -100 -43 -64 36 -44
122 29 128 22 2 39 -3 48 -12 18 -22 36 -20 54 6 23 33 20 87 -9 144 -48 93
-44 92 -117 39 -34 -26 -64 -48 -65 -49 -1 -1 -11 -42 -21 -91 -36 -163 -96
-264 -172 -286 -73 -22 -142 37 -194 165 l-24 59 -94 1 c-68 1 -103 7 -132 21
-42 20 -76 66 -76 105 0 14 -7 34 -15 44 -24 31 -19 72 11 95 15 12 34 21 44
21 31 0 70 -39 70 -71 0 -33 -31 -69 -60 -69 -14 0 -20 -7 -20 -21 0 -62 67
-98 183 -99 87 0 83 -5 68 91 -9 51 -15 61 -81 125 -87 84 -144 166 -160 233
-10 44 -10 55 7 88 29 60 70 76 178 69 l90 -5 36 67 c43 82 83 112 149 112 25
0 55 -7 66 -15z m-1956 -35 c0 -5 -24 -21 -53 -35 -106 -49 -195 -170 -211
-284 -7 -44 -6 -45 13 -27 13 12 21 14 26 6 7 -11 -43 -78 -60 -79 -15 -1 -67
68 -60 80 5 7 14 4 26 -7 21 -19 24 -15 33 49 8 62 52 143 107 202 64 68 179
129 179 95z m5395 -115 l25 -24 0 -310 0 -310 43 -3 42 -3 -2 -57 c-2 -35 -9
-68 -20 -84 -34 -53 -42 -54 -570 -54 -445 0 -491 2 -523 18 -45 22 -71 73
-68 132 l3 45 43 3 42 3 0 314 0 314 26 20 c26 21 37 21 481 21 l454 0 24 -25z
m-4260 -45 c30 -27 60 -50 65 -50 6 0 10 -4 10 -10 0 -25 -48 -6 -91 36 -55
54 -82 55 -113 3 -49 -83 -97 -92 -157 -29 -21 22 -51 45 -65 51 -20 7 -24 13
-16 21 17 17 62 -6 95 -47 40 -50 78 -49 111 4 28 44 62 71 88 71 10 0 43 -22
73 -50z m-928 -51 c18 -11 41 -34 50 -50 12 -20 25 -29 43 -29 46 -1 90 -52
90 -105 0 -35 -27 -81 -57 -94 -15 -7 -104 -11 -234 -11 l-211 0 -34 34 c-39
39 -45 80 -17 126 19 33 51 50 93 50 17 0 30 4 30 8 0 4 12 22 28 40 52 62
147 75 219 31z m-1497 -109 l0 -90 83 -1 c45 -1 146 -3 224 -4 l142 -2 3 90
c2 61 7 92 16 95 9 3 12 -19 12 -87 l0 -91 28 -5 c101 -21 142 -82 142 -211 0
-80 0 -81 23 -77 16 3 34 -4 55 -22 l32 -27 0 -99 c0 -93 -2 -102 -25 -124
-15 -16 -36 -25 -55 -25 l-30 0 0 -75 c0 -42 -6 -90 -14 -109 -17 -42 -70 -82
-118 -91 l-38 -7 0 -89 c0 -72 -3 -89 -15 -89 -12 0 -15 17 -15 90 l0 90 -225
0 -225 0 0 -90 c0 -53 -4 -90 -10 -90 -6 0 -10 37 -10 90 0 90 0 90 -25 90
-39 0 -86 24 -120 59 l-30 32 -3 333 c-3 332 -3 332 20 366 28 41 72 68 119
74 l34 3 3 92 c4 118 22 119 22 1z m1825 -46 c17 -23 24 -39 18 -45 -6 -6 -15
-4 -23 6 -12 15 -15 9 -27 -45 -17 -87 -49 -147 -110 -208 -57 -57 -158 -111
-175 -94 -6 6 9 18 45 35 111 51 197 162 215 280 l9 58 -22 -21 c-35 -33 -41
-6 -8 35 15 19 33 35 39 35 7 0 24 -16 39 -36z m-757 -187 c57 -101 169 -179
278 -193 l49 -7 -19 22 c-24 27 -14 39 16 18 67 -47 65 -43 28 -82 -44 -45
-85 -49 -44 -4 14 15 11 17 -44 27 -75 13 -151 51 -209 105 -44 40 -103 129
-103 155 0 26 19 10 48 -41z m75 -309 c-22 -46 -52 -116 -68 -156 -19 -52 -31
-70 -38 -63 -12 12 20 100 86 240 28 59 42 80 50 72 7 -7 -1 -34 -30 -93z
m2975 -13 c62 -106 59 -110 -63 -110 -83 0 -100 3 -103 16 -3 16 73 158 92
171 17 12 31 -2 74 -77z m1161 -27 c52 -115 71 -176 58 -181 -7 -2 -29 38 -55
102 -55 133 -57 141 -43 141 7 0 25 -28 40 -62z m-3406 -55 c28 -49 45 -88 41
-97 -9 -23 -202 -24 -210 -1 -10 24 89 189 110 182 6 -2 32 -40 59 -84z m482
7 c5 0 26 16 46 36 49 48 60 27 13 -26 l-37 -41 37 -38 c24 -24 34 -41 27 -45
-6 -4 -27 10 -46 31 l-34 38 -41 -40 c-27 -26 -43 -36 -50 -29 -7 7 2 21 25
44 19 19 35 37 35 41 0 5 -15 25 -34 45 -46 50 -34 66 13 20 20 -20 41 -36 46
-36z m4221 -171 c10 -17 -13 -36 -27 -22 -12 12 -4 33 11 33 5 0 12 -5 16 -11z
m19 -99 c0 -22 -29 -18 -33 3 -3 14 1 18 15 15 10 -2 18 -10 18 -18z m15 -84
c0 -8 -5 -18 -11 -22 -14 -8 -33 11 -25 25 10 16 36 13 36 -3z m-5315 -38
c135 -29 229 -112 277 -246 16 -46 21 -89 25 -228 6 -200 -4 -281 -48 -371
-57 -118 -161 -184 -323 -206 -87 -11 -362 5 -397 23 -18 10 -19 27 -19 511
l0 499 27 11 c34 13 266 27 348 22 33 -3 83 -9 110 -15z m3473 0 c52 -16 99
-63 116 -116 30 -94 218 -901 213 -915 -6 -16 -203 -23 -226 -8 -7 5 -25 62
-40 127 l-27 119 -145 3 -146 3 -26 -123 c-15 -67 -32 -125 -39 -129 -18 -12
-215 -6 -227 6 -7 7 1 55 23 145 19 74 68 279 111 454 42 176 84 333 92 350
28 55 79 87 151 96 62 8 119 4 170 -12z m-1893 -9 l50 -14 0 -90 0 -90 -30 1
c-196 9 -343 6 -376 -8 -76 -33 -105 -141 -97 -365 5 -113 9 -139 29 -180 35
-71 75 -93 165 -93 l74 0 0 168 c0 117 4 172 12 180 19 19 193 16 212 -4 14
-13 16 -51 16 -258 0 -183 -3 -246 -12 -254 -23 -18 -170 -36 -303 -36 -157 0
-215 18 -298 94 -107 97 -137 193 -137 436 0 184 9 245 49 329 45 94 116 155
226 192 52 17 348 11 420 -8z m-865 -509 c0 -286 -3 -521 -7 -521 -23 -5 -209
-6 -220 -2 -10 4 -13 109 -13 524 l0 519 120 0 120 0 0 -520z m1348 2 l2 -513
-22 -8 c-19 -7 -136 -8 -200 -3 -17 2 -18 34 -18 522 l0 521 118 -3 117 -3 3
-513z m890 430 c2 -53 -1 -89 -9 -98 -9 -11 -40 -14 -130 -14 l-119 0 0 -419
c0 -326 -3 -420 -12 -424 -28 -10 -200 -7 -214 4 -12 9 -14 82 -14 425 l0 414
-111 0 c-146 0 -149 2 -149 95 0 40 3 81 6 89 6 15 45 16 378 14 l371 -3 3
-83z m1192 -319 c5 -369 6 -404 23 -420 15 -15 42 -19 175 -23 l157 -5 0 -90
0 -89 -40 -9 c-65 -15 -303 -14 -362 1 -76 20 -126 60 -159 129 l-29 58 -3
414 c-2 228 -1 420 2 428 4 11 29 13 118 11 l113 -3 5 -402z m-5652 354 c2
-12 -3 -17 -17 -17 -12 0 -21 6 -21 13 0 31 32 34 38 4z m6832 0 c0 -8 -3 -17
-7 -20 -9 -9 -34 13 -27 24 8 14 34 11 34 -4z m-6845 -88 c0 -7 -8 -15 -17
-17 -18 -3 -25 18 -11 32 10 10 28 1 28 -15z m6881 -8 c59 -29 79 -56 79 -108
0 -119 -167 -143 -205 -29 -14 42 -1 80 43 122 18 18 35 32 38 33 3 1 23 -8
45 -18z m-6890 -72 c10 -17 -13 -36 -27 -22 -12 12 -4 33 11 33 5 0 12 -5 16
-11z m-1 -99 c0 -8 -8 -16 -17 -18 -13 -2 -18 3 -18 18 0 15 5 20 18 18 9 -2
17 -10 17 -18z m6180 -111 c26 -44 44 -87 41 -95 -8 -20 -189 -24 -210 -4 -13
12 85 180 106 180 10 0 34 -31 63 -81z m-6185 21 c0 -11 -6 -20 -14 -20 -18 0
-29 16 -21 30 11 18 35 11 35 -10z m6890 -6 c0 -8 -9 -14 -20 -14 -19 0 -27
19 -14 33 10 9 34 -4 34 -19z m-6894 -75 c10 -17 -13 -36 -27 -22 -12 12 -4
33 11 33 5 0 12 -5 16 -11z m6894 -15 c0 -8 -9 -14 -20 -14 -22 0 -28 26 -7
33 16 6 27 -1 27 -19z m-6890 -84 c0 -11 -6 -20 -13 -20 -19 0 -27 10 -20 26
8 21 33 17 33 -6z m6890 -6 c0 -8 -9 -14 -20 -14 -19 0 -27 19 -14 33 10 9 34
-4 34 -19z m-6215 -71 c25 -43 44 -87 43 -98 -3 -18 -11 -20 -103 -20 -86 0
-100 2 -103 17 -3 17 72 157 92 170 20 14 25 9 71 -69z m5925 45 c-1 -22 -24
-55 -53 -78 -59 -47 -57 -75 10 -121 45 -32 68 -69 58 -98 -3 -10 -25 -38 -50
-63 -25 -26 -45 -54 -45 -62 0 -9 -4 -16 -10 -16 -5 0 -10 12 -10 26 0 18 14
40 45 71 25 24 45 53 45 63 0 12 -19 34 -49 55 -79 57 -83 96 -16 161 25 24
45 50 45 59 0 8 7 15 15 15 8 0 15 -6 15 -12z m-6595 -58 c0 -22 -29 -18 -33
3 -3 14 1 18 15 15 10 -2 18 -10 18 -18z m6879 -11 c-8 -14 -34 -11 -34 4 0 8
3 17 7 20 9 9 34 -13 27 -24z m-6874 -79 c0 -23 -25 -27 -33 -6 -7 16 1 26 20
26 7 0 13 -9 13 -20z m6868 -3 c2 -12 -3 -17 -17 -17 -12 0 -21 6 -21 13 0 31
32 34 38 4z m-6858 -81 c0 -8 -5 -18 -11 -22 -14 -8 -33 11 -25 25 10 16 36
13 36 -3z m6848 -9 c2 -10 -3 -17 -12 -17 -18 0 -29 16 -21 31 9 14 29 6 33
-14z m-6838 -81 c0 -21 -21 -31 -30 -15 -5 7 -6 17 -4 21 9 14 34 9 34 -6z
m6828 -9 c2 -10 -3 -17 -12 -17 -18 0 -29 16 -21 31 9 14 29 6 33 -14z m-6815
-74 c9 -9 -13 -34 -24 -27 -14 8 -11 34 4 34 8 0 17 -3 20 -7z m6802 -14 c0
-7 -8 -15 -17 -17 -18 -3 -25 18 -11 32 10 10 28 1 28 -15z m-6785 -84 c0 -8
-9 -15 -20 -15 -11 0 -20 7 -20 15 0 8 9 15 20 15 11 0 20 -7 20 -15z m6766 4
c10 -17 -13 -36 -27 -22 -12 12 -4 33 11 33 5 0 12 -5 16 -11z m-5926 -44 c37
-19 50 -43 50 -95 0 -108 -149 -140 -199 -43 -21 42 -13 83 23 119 38 38 77
44 126 19z m-822 -48 c2 -12 -3 -17 -17 -17 -12 0 -21 6 -21 13 0 31 32 34 38
4z m3652 -12 l36 -35 34 35 c31 32 60 45 60 28 0 -4 -17 -24 -37 -45 l-37 -38
37 -38 c20 -21 37 -41 37 -45 0 -17 -27 -4 -60 28 l-36 35 -34 -35 c-19 -19
-38 -35 -42 -35 -17 0 -7 26 24 57 l32 33 -32 33 c-30 31 -41 57 -25 57 4 0
23 -16 43 -35z m3080 11 c0 -8 -5 -18 -11 -22 -14 -8 -33 11 -25 25 10 16 36
13 36 -3z m-4774 -39 c12 -7 33 -26 48 -43 14 -18 37 -35 51 -38 33 -8 32 -26
-1 -26 -17 0 -40 15 -70 45 -24 25 -52 45 -64 45 -13 0 -33 -18 -55 -49 -20
-27 -42 -52 -51 -55 -40 -15 -67 -5 -107 39 -22 25 -49 45 -59 45 -10 0 -18 7
-18 15 0 30 43 15 84 -30 56 -61 84 -61 126 0 44 64 73 77 116 52z m-1940 -38
c10 -17 -13 -36 -27 -22 -12 12 -4 33 11 33 5 0 12 -5 16 -11z m6694 -12 c0
-8 -3 -17 -7 -20 -9 -9 -34 13 -27 24 8 14 34 11 34 -4z m-1250 -63 c0 -14
-21 -19 -33 -7 -9 9 13 34 24 27 5 -3 9 -12 9 -20z m-5420 -18 c0 -8 -5 -18
-11 -22 -14 -8 -33 11 -25 25 10 16 36 13 36 -3z m1270 -78 c25 -51 69 -133
98 -181 34 -57 50 -93 44 -99 -12 -12 -75 87 -152 242 -33 65 -60 122 -60 125
0 3 6 5 13 5 7 0 33 -42 57 -92z m1934 60 c144 -47 276 -186 302 -317 10 -50
-15 -36 -33 19 -67 198 -287 328 -494 291 -38 -7 -90 -23 -116 -36 -26 -13
-50 -22 -55 -19 -30 19 89 71 187 83 78 9 136 3 209 -21z m3444 9 c2 -10 -3
-17 -12 -17 -18 0 -29 16 -21 31 9 14 29 6 33 -14z m-3926 -54 l25 -68 70 -5
c39 -3 75 -9 79 -13 5 -4 -7 -20 -26 -35 -19 -15 -46 -36 -59 -48 l-24 -21 16
-60 c28 -98 24 -102 -56 -48 -28 19 -55 35 -60 35 -4 0 -32 -16 -62 -36 -29
-20 -58 -33 -64 -30 -6 4 -2 31 10 74 19 65 19 68 1 82 -10 8 -36 30 -58 47
-49 41 -37 53 52 53 l61 0 16 43 c9 23 21 54 26 70 6 15 14 27 19 27 5 0 20
-30 34 -67z m1920 20 c10 -9 18 -22 18 -30 0 -10 39 -13 193 -14 105 -1 195
-1 200 0 4 0 7 -9 8 -21 1 -28 1 -290 0 -300 -1 -5 -91 -8 -201 -8 l-200 0 0
-63 c0 -73 -21 -121 -68 -153 l-31 -21 47 -30 c49 -30 86 -87 80 -121 -3 -14
-17 -18 -75 -20 -53 -2 -71 -6 -67 -16 3 -7 -5 -24 -16 -39 -29 -37 -80 -37
-109 -1 -12 15 -21 33 -21 40 0 11 -18 14 -75 14 -90 0 -99 10 -67 75 14 30
35 52 66 70 l45 26 -39 36 c-43 38 -60 81 -60 156 l0 47 -200 0 -200 0 2 163
3 162 195 3 195 2 17 30 17 30 162 0 c137 0 165 -3 181 -17z m741 -10 c9 -9
-13 -34 -24 -27 -14 8 -11 34 4 34 8 0 17 -3 20 -7z m-5359 -44 c-8 -14 -34
-11 -34 4 0 8 3 17 7 20 9 9 34 -13 27 -24z m6599 15 c9 -10 -4 -34 -19 -34
-8 0 -14 9 -14 20 0 19 19 27 33 14z m-3503 -19 c102 -53 60 -215 -55 -215
-38 0 -83 26 -100 60 -53 103 52 208 155 155z m-2753 -60 l23 -35 252 -2 253
-3 3 -42 3 -43 49 0 49 0 1 -250 1 -251 -30 -29 -29 -30 -191 0 -191 0 0 -60
0 -60 35 0 c33 0 35 -2 35 -35 l0 -35 200 0 c171 0 200 -2 200 -15 0 -13 -29
-15 -200 -15 l-200 0 0 -35 0 -35 -85 0 -85 0 0 35 0 35 -129 0 c-70 0 -156 3
-190 6 -119 13 -59 24 128 24 l190 0 3 33 c3 29 6 32 41 35 l37 3 0 60 0 59
-184 0 c-177 0 -186 1 -210 23 l-26 22 0 315 c0 173 0 325 0 338 0 21 3 22
113 22 l112 0 22 -35z m4978 15 c0 -22 -29 -18 -33 3 -3 14 1 18 15 15 10 -2
18 -10 18 -18z m-5295 -30 c0 -11 -6 -20 -14 -20 -18 0 -29 16 -21 30 11 18
35 11 35 -10z m2161 -9 l24 -19 3 -429 c1 -235 0 -438 -3 -451 -3 -12 -14 -31
-25 -42 -19 -19 -35 -20 -354 -20 -314 0 -335 1 -357 19 l-24 19 0 452 0 452
24 19 c22 18 43 19 356 19 313 0 334 -1 356 -19z m4387 7 c-7 -19 -38 -22 -38
-4 0 10 9 16 21 16 12 0 19 -5 17 -12z m-1298 -41 c0 -8 -3 -17 -7 -20 -9 -9
-34 13 -27 24 8 14 34 11 34 -4z m1266 -38 c10 -17 -13 -36 -27 -22 -12 12 -4
33 11 33 5 0 12 -5 16 -11z m-1311 -40 c0 -7 -8 -15 -17 -17 -18 -3 -25 18
-11 32 10 10 28 1 28 -15z m-1919 -37 c6 -4 17 -18 24 -31 28 -55 -68 -110
-104 -59 -20 28 -20 48 0 76 15 22 57 30 80 14z m3199 -13 c0 -7 -8 -15 -17
-17 -18 -3 -25 18 -11 32 10 10 28 1 28 -15z m-1329 -20 c10 -17 -13 -36 -27
-22 -12 12 -4 33 11 33 5 0 12 -5 16 -11z m-2068 -366 c2 -283 0 -323 -13
-323 -13 0 -15 34 -15 255 l0 255 -55 0 -55 0 -1 -232 c-1 -128 -2 -237 -4
-243 -1 -5 -3 -16 -3 -22 -1 -7 -6 -13 -12 -13 -12 0 -14 632 -3 644 4 4 41 5
83 4 l75 -3 3 -322z m3390 275 c49 -62 42 -136 -18 -171 -46 -28 -87 -22 -127
18 -33 33 -35 39 -30 81 6 53 26 77 82 97 56 20 56 20 93 -25z m-3017 -28 l22
-60 63 0 c78 0 81 -12 19 -59 -25 -18 -45 -39 -45 -46 0 -6 7 -34 15 -61 8
-27 15 -50 15 -51 0 -12 -40 3 -76 27 l-44 31 -44 -31 c-57 -39 -79 -40 -70
-2 4 15 11 37 15 50 15 39 10 50 -36 83 -63 46 -59 59 18 59 l63 0 13 38 c27
75 31 82 40 82 6 0 20 -27 32 -60z m1644 39 c0 -7 -8 -15 -17 -17 -18 -3 -25
18 -11 32 10 10 28 1 28 -15z m-2541 -71 c13 -132 106 -269 225 -334 30 -16
53 -33 50 -39 -14 -37 -163 74 -229 170 -48 71 -95 233 -75 265 13 20 22 0 29
-62z m3175 17 c26 -25 55 -45 65 -45 9 0 16 -7 16 -15 0 -29 -41 -15 -89 30
-62 58 -82 58 -126 -4 -56 -77 -90 -81 -149 -17 -23 24 -50 45 -60 47 -29 6
-32 29 -4 29 15 0 40 -17 68 -45 57 -58 80 -58 120 0 55 80 90 85 159 20z
m-689 -21 c0 -17 -26 -19 -36 -3 -7 12 15 31 28 23 4 -3 8 -12 8 -20z m-2267
-55 c17 -24 18 -30 6 -55 -19 -40 -79 -47 -103 -12 -22 30 -20 54 5 79 27 27
66 21 92 -12z m2211 -20 c-8 -14 -34 -11 -34 4 0 8 3 17 7 20 9 9 34 -13 27
-24z m-64 -59 c0 -11 -7 -20 -15 -20 -8 0 -15 9 -15 20 0 11 7 20 15 20 8 0
15 -9 15 -20z m1405 -21 c0 -7 -8 -15 -17 -17 -18 -3 -25 18 -11 32 10 10 28
1 28 -15z m-1465 -45 c0 -14 -21 -19 -33 -7 -9 9 13 34 24 27 5 -3 9 -12 9
-20z m1426 -25 c10 -17 -13 -36 -27 -22 -12 12 -4 33 11 33 5 0 12 -5 16 -11z
m-1493 -34 c1 -5 -6 -11 -15 -13 -11 -2 -18 3 -18 13 0 17 30 18 33 0z m1447
-55 c0 -23 -25 -27 -33 -6 -7 16 1 26 20 26 7 0 13 -9 13 -20z m-2972 -2 c-7
-22 -102 -68 -113 -56 -7 7 -7 12 0 14 6 3 28 15 50 28 45 27 69 32 63 14z
m2824 -65 c17 -15 18 -42 18 -436 0 -377 -2 -422 -17 -439 -15 -17 -42 -18
-454 -18 l-438 0 -15 22 c-14 19 -16 78 -16 433 0 355 2 414 16 433 l15 22
436 0 c392 0 438 -2 455 -17z m106 -10 c2 -8 -5 -13 -17 -13 -12 0 -21 6 -21
16 0 18 31 15 38 -3z m-2008 -31 c0 -48 51 -134 98 -167 40 -27 51 -30 126
-30 73 0 87 3 124 27 48 32 92 101 99 158 4 25 11 40 19 40 35 0 -5 -126 -57
-180 -50 -51 -90 -71 -158 -77 -107 -10 -195 35 -243 123 -35 65 -48 134 -24
134 11 0 16 -9 16 -28z m115 -6 c4 -19 20 -47 37 -63 61 -59 166 -23 183 63 9
51 29 43 22 -8 -12 -91 -126 -142 -205 -92 -31 20 -62 73 -62 107 0 38 18 34
25 -7z m-1877 -257 c111 -44 263 -87 412 -116 111 -21 175 -26 361 -30 l226
-5 7 35 c15 82 119 116 177 58 16 -16 29 -37 29 -45 0 -20 -5 -21 135 13 121
30 306 90 359 118 19 10 32 11 38 5 13 -13 -16 -28 -142 -75 -103 -39 -318
-97 -356 -97 -18 0 -27 -9 -38 -34 -18 -44 -51 -66 -99 -66 -31 0 -46 7 -72
32 l-32 33 -204 0 c-115 0 -241 6 -289 13 -214 33 -440 97 -620 176 -97 43
-94 41 -86 55 4 7 27 1 64 -15 31 -14 90 -39 130 -55z m2539 -72 c25 -42 42
-84 39 -92 -8 -21 -201 -22 -209 -1 -3 7 15 50 41 95 58 104 69 103 129 -2z
m-3507 -72 c24 -25 53 -45 63 -45 10 0 17 -5 15 -12 -10 -28 -40 -17 -92 32
-63 60 -83 60 -120 2 -52 -83 -97 -88 -161 -19 -24 26 -50 47 -59 47 -9 0 -16
5 -16 10 0 25 49 7 92 -35 26 -25 53 -45 62 -45 8 0 25 14 38 31 50 66 66 79
100 79 27 0 43 -9 78 -45z"/>
<path d="M4463 4965 c-29 -21 -38 -66 -19 -103 25 -49 82 -57 121 -17 69 68
-23 175 -102 120z"/>
<path d="M2982 4937 c-39 -41 -26 -105 26 -126 57 -24 120 28 107 89 -13 59
-92 81 -133 37z"/>
<path d="M5084 4800 c-55 -22 -70 -95 -29 -135 44 -45 116 -26 138 37 11 31
-19 85 -54 97 -18 6 -32 11 -33 10 -1 0 -11 -4 -22 -9z"/>
<path d="M5348 4799 c-31 -4 -73 -15 -92 -23 -33 -14 -36 -19 -36 -55 0 -61
-43 -105 -101 -105 -24 0 -51 3 -60 7 -20 10 -68 -58 -100 -142 -31 -78 -37
-218 -14 -297 52 -183 190 -317 366 -359 103 -24 192 -18 296 22 38 14 42 18
36 43 -7 36 21 93 53 111 23 12 63 15 108 7 14 -2 27 12 52 57 83 150 85 332
6 479 -57 107 -193 215 -307 244 -63 16 -145 21 -207 11z m223 -172 c75 -36
136 -98 172 -176 67 -143 21 -330 -105 -421 -112 -81 -259 -93 -376 -30 -122
65 -185 171 -185 310 0 80 19 139 69 212 31 45 115 104 175 124 68 22 182 13
250 -19z"/>
<path d="M5374 4620 c-56 -22 -116 -135 -129 -243 l-7 -57 86 0 86 0 0 155 c0
85 -3 155 -7 154 -5 0 -17 -4 -29 -9z"/>
<path d="M5440 4475 l0 -155 85 0 c79 0 85 1 85 21 0 48 -33 160 -60 203 -26
40 -80 86 -102 86 -5 0 -8 -70 -8 -155z"/>
<path d="M5243 4575 c-72 -49 -124 -127 -138 -212 l-7 -43 56 0 55 0 6 48 c11
78 33 144 64 195 17 26 27 47 23 47 -4 0 -30 -16 -59 -35z"/>
<path d="M5569 4565 c27 -43 53 -124 66 -207 l6 -38 56 0 55 0 -6 38 c-4 20
-21 65 -37 100 -25 50 -43 73 -91 108 -33 24 -64 44 -69 44 -5 0 4 -20 20 -45z"/>
<path d="M5316 4292 l-78 -3 6 -50 c11 -83 45 -160 91 -206 71 -72 75 -66 75
106 0 83 -3 151 -7 153 -5 2 -43 2 -87 0z"/>
<path d="M5688 4292 c-52 -3 -51 -2 -63 -92 -6 -48 -46 -143 -72 -172 -24 -27
-3 -22 50 11 25 17 62 52 81 78 36 49 74 160 59 172 -4 3 -29 5 -55 3z"/>
<path d="M5105 4253 c16 -90 68 -166 144 -215 51 -32 71 -36 49 -10 -38 42
-66 120 -83 225 l-6 37 -56 0 -55 0 7 -37z"/>
<path d="M5440 4140 c0 -173 4 -179 75 -107 46 46 78 119 90 205 l7 52 -86 0
-86 0 0 -150z"/>
<path d="M5715 3978 c-49 -26 -61 -87 -25 -126 44 -47 110 -37 134 20 31 74
-41 144 -109 106z"/>
<path d="M3890 4525 c-7 -8 -10 -25 -6 -40 5 -20 13 -25 36 -25 36 0 56 30 40
60 -13 24 -52 26 -70 5z"/>
<path d="M3398 4370 c-26 -27 -30 -36 -25 -70 5 -40 35 -109 62 -144 15 -19
15 -19 45 2 17 13 47 34 67 48 34 23 38 31 53 104 l16 78 -29 6 c-16 3 -59 6
-94 6 -59 0 -67 -3 -95 -30z"/>
<path d="M3631 4336 c-22 -89 -21 -89 70 -48 l82 37 -49 21 c-91 40 -90 40
-103 -10z"/>
<path d="M4017 4354 c-15 -5 -17 -13 -12 -47 14 -90 20 -102 86 -165 l67 -63
35 42 c84 97 89 177 16 215 -31 16 -158 28 -192 18z"/>
<path d="M3917 4335 c-26 -7 -49 -14 -51 -16 -2 -2 25 -23 60 -46 l64 -43 -6
43 c-12 75 -13 76 -67 62z"/>
<path d="M3715 4264 c-44 -19 -85 -38 -91 -40 -14 -6 -22 -114 -16 -192 4 -52
6 -54 61 -91 117 -79 109 -78 219 -29 111 50 109 47 111 181 1 83 0 89 -26
113 -39 36 -137 94 -159 94 -11 0 -55 -16 -99 -36z"/>
<path d="M3525 4159 c-22 -16 -43 -33 -47 -37 -5 -5 17 -32 47 -62 l55 -54 0
92 c0 51 -3 92 -7 92 -5 0 -26 -14 -48 -31z"/>
<path d="M4024 4075 c0 -47 2 -85 5 -85 9 0 52 29 79 54 l22 20 -47 48 c-26
26 -50 48 -53 48 -3 0 -5 -38 -6 -85z"/>
<path d="M3322 4038 c-34 -34 6 -90 48 -68 35 19 20 80 -20 80 -9 0 -21 -5
-28 -12z"/>
<path d="M3623 3889 c4 -28 8 -53 10 -56 6 -5 107 19 107 26 -1 3 -28 23 -62
44 l-61 38 6 -52z"/>
<path d="M3978 3924 c-3 -3 -41 -20 -84 -39 -72 -31 -76 -35 -53 -43 13 -6 43
-18 67 -27 25 -10 47 -14 52 -9 8 9 31 116 26 122 -2 1 -5 -1 -8 -4z"/>
<path d="M3710 3820 c-75 -20 -75 -21 -29 -117 54 -112 117 -140 183 -82 35
30 94 134 83 146 -5 4 -172 75 -172 72 0 -1 -29 -9 -65 -19z"/>
<path d="M4082 3778 c-28 -28 -3 -72 39 -66 30 4 47 33 33 56 -14 21 -55 27
-72 10z"/>
<path d="M6372 4417 c-8 -9 -12 -117 -14 -320 l-3 -307 478 0 477 0 0 308 c0
226 -3 311 -12 320 -18 18 -911 17 -926 -1z m896 -304 l-3 -258 -430 0 -430 0
-3 258 -2 257 435 0 435 0 -2 -257z"/>
<path d="M6430 4115 l0 -235 405 0 405 0 0 235 0 235 -405 0 -405 0 0 -235z
m192 138 c24 -22 23 -68 -2 -86 -16 -11 -20 -27 -22 -110 -2 -56 -7 -97 -13
-97 -6 0 -11 41 -13 97 -2 83 -6 99 -22 110 -39 27 -14 103 33 103 11 0 29 -7
39 -17z m170 0 c24 -21 23 -58 -2 -83 -16 -16 -20 -36 -22 -116 -2 -67 -7 -99
-15 -102 -10 -3 -13 21 -13 100 0 92 -2 104 -20 116 -13 8 -20 23 -20 41 0 54
53 80 92 44z m172 -5 c22 -30 20 -54 -5 -77 -18 -17 -21 -32 -23 -117 -1 -68
-5 -99 -13 -101 -10 -4 -13 20 -13 96 0 94 -2 102 -26 126 -18 18 -23 31 -19
48 15 49 73 63 99 25z m136 -49 c0 -64 3 -73 25 -91 14 -11 25 -28 25 -39 0
-11 -11 -31 -25 -45 -14 -14 -25 -36 -25 -49 0 -14 -4 -25 -10 -25 -5 0 -10
11 -10 25 0 13 -11 35 -25 49 -14 14 -25 32 -25 41 0 9 11 27 25 41 22 22 25
34 25 94 0 40 4 70 10 70 6 0 10 -30 10 -71z"/>
<path d="M6557 4228 c-6 -18 11 -48 28 -48 21 0 37 34 23 48 -16 16 -45 15
-51 0z"/>
<path d="M6726 4224 c-9 -22 17 -49 39 -40 10 3 15 15 13 28 -4 29 -42 37 -52
12z"/>
<path d="M6894 4225 c-4 -9 0 -23 8 -31 20 -20 50 -7 46 20 -4 26 -45 35 -54
11z"/>
<path d="M7070 4085 c-17 -20 -5 -45 20 -45 11 0 23 7 26 15 6 15 -11 45 -26
45 -4 0 -13 -7 -20 -15z"/>
<path d="M6273 3713 c4 -35 12 -53 32 -70 l26 -23 504 0 504 0 26 23 c20 17
28 35 32 70 l6 47 -134 0 -134 0 -19 -34 c-33 -62 -60 -68 -296 -64 l-209 3
-30 29 c-17 16 -33 38 -37 48 -5 16 -18 18 -141 18 l-136 0 6 -47z"/>
<path d="M6570 3753 c1 -14 24 -39 47 -51 34 -19 406 -16 442 3 24 12 41 33
41 51 0 2 -119 4 -265 4 -146 0 -265 -3 -265 -7z"/>
<path d="M1974 4326 c-33 -15 -74 -60 -74 -83 0 -11 -7 -13 -29 -8 -33 7 -85
-15 -95 -40 -13 -35 -6 -72 20 -96 25 -23 30 -24 212 -26 240 -3 272 7 272 84
0 43 -26 72 -70 79 -30 5 -44 14 -58 38 -34 58 -112 80 -178 52z m84 -38 c-3
-7 -19 -16 -36 -20 -18 -5 -39 -21 -49 -36 -9 -15 -18 -29 -19 -31 -2 -1 -7 0
-13 4 -16 10 14 62 47 79 33 19 75 21 70 4z"/>
<path d="M519 4087 c-68 -45 -70 -56 -67 -397 3 -334 3 -330 65 -371 26 -17
53 -19 334 -19 302 0 306 0 340 23 58 39 59 43 59 382 0 293 -1 312 -20 343
-36 59 -57 62 -383 62 -289 0 -295 0 -328 -23z m276 -122 c35 -34 33 -78 -5
-117 -26 -25 -36 -29 -63 -24 -41 8 -65 32 -73 73 -5 27 -1 37 24 63 39 38 83
40 117 5z m223 9 c35 -24 44 -59 27 -100 -35 -83 -155 -58 -155 33 0 67 74
105 128 67z m-359 -199 c16 -8 31 -22 35 -30 33 -88 -61 -163 -128 -102 -42
37 -36 106 12 131 34 19 46 19 81 1z m254 -16 c27 -33 23 -93 -9 -118 -56 -44
-134 -8 -134 62 0 77 94 114 143 56z m231 1 c31 -30 27 -87 -8 -116 -55 -48
-136 -13 -136 58 1 78 89 113 144 58z m-126 -186 c52 -36 46 -111 -10 -140
-83 -43 -160 65 -93 131 28 29 70 32 103 9z m-223 -19 c35 -34 33 -78 -5 -117
-26 -25 -36 -29 -63 -24 -46 9 -71 38 -71 82 0 73 88 111 139 59z"/>
<path d="M696 3944 c-34 -33 -7 -94 42 -94 43 0 71 67 40 98 -17 17 -64 15
-82 -4z"/>
<path d="M930 3945 c-30 -36 -4 -95 42 -95 23 0 58 35 58 58 0 43 -73 70 -100
37z"/>
<path d="M580 3740 c-24 -24 -25 -38 -4 -68 35 -51 117 -8 95 50 -16 42 -59
50 -91 18z"/>
<path d="M822 3753 c-7 -3 -18 -16 -23 -30 -22 -59 59 -102 95 -51 21 30 20
44 -4 68 -20 20 -42 24 -68 13z"/>
<path d="M1046 3744 c-19 -18 -21 -65 -4 -82 18 -18 63 -14 81 6 47 52 -28
126 -77 76z"/>
<path d="M925 3536 c-12 -18 -13 -30 -6 -49 19 -50 94 -44 107 9 14 56 -69 89
-101 40z"/>
<path d="M696 3534 c-34 -33 -7 -94 42 -94 43 0 71 67 40 98 -17 17 -64 15
-82 -4z"/>
<path d="M1280 3695 c0 -119 1 -125 20 -125 12 0 32 11 45 25 22 21 25 33 25
98 0 85 -22 127 -66 127 l-24 0 0 -125z"/>
<path d="M4646 3658 l-35 -63 71 -3 c39 -2 72 -1 75 1 4 5 -65 127 -72 127 -2
0 -20 -28 -39 -62z"/>
<path d="M2398 3578 l-36 -63 70 -3 c39 -2 73 -1 75 2 6 5 -59 126 -67 126 -3
0 -22 -28 -42 -62z"/>
<path d="M1680 2690 l0 -332 99 4 c117 4 142 16 181 94 24 47 25 57 25 234 0
179 -1 187 -25 235 -37 71 -72 88 -187 93 l-93 4 0 -332z"/>
<path d="M5232 2833 c-23 -103 -42 -196 -42 -205 0 -16 11 -18 100 -18 73 0
100 3 100 13 0 6 -20 97 -43 202 -31 140 -46 191 -58 193 -12 2 -24 -34 -57
-185z"/>
<path d="M7243 3032 c-28 -4 -63 -47 -63 -77 0 -12 9 -34 21 -49 43 -55 139
-21 139 50 -1 50 -45 85 -97 76z"/>
<path d="M6493 2798 c-11 -18 -30 -50 -42 -70 l-23 -38 81 0 81 0 -20 41 c-12
22 -29 54 -39 70 l-19 30 -19 -33z"/>
<path d="M966 2520 c-20 -34 -36 -63 -36 -66 0 -2 34 -4 75 -4 41 0 75 2 75 5
0 10 -62 115 -70 120 -5 3 -25 -22 -44 -55z"/>
<path d="M1180 2010 c-40 -40 -15 -128 38 -131 52 -4 78 10 93 48 10 28 -7 80
-31 93 -31 16 -79 11 -100 -10z"/>
<path d="M3181 1728 c-19 -62 -27 -68 -89 -68 l-55 0 47 -35 c25 -20 46 -39
46 -43 0 -4 -7 -28 -15 -54 -8 -27 -12 -48 -9 -48 3 0 22 11 42 25 46 31 54
31 99 0 20 -13 38 -23 40 -21 2 2 -2 25 -8 52 l-12 48 44 38 44 38 -57 0 -56
0 -18 48 c-24 66 -29 68 -43 20z"/>
<path d="M4828 1769 c-16 -9 -18 -32 -18 -240 0 -258 5 -282 65 -319 45 -28
157 -28 202 0 59 36 63 55 66 315 2 200 0 237 -13 245 -20 13 -280 12 -302 -1z
m170 -217 c2 -122 0 -142 -13 -142 -13 0 -15 22 -15 146 0 112 3 145 13 142 9
-3 13 -44 15 -146z"/>
<path d="M4410 1645 l0 -65 48 0 49 0 1 38 c1 20 -1 49 -4 65 -5 24 -10 27
-50 27 l-44 0 0 -65z"/>
<path d="M4530 1645 l0 -65 60 0 60 0 0 65 0 65 -60 0 -60 0 0 -65z"/>
<path d="M4670 1645 l0 -65 55 0 55 0 0 65 0 65 -55 0 -55 0 0 -65z"/>
<path d="M5170 1645 l0 -65 50 0 50 0 0 65 0 65 -50 0 -50 0 0 -65z"/>
<path d="M5300 1645 l0 -65 55 0 55 0 0 65 0 65 -55 0 -55 0 0 -65z"/>
<path d="M5440 1645 l0 -65 55 0 55 0 0 65 0 65 -55 0 -55 0 0 -65z"/>
<path d="M4410 1490 l0 -60 44 0 c44 0 44 1 49 38 11 82 11 82 -44 82 l-49 0
0 -60z"/>
<path d="M4532 1493 l3 -58 55 0 55 0 3 58 3 57 -61 0 -61 0 3 -57z"/>
<path d="M4672 1493 l3 -58 53 -3 52 -3 0 60 0 61 -55 0 -56 0 3 -57z"/>
<path d="M5172 1493 l3 -58 48 -3 47 -3 0 60 0 61 -50 0 -51 0 3 -57z"/>
<path d="M5300 1490 l0 -60 55 0 55 0 0 60 0 60 -55 0 -55 0 0 -60z"/>
<path d="M5440 1489 l0 -60 53 3 52 3 3 58 3 57 -56 0 -55 0 0 -61z"/>
<path d="M4905 1147 c-56 -19 -93 -45 -111 -78 -7 -15 -14 -30 -14 -34 0 -3
88 -5 195 -5 212 0 216 1 174 54 -46 59 -164 89 -244 63z"/>
<path d="M4940 986 c0 -18 27 -46 44 -46 16 0 46 32 46 48 0 8 -17 12 -45 12
-32 0 -45 -4 -45 -14z"/>
<path d="M3515 1685 c-54 -53 -16 -145 60 -145 49 0 85 36 85 85 0 49 -36 85
-85 85 -25 0 -44 -8 -60 -25z"/>
<path d="M650 1362 c0 -339 2 -352 59 -352 58 0 61 12 61 283 l0 247 305 0
305 0 0 30 0 30 -244 0 -244 0 -26 35 -27 35 -95 0 -94 0 0 -308z"/>
<path d="M798 1278 c-2 -134 -7 -251 -12 -261 -8 -17 7 -18 323 -15 315 3 331
4 350 23 19 19 20 36 23 258 l3 237 -342 0 -342 0 -3 -242z"/>
<path d="M1000 775 l0 -55 58 0 58 0 1 55 1 55 -59 0 -59 0 0 -55z"/>
<path d="M2030 1620 c-18 -18 -20 -33 -20 -165 l0 -146 355 3 355 3 0 143 c0
129 -2 144 -20 162 -19 19 -33 20 -335 20 -302 0 -316 -1 -335 -20z m614 -66
c22 -22 22 -136 0 -158 -13 -14 -52 -16 -275 -16 -160 0 -268 4 -280 10 -16 9
-19 22 -19 85 0 60 3 76 18 84 10 6 120 11 279 11 225 0 264 -2 277 -16z"/>
<path d="M2100 1475 l0 -65 265 0 265 0 0 65 0 65 -265 0 -265 0 0 -65z"/>
<path d="M2017 1283 c-4 -3 -7 -126 -7 -273 0 -214 3 -270 14 -286 14 -18 29
-19 341 -19 312 0 327 1 341 19 11 16 14 73 14 293 l0 273 -348 0 c-192 0
-352 -3 -355 -7z m162 -87 c7 -8 11 -34 9 -58 l-3 -43 -43 -3 c-24 -2 -50 2
-58 9 -17 14 -19 80 -2 97 17 17 83 15 97 -2z m165 -18 c6 -18 6 -38 0 -55 -8
-24 -16 -28 -54 -31 -49 -4 -70 13 -70 56 0 48 17 63 68 60 41 -3 48 -7 56
-30z m144 20 c17 -17 15 -83 -2 -97 -8 -7 -34 -11 -58 -9 l-43 3 -3 43 c-2 24
2 50 9 58 14 17 80 19 97 2z m166 -20 c6 -18 6 -38 0 -55 -8 -24 -16 -28 -54
-31 -50 -4 -70 13 -70 59 0 41 25 61 74 57 34 -3 42 -7 50 -30z m-480 -131
c13 -10 17 -24 14 -57 -3 -38 -7 -46 -30 -54 -18 -6 -38 -6 -55 0 -24 8 -28
16 -31 54 -4 50 13 70 58 70 14 0 34 -6 44 -13z m158 -4 c40 -36 12 -113 -41
-113 -62 0 -95 67 -54 112 20 22 70 23 95 1z m152 4 c13 -10 17 -24 14 -57 -3
-38 -7 -46 -30 -54 -18 -6 -38 -6 -55 0 -24 8 -28 16 -31 54 -4 50 13 70 58
70 14 0 34 -6 44 -13z m160 -3 c13 -12 16 -38 16 -120 0 -126 -7 -144 -58
-144 -63 0 -67 7 -70 125 -5 127 7 155 63 155 18 0 41 -7 49 -16z m-456 -192
c4 -54 -10 -72 -57 -72 -45 0 -61 14 -61 56 0 58 7 65 64 62 l51 -3 3 -43z
m152 29 c27 -52 1 -101 -55 -101 -40 0 -65 22 -65 56 0 48 17 64 65 64 34 0
47 -5 55 -19z m154 3 c10 -26 7 -79 -6 -92 -7 -7 -28 -12 -48 -12 -20 0 -41 5
-48 12 -13 13 -17 90 -5 101 3 4 28 7 54 7 33 0 49 -4 53 -16z"/>
<path d="M2102 1148 c2 -27 7 -33 27 -33 28 0 47 25 38 49 -4 10 -18 16 -37
16 -29 0 -31 -2 -28 -32z"/>
<path d="M2252 1148 c3 -29 6 -33 33 -33 27 0 30 4 33 33 3 31 2 32 -33 32
-35 0 -36 -1 -33 -32z"/>
<path d="M2407 1158 c-8 -28 10 -50 37 -46 16 2 22 11 24 36 3 30 1 32 -26 32
-22 0 -31 -6 -35 -22z"/>
<path d="M2562 1148 c3 -29 6 -33 33 -33 27 0 30 4 33 33 3 31 2 32 -33 32
-35 0 -36 -1 -33 -32z"/>
<path d="M2100 995 c0 -35 1 -36 33 -33 28 3 32 6 32 33 0 27 -4 30 -33 33
-31 3 -32 2 -32 -33z"/>
<path d="M2250 995 c0 -33 2 -35 35 -35 33 0 35 2 35 35 0 33 -2 35 -35 35
-33 0 -35 -2 -35 -35z"/>
<path d="M2408 1000 c-5 -36 -3 -40 34 -40 25 0 28 3 28 35 0 32 -3 35 -29 35
-24 0 -29 -5 -33 -30z"/>
<path d="M2560 920 l0 -110 35 0 35 0 0 110 0 110 -35 0 -35 0 0 -110z"/>
<path d="M2107 873 c-4 -3 -7 -19 -7 -35 0 -27 3 -29 32 -26 32 3 35 8 29 58
-1 11 -44 14 -54 3z"/>
<path d="M2257 874 c-4 -4 -7 -20 -7 -36 0 -25 3 -28 36 -28 34 0 35 1 32 33
-2 26 -8 33 -28 35 -14 2 -29 0 -33 -4z"/>
<path d="M2407 859 c-9 -33 3 -49 34 -49 26 0 29 3 29 35 0 32 -3 35 -29 35
-21 0 -30 -6 -34 -21z"/>
<path d="M3795 1466 c-25 -18 -15 -50 16 -54 28 -3 43 16 33 42 -8 21 -30 26
-49 12z"/>
<path d="M3510 1350 l0 -50 55 0 55 0 0 50 0 50 -55 0 -55 0 0 -50z"/>
<path d="M6915 1345 c-50 -50 -18 -135 51 -135 78 1 107 99 42 144 -32 23 -65
20 -93 -9z"/>
<path d="M3971 1300 c-10 -34 -16 -40 -39 -41 -15 0 -36 -4 -46 -8 -17 -7 -16
-10 13 -30 29 -21 32 -27 26 -58 -3 -19 -9 -41 -12 -50 -4 -10 8 -6 35 12 l42
28 41 -27 c34 -23 40 -25 35 -9 -21 71 -20 75 15 104 l33 27 -46 7 c-42 6 -48
11 -58 41 -16 48 -25 49 -39 4z"/>
<path d="M3264 1235 c-14 -37 26 -69 53 -42 22 22 8 57 -23 57 -14 0 -27 -7
-30 -15z"/>
<path d="M5782 908 c-7 -7 -12 -29 -12 -50 l0 -38 440 0 440 0 0 38 c0 21 -5
43 -12 50 -17 17 -839 17 -856 0z m52 -49 c-3 -5 -10 -7 -15 -3 -5 3 -7 10 -3
15 3 5 10 7 15 3 5 -3 7 -10 3 -15z m56 13 c0 -13 -12 -22 -22 -16 -10 6 -1
24 13 24 5 0 9 -4 9 -8z m50 -7 c0 -8 -4 -15 -10 -15 -5 0 -10 7 -10 15 0 8 5
15 10 15 6 0 10 -7 10 -15z"/>
<path d="M5774 791 c-2 -2 -4 -165 -4 -361 0 -263 3 -359 12 -368 17 -17 839
-17 856 0 9 9 12 105 12 372 l0 361 -436 0 c-240 0 -438 -2 -440 -4z m314
-243 l-3 -183 -125 0 -125 0 -3 183 -2 182 130 0 130 0 -2 -182z m502 172 c0
-6 -82 -10 -225 -10 -143 0 -225 4 -225 10 0 6 82 10 225 10 143 0 225 -4 225
-10z m-252 -92 c-3 -9 -31 -14 -79 -16 -80 -3 -119 3 -119 18 0 6 42 10 101
10 76 0 100 -3 97 -12z m250 0 c-3 -9 -33 -14 -93 -16 -93 -3 -120 1 -110 18
10 16 208 13 203 -2z m-258 -173 l0 -95 -95 0 -95 0 0 95 0 95 95 0 95 0 0
-95z m250 0 l0 -96 -92 3 -93 3 -3 79 c-2 44 -1 85 2 93 4 9 29 13 96 13 l90
0 0 -95z m-554 -176 c31 -29 37 -62 20 -104 -40 -95 -181 -68 -181 35 0 86 99
128 161 69z m317 16 c-2 -6 -47 -11 -103 -13 -85 -2 -100 0 -100 13 0 13 15
15 103 13 61 -2 101 -7 100 -13z m247 0 c0 -12 -18 -15 -99 -15 -91 0 -121 7
-104 24 3 3 51 6 105 6 80 0 98 -3 98 -15z m-247 -80 c-2 -6 -47 -11 -103 -13
-85 -2 -100 0 -100 13 0 13 15 15 103 13 61 -2 101 -7 100 -13z m247 0 c0 -12
-18 -15 -99 -15 -91 0 -121 7 -104 24 3 3 51 6 105 6 80 0 98 -3 98 -15z
m-247 -80 c-4 -16 -195 -13 -201 3 -3 10 19 12 100 10 62 -2 102 -7 101 -13z
m247 0 c0 -12 -18 -15 -100 -15 -82 0 -100 3 -100 15 0 12 18 15 100 15 82 0
100 -3 100 -15z"/>
<path d="M5886 683 c54 -85 67 -103 73 -103 7 0 81 113 81 123 0 4 -39 7 -86
7 l-86 0 18 -27z"/>
<path d="M6018 611 c-21 -31 -38 -61 -38 -64 0 -4 17 -33 38 -64 l37 -56 3 61
c2 34 2 89 0 122 l-3 59 -37 -58z"/>
<path d="M5860 543 l0 -118 41 62 40 61 -37 56 c-20 31 -38 56 -40 56 -2 0 -4
-53 -4 -117z"/>
<path d="M5912 455 l-42 -65 86 0 c70 0 85 3 81 14 -5 13 -77 116 -80 116 -1
0 -21 -30 -45 -65z"/>
<path d="M6170 455 l0 -65 65 0 c36 0 66 4 66 10 1 6 2 17 2 25 0 8 -1 33 -2
55 l-1 40 -65 0 -65 0 0 -65z"/>
<path d="M6420 455 l0 -65 70 0 70 0 0 65 0 65 -70 0 -70 0 0 -65z"/>
<path d="M5910 258 c-11 -12 -20 -32 -20 -45 0 -30 42 -73 70 -73 26 0 70 43
70 68 0 11 -9 31 -21 46 -26 33 -70 35 -99 4z"/>
<path d="M4052 537 c-48 -51 -14 -127 57 -127 43 0 68 21 77 66 14 71 -83 115
-134 61z"/>
<path d="M5447 564 c-29 -47 -47 -81 -47 -88 0 -3 34 -6 75 -6 l76 0 -27 48
c-53 91 -49 89 -77 46z"/>
<path d="M1525 5365 c-31 -72 37 -135 105 -100 30 16 40 33 40 71 0 51 -16 64
-76 64 -53 0 -55 -1 -69 -35z"/>
<path d="M2110 5340 l0 -60 290 0 290 0 0 60 0 60 -290 0 -290 0 0 -60z"/>
<path d="M4330 5332 c0 -112 -48 -102 488 -102 351 0 471 3 480 12 7 7 12 41
12 83 l0 70 -490 0 -490 1 0 -64z m638 -9 c3 -10 -58 -13 -282 -13 -157 0
-286 4 -286 8 0 5 3 12 7 15 4 4 130 6 281 5 210 -2 276 -6 280 -15z m272 2
c0 -12 -19 -15 -109 -15 -100 0 -131 6 -114 24 3 3 55 6 115 6 89 0 108 -3
108 -15z"/>
<path d="M5948 5109 c-2 -160 0 -299 4 -310 7 -18 19 -19 207 -19 110 0 206 3
215 6 14 5 16 42 16 310 l0 304 -220 0 -219 0 -3 -291z m372 206 l0 -65 -155
0 -155 0 0 65 0 65 155 0 155 0 0 -65z m-16 -131 c12 -5 16 -21 16 -70 l0 -64
-155 0 -155 0 0 63 c0 35 3 67 7 70 8 9 266 9 287 1z m16 -264 l0 -70 -155 0
-155 0 0 70 0 70 155 0 155 0 0 -70z"/>
<path d="M6034 5346 c-3 -8 -4 -27 -2 -43 l3 -28 130 0 130 0 0 40 0 40 -128
3 c-104 2 -128 0 -133 -12z"/>
<path d="M6032 5118 l3 -43 130 0 130 0 3 43 3 42 -136 0 -136 0 3 -42z"/>
<path d="M6030 4920 l0 -40 136 0 135 0 -3 38 -3 37 -132 3 -133 3 0 -41z"/>
<path d="M6530 5350 l0 -40 131 0 130 0 -3 38 -3 37 -127 3 -128 3 0 -41z"/>
<path d="M6530 5244 c0 -39 5 -51 34 -80 31 -31 40 -34 90 -34 88 0 136 44
136 125 l0 35 -130 0 -130 0 0 -46z"/>
<path d="M2110 5186 c0 -100 -13 -96 294 -96 190 0 265 3 274 12 7 7 12 40 12
80 l0 68 -290 0 -290 0 0 -64z m365 -11 c0 -11 -119 -20 -142 -11 -8 3 -11 11
-8 16 8 14 150 9 150 -5z"/>
<path d="M1035 4838 c-49 -28 -59 -78 -24 -122 28 -35 80 -36 114 -1 33 33 32
70 -4 106 -31 31 -54 35 -86 17z"/>
<path d="M2310 135 l0 -135 500 0 500 0 0 135 0 135 -500 0 -500 0 0 -135z
m205 -5 l0 -75 -70 0 -70 0 -3 64 c-4 92 -4 92 75 89 l68 -3 0 -75z m200 0 l0
-75 -72 -3 -73 -3 0 81 0 81 73 -3 72 -3 0 -75z m293 -11 c-2 -41 -7 -74 -13
-74 -11 0 -20 129 -10 153 13 35 26 -9 23 -79z m80 0 c-2 -41 -7 -74 -13 -74
-11 0 -20 129 -10 153 13 35 26 -9 23 -79z m82 12 c0 -76 -11 -109 -24 -75 -8
21 -8 139 1 147 17 18 23 1 23 -72z m80 -7 c0 -54 -4 -83 -10 -79 -5 3 -10 42
-10 86 0 46 4 79 10 79 6 0 10 -35 10 -86z m-425 46 c0 -22 -39 -19 -43 3 -3
15 1 18 20 15 12 -2 23 -10 23 -18z m83 3 c5 -17 -26 -29 -40 -15 -6 6 -7 15
-3 22 9 14 37 9 43 -7z"/>
<path d="M2398 173 c-2 -5 -4 -26 -4 -48 l1 -40 48 -3 47 -3 0 50 0 51 -44 0
c-25 0 -46 -3 -48 -7z"/>
<path d="M2590 130 l0 -50 50 0 50 0 0 50 0 50 -50 0 -50 0 0 -50z"/>
<path d="M1548 146 c-44 -33 -42 -98 4 -130 30 -22 60 -20 92 5 56 44 20 140
-53 139 -14 0 -34 -6 -43 -14z"/>
<path d="M4582 128 c-7 -7 -12 -38 -12 -70 0 -55 1 -58 25 -58 23 0 25 4 25
40 l0 40 425 0 425 0 0 -40 c0 -36 3 -40 25 -40 24 0 25 3 25 54 0 92 32 86
-479 86 -334 0 -450 -3 -459 -12z"/>
<path d="M4640 30 l0 -30 406 0 405 0 -3 28 -3 27 -402 3 -403 2 0 -30z"/>
</g>
</svg>
