<svg width="520" height="300" viewBox="0 0 520 300" version="1.1" xmlns="http://www.w3.org/2000/svg" xmlns:xlink="http://www.w3.org/1999/xlink"><title>em-big</title><desc>Created with Sketch.</desc><defs><path d="M10,20 C4.4771525,20 0,15.5228475 0,10 C0,4.4771525 4.4771525,0 10,0 C15.5228475,0 20,4.4771525 20,10 C20,15.5228475 15.5228475,20 10,20 Z M10,15 C12.7614237,15 15,12.7614237 15,10 C15,7.23857625 12.7614237,5 10,5 C7.23857625,5 5,7.23857625 5,10 C5,12.7614237 7.23857625,15 10,15 Z" id="path-1"/><path d="M8,16 C3.581722,16 -1.77635684e-15,12.418278 -1.77635684e-15,8 C-1.77635684e-15,3.581722 3.581722,0 8,0 C12.418278,0 16,3.581722 16,8 C16,12.418278 12.418278,16 8,16 Z M8,11 C9.65685425,11 11,9.65685425 11,8 C11,6.34314575 9.65685425,5 8,5 C6.34314575,5 5,6.34314575 5,8 C5,9.65685425 6.34314575,11 8,11 Z" id="path-3"/><path d="M8,16 C3.581722,16 -1.77635684e-15,12.418278 -1.77635684e-15,8 C-1.77635684e-15,3.581722 3.581722,0 8,0 C12.418278,0 16,3.581722 16,8 C16,12.418278 12.418278,16 8,16 Z M8,11 C9.65685425,11 11,9.65685425 11,8 C11,6.34314575 9.65685425,5 8,5 C6.34314575,5 5,6.34314575 5,8 C5,9.65685425 6.34314575,11 8,11 Z" id="path-5"/></defs><g id="illustrations" stroke="none" stroke-width="1" fill="none" fill-rule="evenodd"><g id="em-big"><g id="Group-15" transform="translate(216.000000, 33.000000)" fill="#FFF" stroke="#AAA" stroke-linecap="round" stroke-linejoin="round" stroke-width="2"><rect id="Rectangle-5-Copy-3" x="0" y="0" width="48" height="88"/><path d="M10,20 L34,20" id="Path"/><path d="M10,30 L34,30" id="Path"/><path d="M10,78 L28,78" id="Path"/><path d="M10,10 L16,10" id="Path"/></g><g id="Group" transform="translate(103.000000, 278.000000)" stroke="#AAA" stroke-linecap="round" stroke-linejoin="round" stroke-width="2"><path d="M0,1 L303,1" id="Line"/><path d="M311,1 L314.001672,1" id="Line-Copy-42"/></g><g id="Group-16" transform="translate(164.000000, 159.000000)"><rect id="Rectangle-5-Copy" stroke="#3B3B3B" stroke-width="2" fill="#F2C811" stroke-linecap="round" stroke-linejoin="round" x="1" y="0" width="200" height="120"/><path d="M28,50 L63.0487515,50" id="Line-5" stroke="#3B3B3B" stroke-width="2" stroke-linecap="round" stroke-linejoin="round"/><path d="M22,50 L23,50" id="Line-5-Copy" stroke="#3B3B3B" stroke-width="2" stroke-linecap="round" stroke-linejoin="round"/><path d="M137,0 L137,120" id="Line-2" stroke="#3B3B3B" stroke-width="2" stroke-linecap="square" stroke-linejoin="round"/><path d="M137,62 L1,62" id="Line-3" stroke="#3B3B3B" stroke-width="2" stroke-linecap="square" stroke-linejoin="round"/><rect id="Rectangle-3" fill="#FFF" x="0" y="88" width="12" height="2"/><g id="Group-13" transform="translate(83.000000, 12.000000)" stroke-linecap="round" stroke-linejoin="round" stroke-width="2"><rect id="Rectangle-5-Copy-7" stroke="#3B3B3B" fill="#FFF" x="0" y="0" width="42" height="38"/><polygon id="Combined-Shape" stroke="#F2C811" fill="#F2C811" points="28 17 23 23 14.8888889 10 10 18 10 28 32 28"/></g><path d="M169,22 L179,22" id="Path-3-Copy-10" stroke="#FFF" stroke-width="2" stroke-linecap="round" stroke-linejoin="round"/><path d="M169,12 L179,12" id="Path-3-Copy-10" stroke="#FFF" stroke-width="2" stroke-linecap="round" stroke-linejoin="round"/><g id="Group-10" transform="translate(149.000000, 12.000000)" fill="#FFF" stroke="#FFF" stroke-linecap="round" stroke-linejoin="round" stroke-width="2"><rect id="Rectangle-5-Copy-18" x="9" y="0" width="1" height="1"/><rect id="Rectangle-5-Copy-18" x="9" y="9" width="1" height="1"/><rect id="Rectangle-5-Copy-18" x="0" y="0" width="1" height="1"/><rect id="Rectangle-5-Copy-18" x="0" y="9" width="1" height="1"/></g><g id="Group-12" transform="translate(13.000000, 74.000000)" stroke-linecap="round" stroke-linejoin="round" stroke-width="2"><rect id="Path-Copy" stroke="#3B3B3B" fill="#FFF" x="0" y="0" width="112" height="34"/><g id="Group-5" transform="translate(10.000000, 10.000000)" stroke="#F2C811"><g id="Group-4" transform="translate(6.000000, 0.000000)" fill="#F2C811"><polygon id="Rectangle-5-Copy-4" points="0 14 0 8 5 8 5 14"/><polygon id="Rectangle-5-Copy-4" points="15 14 15 10 20 10 20 14"/><polygon id="Rectangle-5-Copy-4" points="30 14 30 2 35 2 35 14"/><polygon id="Rectangle-5-Copy-4" points="45 14 45 4 50 4 50 14"/><polygon id="Rectangle-5-Copy-4" points="60 14 60 0 65 0 65 14"/><polygon id="Rectangle-5-Copy-4" points="75 14 75 7 80 7 80 14"/></g><path d="M0,14 L92,14" id="Line"/></g></g><g id="Group-14" transform="translate(149.000000, 34.000000)"><rect id="Rectangle-5-Copy-12" stroke="#3B3B3B" stroke-width="2" fill="#FFF" stroke-linecap="round" stroke-linejoin="round" x="0" y="0" width="40" height="74"/><path d="M16,42 L30,42" id="Path" stroke="#F2C811" stroke-width="2" fill="#FFF" stroke-linecap="round" stroke-linejoin="round"/><path d="M16,52 L30,52" id="Path" stroke="#F2C811" stroke-width="2" fill="#FFF" stroke-linecap="round" stroke-linejoin="round"/><path d="M16,62 L30,62" id="Path" stroke="#F2C811" stroke-width="2" fill="#FFF" stroke-linecap="round" stroke-linejoin="round"/><rect id="Rectangle-6" fill="#F2C811" x="9" y="41" width="2" height="2" rx="1"/><rect id="Rectangle-6" fill="#F2C811" x="9" y="51" width="2" height="2" rx="1"/><rect id="Rectangle-6" fill="#F2C811" x="9" y="61" width="2" height="2" rx="1"/><g id="Group-2" transform="translate(10.000000, 10.000000)"><mask id="mask-2" fill="#fff"><use xlink:href="#path-1"/></mask><use id="Combined-Shape" fill="#F2C811" xlink:href="#path-1"/><polygon id="Rectangle-6-Copy" stroke="#F2C811" stroke-width="2" fill="#FFF" mask="url(#mask-2)" points="-8 10 -8 28 29 28 10.5 10"/><polygon id="Rectangle-6" stroke="#F2C811" stroke-width="2" fill="#FFF" mask="url(#mask-2)" points="-5 -5 10 10 -5 25"/><path d="M10,20 C4.4771525,20 0,15.5228475 0,10 C0,4.4771525 4.4771525,0 10,0 C15.5228475,0 20,4.4771525 20,10 C20,15.5228475 15.5228475,20 10,20 Z M10,15 C12.7614237,15 15,12.7614237 15,10 C15,7.23857625 12.7614237,5 10,5 C7.23857625,5 5,7.23857625 5,10 C5,12.7614237 7.23857625,15 10,15 Z" id="Combined-Shape" stroke="#F2C811" stroke-width="2" stroke-linecap="round" stroke-linejoin="round"/></g></g></g><g id="Group-8" transform="translate(400.000000, 188.000000)"><rect id="Rectangle-5" stroke="#AAA" stroke-width="2" fill="#FFF" stroke-linecap="round" stroke-linejoin="round" x="0" y="0" width="96" height="62"/><g id="Group-3" transform="translate(48.000000, 11.000000)" fill="#FFF" stroke="#AAA" stroke-linecap="round" stroke-linejoin="round" stroke-width="2"><path d="M0,11 L32.0156212,11" id="Path"/><path d="M0,21 L20,21" id="Path"/><path d="M0,31 L28,31" id="Path"/><path d="M0,41 L6,41" id="Path"/><path d="M16,41 L22,41" id="Path"/><path d="M32,41 L38,41" id="Path"/><path d="M0,1 L26,1" id="Path"/></g><g id="Group-14-Copy" transform="translate(10.000000, 10.000000)"><rect id="Rectangle-5-Copy-12" stroke="#3B3B3B" stroke-width="2" fill="#FFF" stroke-linecap="round" stroke-linejoin="round" x="0" y="0" width="28" height="42"/><path d="M12,30 L22,30" id="Path" stroke="#F2C811" stroke-width="2" fill="#FFF" stroke-linecap="round" stroke-linejoin="round"/><path d="M12,36 L22,36" id="Path" stroke="#F2C811" stroke-width="2" fill="#FFF" stroke-linecap="round" stroke-linejoin="round"/><rect id="Rectangle-6" fill="#F2C811" x="5" y="29" width="2" height="2" rx="1"/><rect id="Rectangle-6" fill="#F2C811" x="5" y="35" width="2" height="2" rx="1"/><g id="Group-2" transform="translate(6.000000, 6.000000)"><mask id="mask-4" fill="#fff"><use xlink:href="#path-3"/></mask><use id="Combined-Shape" fill="#F2C811" xlink:href="#path-3"/><polygon id="Rectangle-6-Copy" stroke="#F2C811" stroke-width="2" fill="#FFF" mask="url(#mask-4)" points="-1 8 -1 17 18 17 8 8"/><polygon id="Rectangle-6" stroke="#F2C811" stroke-width="2" fill="#FFF" mask="url(#mask-4)" points="-1 -1 7.97200521 8.01228841 -1 17"/><path d="M8,16 C3.581722,16 -1.77635684e-15,12.418278 -1.77635684e-15,8 C-1.77635684e-15,3.581722 3.581722,0 8,0 C12.418278,0 16,3.581722 16,8 C16,12.418278 12.418278,16 8,16 Z M8,11 C9.65685425,11 11,9.65685425 11,8 C11,6.34314575 9.65685425,5 8,5 C6.34314575,5 5,6.34314575 5,8 C5,9.65685425 6.34314575,11 8,11 Z" id="Combined-Shape-Copy-2" stroke="#F2C811" stroke-width="2" stroke-linecap="round" stroke-linejoin="round"/></g></g></g><rect id="Path" stroke="#AAA" stroke-width="2" fill="#FFF" stroke-linecap="round" stroke-linejoin="round" x="328" y="69" width="78" height="50"/><rect id="Path" stroke="#AAA" stroke-width="2" fill="#FFF" stroke-linecap="round" stroke-linejoin="round" x="328" y="57" width="78" height="12"/><rect id="Path-Copy-2" stroke="#AAA" stroke-width="2" fill="#FFF" stroke-linecap="round" stroke-linejoin="round" x="65" y="91" width="112" height="12"/><rect id="Path-Copy-3" stroke="#AAA" stroke-width="2" fill="#FFF" stroke-linecap="round" stroke-linejoin="round" x="216" y="21" width="48" height="12"/><path d="M338,99 L353,99" id="Path" stroke="#AAA" stroke-width="2" fill="#FFF" stroke-linecap="round" stroke-linejoin="round"/><path d="M338,109 L353,109" id="Path" stroke="#AAA" stroke-width="2" fill="#FFF" stroke-linecap="round" stroke-linejoin="round"/><path d="M338,89 L344,89" id="Path" stroke="#AAA" stroke-width="2" fill="#FFF" stroke-linecap="round" stroke-linejoin="round"/><path d="M338,79 L358,79" id="Path" stroke="#AAA" stroke-width="2" fill="#FFF" stroke-linecap="round" stroke-linejoin="round"/><g id="Group-14-Copy-2" transform="translate(368.000000, 79.000000)"><rect id="Rectangle-5-Copy-12" stroke="#3B3B3B" stroke-width="2" fill="#FFF" stroke-linecap="round" stroke-linejoin="round" x="0" y="0" width="28" height="30"/><g id="Group-2" transform="translate(6.000000, 7.000000)"><mask id="mask-6" fill="#fff"><use xlink:href="#path-5"/></mask><use id="Combined-Shape" fill="#F2C811" xlink:href="#path-5"/><polygon id="Rectangle-6-Copy" stroke="#F2C811" stroke-width="2" fill="#FFF" mask="url(#mask-6)" points="-1 8 -1 17 18 17 8 8"/><polygon id="Rectangle-6" stroke="#F2C811" stroke-width="2" fill="#FFF" mask="url(#mask-6)" points="-1 -1 7.97200521 8.01228841 -1 17"/><path d="M8,16 C3.581722,16 -1.77635684e-15,12.418278 -1.77635684e-15,8 C-1.77635684e-15,3.581722 3.581722,0 8,0 C12.418278,0 16,3.581722 16,8 C16,12.418278 12.418278,16 8,16 Z M8,11 C9.65685425,11 11,9.65685425 11,8 C11,6.34314575 9.65685425,5 8,5 C6.34314575,5 5,6.34314575 5,8 C5,9.65685425 6.34314575,11 8,11 Z" id="Combined-Shape-Copy-2" stroke="#F2C811" stroke-width="2" stroke-linecap="round" stroke-linejoin="round"/></g></g><g id="Group-17" transform="translate(65.000000, 103.000000)" fill="#FFF" stroke="#AAA" stroke-linecap="round" stroke-linejoin="round" stroke-width="2"><rect id="Path" x="0" y="0" width="112" height="86"/><g id="Group" transform="translate(10.000000, 9.000000)"><path d="M0,11 L78,11" id="Path"/><path d="M0,21 L16,21" id="Path"/><path d="M0,31 L16,31" id="Path"/><path d="M26,21 L42,21" id="Path"/><path d="M26,31 L42,31" id="Path"/><path d="M52,21 L68,21" id="Path"/><path d="M52,31 L68,31" id="Path"/><path d="M0,1 L54,1" id="Path"/></g></g><path d="M176,246 L130,246 C127.790861,246 126,244.209139 126,242 L126,179" id="Rectangle-2" stroke="#3B3B3B" stroke-width="2" stroke-linecap="round" stroke-linejoin="round"/><path d="M268,171 L268,145 C268,142.790861 269.790861,141 272,141 L309,141 C311.209139,141 313,139.209139 313,137 L313,91 C313,88.790861 311.209139,87 309,87 L254,87" id="Rectangle-2-Copy" stroke="#3B3B3B" stroke-width="2" stroke-linecap="round" stroke-linejoin="round"/><path d="M353,246 L378,246 C380.209139,246 382,244.209139 382,242 L382,223 C382,220.790861 383.790861,219 386,219 L410,219" id="Rectangle-2-Copy-4" stroke="#3B3B3B" stroke-width="2" stroke-linecap="round" stroke-linejoin="round"/><path d="M365,246 L378,246 C380.209139,246 382,244.209139 382,242 L382,109.5" id="Rectangle-2-Copy-5" stroke="#3B3B3B" stroke-width="2" stroke-linecap="round" stroke-linejoin="round"/><g id="Group-3-Copy" transform="translate(24.000000, 133.000000)"><polygon id="Rectangle-2" fill="#FFF" points="12 6.66666667 17.3333333 12 12 17.3333333 6.66666667 12"/><path d="M12,20 C12,15.581722 8.418278,12 4,12" id="Oval-4" stroke="#F2C811" stroke-width="2" stroke-linecap="round" stroke-linejoin="round"/><path d="M20,12 C15.581722,12 12,15.581722 12,20" id="Oval-4-Copy" stroke="#F2C811" stroke-width="2" stroke-linecap="round" stroke-linejoin="round"/><path d="M4,12 C8.418278,12 12,8.418278 12,4" id="Oval-4-Copy-3" stroke="#F2C811" stroke-width="2" stroke-linecap="round" stroke-linejoin="round"/><path d="M12,4 C12,8.418278 15.581722,12 20,12 L20,12" id="Oval-4-Copy-2" stroke="#F2C811" stroke-width="2" stroke-linecap="round" stroke-linejoin="round"/><path d="M20,12 L24,12" id="Line" stroke="#F2C811" stroke-width="2" stroke-linecap="round" stroke-linejoin="round"/><path d="M0,12 L4,12" id="Line-Copy-2" stroke="#F2C811" stroke-width="2" stroke-linecap="round" stroke-linejoin="round"/><path d="M12,20 L12,24" id="Line-Copy-10" stroke="#F2C811" stroke-width="2" stroke-linecap="round" stroke-linejoin="round"/><path d="M12,4 L12,0" id="Line-Copy-3" stroke="#F2C811" stroke-width="2" stroke-linecap="round" stroke-linejoin="round"/></g><g id="Group-3" transform="translate(158.000000, 53.000000)"><polygon id="Rectangle-2" fill="#FFF" points="9 5 13 9 9 13 5 9"/><path d="M9,15 C9,11.6862915 6.3137085,9 3,9" id="Oval-4" stroke="#AAA" stroke-width="2" stroke-linecap="round" stroke-linejoin="round"/><path d="M15,9 C11.6862915,9 9,11.6862915 9,15" id="Oval-4-Copy" stroke="#AAA" stroke-width="2" stroke-linecap="round" stroke-linejoin="round"/><path d="M3,9 C6.3137085,9 9,6.3137085 9,3" id="Oval-4-Copy-3" stroke="#AAA" stroke-width="2" stroke-linecap="round" stroke-linejoin="round"/><path d="M9,3 C9,6.3137085 11.6862915,9 15,9 L15,9" id="Oval-4-Copy-2" stroke="#AAA" stroke-width="2" stroke-linecap="round" stroke-linejoin="round"/><path d="M15,9 L18,9" id="Line" stroke="#AAA" stroke-width="2" stroke-linecap="round" stroke-linejoin="round"/><path d="M0,9 L3,9" id="Line-Copy-2" stroke="#AAA" stroke-width="2" stroke-linecap="round" stroke-linejoin="round"/><path d="M9,15 L9,18" id="Line-Copy-10" stroke="#AAA" stroke-width="2" stroke-linecap="round" stroke-linejoin="round"/><path d="M9,3 L9,0" id="Line-Copy-3" stroke="#AAA" stroke-width="2" stroke-linecap="round" stroke-linejoin="round"/></g><g id="Group-2" transform="translate(459.000000, 139.000000)"><polygon id="Rectangle-2" fill="#FFF" points="8 3.42857143 12.5714286 8 8 12.5714286 3.42857143 8"/><path d="M8,14.8571429 C8,11.0700474 4.92995257,8 1.14285714,8" id="Oval-4" stroke="#F2C811" stroke-width="2" stroke-linecap="round" stroke-linejoin="round"/><path d="M14.8571429,8 C11.0700474,8 8,11.0700474 8,14.8571429" id="Oval-4-Copy" stroke="#F2C811" stroke-width="2" stroke-linecap="round" stroke-linejoin="round"/><path d="M1.14285714,8 C4.92995257,8 8,4.92995257 8,1.14285714" id="Oval-4-Copy-3" stroke="#F2C811" stroke-width="2" stroke-linecap="round" stroke-linejoin="round"/><path d="M8,1.14285714 C8,4.92995257 11.0700474,8 14.8571429,8 L14.8571429,8" id="Oval-4-Copy-2" stroke="#F2C811" stroke-width="2" stroke-linecap="round" stroke-linejoin="round"/><path d="M14.8571429,8 L16,8" id="Line" stroke="#F2C811" stroke-width="2" stroke-linecap="round" stroke-linejoin="round"/><path d="M0,8 L1.14285714,8" id="Line-Copy-2" stroke="#F2C811" stroke-width="2" stroke-linecap="round" stroke-linejoin="round"/><path d="M8,14.8571429 L8,16" id="Line-Copy-10" stroke="#F2C811" stroke-width="2" stroke-linecap="round" stroke-linejoin="round"/><path d="M8,1.14285714 L8,0" id="Line-Copy-3" stroke="#F2C811" stroke-width="2" stroke-linecap="round" stroke-linejoin="round"/></g><g id="Group-4-Copy" transform="translate(90.000000, 248.000000)"><polygon id="Rectangle-2" fill="#FFF" points="5 3 7 5 5 7 3 5"/><path d="M5,8 C5,6.34314575 3.65685425,5 2,5" id="Oval-4" stroke="#AAA" stroke-width="2" stroke-linecap="round" stroke-linejoin="round"/><path d="M8,5 C6.34314575,5 5,6.34314575 5,8" id="Oval-4-Copy" stroke="#AAA" stroke-width="2" stroke-linecap="round" stroke-linejoin="round"/><path d="M2,5 C3.65685425,5 5,3.65685425 5,2" id="Oval-4-Copy-3" stroke="#AAA" stroke-width="2" stroke-linecap="round" stroke-linejoin="round"/><path d="M0,5 L2,5" id="Line-Copy-2" stroke="#AAA" stroke-width="2" stroke-linecap="round" stroke-linejoin="round"/><path d="M8,5 L10,5" id="Line-Copy-21" stroke="#AAA" stroke-width="2" stroke-linecap="round" stroke-linejoin="round"/><path d="M5,8 L5,10" id="Line-Copy-22" stroke="#AAA" stroke-width="2" stroke-linecap="round" stroke-linejoin="round"/><path d="M5,0 L5,2" id="Line-Copy-28" stroke="#AAA" stroke-width="2" stroke-linecap="round" stroke-linejoin="round"/><path d="M5,2 C5,3.65685425 6.34314575,5 8,5" id="Oval-4-Copy-2" stroke="#AAA" stroke-width="2" stroke-linecap="round" stroke-linejoin="round"/></g><g id="Group-4-Copy" transform="translate(298.000000, 35.000000)"><polygon id="Rectangle-2" fill="#FFF" points="5 3 7 5 5 7 3 5"/><path d="M5,8 C5,6.34314575 3.65685425,5 2,5" id="Oval-4" stroke="#F2C811" stroke-width="2" stroke-linecap="round" stroke-linejoin="round"/><path d="M8,5 C6.34314575,5 5,6.34314575 5,8" id="Oval-4-Copy" stroke="#F2C811" stroke-width="2" stroke-linecap="round" stroke-linejoin="round"/><path d="M2,5 C3.65685425,5 5,3.65685425 5,2" id="Oval-4-Copy-3" stroke="#F2C811" stroke-width="2" stroke-linecap="round" stroke-linejoin="round"/><path d="M0,5 L2,5" id="Line-Copy-2" stroke="#F2C811" stroke-width="2" stroke-linecap="round" stroke-linejoin="round"/><path d="M8,5 L10,5" id="Line-Copy-21" stroke="#F2C811" stroke-width="2" stroke-linecap="round" stroke-linejoin="round"/><path d="M5,8 L5,10" id="Line-Copy-22" stroke="#F2C811" stroke-width="2" stroke-linecap="round" stroke-linejoin="round"/><path d="M5,0 L5,2" id="Line-Copy-28" stroke="#F2C811" stroke-width="2" stroke-linecap="round" stroke-linejoin="round"/><path d="M5,2 C5,3.65685425 6.34314575,5 8,5" id="Oval-4-Copy-2" stroke="#F2C811" stroke-width="2" stroke-linecap="round" stroke-linejoin="round"/></g><circle id="Oval-9" fill="#AAA" cx="50" cy="224" r="2"/><circle id="Oval-9" fill="#AAA" cx="408" cy="147" r="2"/><circle id="Oval-9-Copy" fill="#AAA" cx="445" cy="81" r="2"/><circle id="Oval-9-Copy-2" fill="#AAA" cx="334" cy="63" r="2"/><circle id="Oval-9-Copy-5" fill="#AAA" cx="71" cy="97" r="2"/><circle id="Oval-9-Copy-8" fill="#AAA" cx="222" cy="27" r="2"/><circle id="Oval-9-Copy-3" fill="#AAA" cx="340" cy="63" r="2"/><circle id="Oval-9-Copy-6" fill="#AAA" cx="77" cy="97" r="2"/><circle id="Oval-9-Copy-9" fill="#AAA" cx="228" cy="27" r="2"/><circle id="Oval-9-Copy-4" fill="#AAA" cx="346" cy="63" r="2"/><circle id="Oval-9-Copy-7" fill="#AAA" cx="83" cy="97" r="2"/><circle id="Oval-9-Copy-10" fill="#AAA" cx="234" cy="27" r="2"/><rect id="Path" stroke="#AAA" stroke-width="2" fill="#FFF" stroke-linecap="round" stroke-linejoin="round" x="400" y="176" width="96" height="12"/><circle id="Oval-9-Copy-2" fill="#AAA" cx="406" cy="182" r="2"/><circle id="Oval-9-Copy-3" fill="#AAA" cx="412" cy="182" r="2"/><circle id="Oval-9-Copy-4" fill="#AAA" cx="418" cy="182" r="2"/><path d="M397,270 C398.104569,270 399,269.104569 399,268 C399,266.895431 398.104569,266 397,266 C395.895431,266 395,266.895431 395,268 C395,269.104569 395.895431,270 397,270 Z" id="Oval-9-Copy" fill="#F2C811"/><rect id="Rectangle-17" fill="#FFF" x="399" y="220" width="2" height="2"/><rect id="Rectangle-17-Copy-5" fill="#FFF" x="263" y="88" width="2" height="2"/><rect id="Rectangle-17-Copy-2" fill="#FFF" x="354" y="247" width="12" height="2"/><rect id="Rectangle-17-Copy-4" fill="#FFF" x="269" y="158" width="2" height="12"/><rect id="Rectangle-17-Copy" fill="#FFF" x="383" y="118" width="2" height="2"/><rect id="Rectangle-17-Copy-3" fill="#FFF" x="127" y="188" width="2" height="2"/><rect id="Path-Copy-4" stroke="#3B3B3B" stroke-width="2" fill="#FFF" stroke-linecap="round" stroke-linejoin="round" x="75" y="153" width="92" height="26"/><polygon id="Rectangle-5-Copy-4" stroke="#F2C811" stroke-width="2" fill="#F2C811" stroke-linecap="round" stroke-linejoin="round" points="91 173 91 167 96 167 96 173"/><polygon id="Rectangle-5-Copy-4" stroke="#F2C811" stroke-width="2" fill="#F2C811" stroke-linecap="round" stroke-linejoin="round" points="102 173 102 169 107 169 107 173"/><polygon id="Rectangle-5-Copy-4" stroke="#F2C811" stroke-width="2" fill="#F2C811" stroke-linecap="round" stroke-linejoin="round" points="113 173 113 161 118 161 118 173"/><polygon id="Rectangle-5-Copy-4" stroke="#F2C811" stroke-width="2" fill="#F2C811" stroke-linecap="round" stroke-linejoin="round" points="124 173 124 163 129 163 129 173"/><polygon id="Rectangle-5-Copy-4" stroke="#F2C811" stroke-width="2" fill="#F2C811" stroke-linecap="round" stroke-linejoin="round" points="135 173 135 159 140 159 140 173"/><polygon id="Rectangle-5-Copy-4" stroke="#F2C811" stroke-width="2" fill="#F2C811" stroke-linecap="round" stroke-linejoin="round" points="146 173 146 166 151 166 151 173"/><path d="M85,173 L157,173" id="Line" stroke="#F2C811" stroke-width="2" stroke-linecap="round" stroke-linejoin="round"/><g id="Group-9" transform="translate(188.000000, 171.000000)"><rect id="Rectangle-8" stroke="#3B3B3B" stroke-width="3" stroke-linecap="round" stroke-linejoin="round" x=".5" y=".5" width="36" height="24" rx="4"/><rect id="Rectangle-9" fill="#F2C811" x="6" y="22" width="26" height="5"/><path d="M10,23 L10,27" id="Line-4" stroke="#3B3B3B" stroke-width="4" stroke-linecap="round" stroke-linejoin="round"/><path d="M16,15 L16,27" id="Line-4-Copy" stroke="#3B3B3B" stroke-width="4" stroke-linecap="round" stroke-linejoin="round"/><path d="M22,19 L22,27" id="Line-4-Copy-2" stroke="#3B3B3B" stroke-width="4" stroke-linecap="round" stroke-linejoin="round"/><path d="M28,10 L28,27" id="Line-4-Copy-3" stroke="#3B3B3B" stroke-width="4" stroke-linecap="round" stroke-linejoin="round"/></g><rect id="Rectangle-5-Copy-8" stroke="#3B3B3B" stroke-width="2" fill="#FFF" stroke-linecap="round" stroke-linejoin="round" x="226" y="73" width="28" height="28"/><polygon id="Combined-Shape-Copy-3" stroke="#F2C811" stroke-width="2" fill="#F2C811" stroke-linecap="round" stroke-linejoin="round" points="246 88 242 92 236 82 232 89 232 95 248 95"/></g></g></svg>