<?xml version="1.0" standalone="no"?>
<!DOCTYPE svg PUBLIC "-//W3C//DTD SVG 20010904//EN"
 "http://www.w3.org/TR/2001/REC-SVG-20010904/DTD/svg10.dtd">
<svg version="1.0" xmlns="http://www.w3.org/2000/svg"
 width="300.000000pt" height="170.000000pt" viewBox="0 0 300.000000 170.000000"
 preserveAspectRatio="xMidYMid meet">

<g transform="translate(0.000000,170.000000) scale(0.100000,-0.100000)"
fill="#000000" stroke="none">
<path d="M350 1686 c-42 -11 -193 -90 -290 -151 -22 -14 -45 -35 -51 -47 -9
-17 -10 -105 -5 -352 4 -182 9 -332 11 -335 14 -14 192 104 210 140 31 60 13
95 -71 137 -45 23 -100 80 -115 119 -13 35 -11 89 5 127 31 74 141 156 210
156 41 0 59 -24 54 -73 -3 -30 -6 -32 -48 -37 -25 -3 -55 -11 -67 -18 -24 -13
-53 -61 -53 -87 0 -35 31 -74 77 -95 140 -66 173 -139 115 -251 -33 -63 -127
-139 -243 -196 l-78 -38 0 -65 c-1 -38 4 -71 11 -78 9 -9 37 2 117 45 238 125
303 179 362 295 34 68 36 78 8 47 -18 -21 -20 -22 -14 -4 4 11 14 54 22 95 13
60 14 86 5 134 -14 71 -37 98 -85 100 -21 0 -33 5 -29 11 3 6 18 28 33 50 28
42 59 123 59 155 0 30 14 31 69 4 85 -43 123 -112 123 -225 0 -89 -52 -167
-133 -198 -23 -9 -23 -9 -4 -15 112 -36 160 -99 160 -212 0 -126 -64 -216
-191 -270 l-59 -25 105 4 c128 6 198 30 258 87 51 49 70 84 83 154 20 111 -23
200 -119 244 l-55 25 34 18 c74 38 119 110 119 191 0 159 -96 244 -290 257
l-95 6 -6 55 c-12 109 -54 141 -149 116z m383 -313 c-7 -17 -30 -17 -35 -1 -3
7 0 18 6 24 13 14 36 -5 29 -23z m21 -59 c10 -26 7 -34 -13 -34 -13 0 -18 6
-16 18 2 9 4 20 4 25 2 13 19 7 25 -9z m2 -72 c16 -10 3 -37 -18 -38 -11 -1
-18 5 -18 15 0 28 15 38 36 23z m-23 -99 c-7 -17 -30 -17 -35 -1 -3 7 0 18 6
24 13 14 36 -5 29 -23z m21 -209 c17 -7 10 -34 -9 -34 -14 0 -27 25 -18 34 8
7 8 7 27 0z m36 -83 c0 -11 -17 -33 -25 -33 -15 0 -24 26 -14 39 10 11 39 8
39 -6z m-3 -92 c-1 -11 -8 -18 -17 -16 -19 3 -31 30 -17 39 17 10 36 -2 34
-23z m-33 -55 c20 -8 9 -34 -15 -34 -18 0 -26 20 -12 33 8 8 8 8 27 1z"/>
<path d="M1420 1253 c0 -5 0 -145 0 -313 0 -267 3 -309 18 -340 20 -41 60 -65
125 -75 l47 -6 0 66 c0 61 -2 66 -19 60 -13 -4 -27 1 -41 15 -22 22 -22 24
-14 311 l7 289 -62 0 c-33 0 -61 -3 -61 -7z"/>
<path d="M1674 1205 c-13 -31 -24 -58 -24 -60 0 -3 24 -5 53 -5 l52 0 30 53
c16 28 31 55 33 60 2 4 -24 7 -58 7 l-61 0 -25 -55z"/>
<path d="M1647 1073 c-4 -3 -7 -129 -7 -280 l0 -273 63 0 62 0 3 280 3 280
-59 0 c-32 0 -62 -3 -65 -7z"/>
<path d="M2900 1064 c-19 -8 -42 -22 -52 -31 -17 -15 -18 -14 -18 10 0 26 -2
27 -60 27 l-60 0 0 -275 0 -275 66 0 c59 0 65 2 59 18 -13 33 -19 302 -6 302
6 0 11 9 11 21 0 35 51 76 103 84 l47 7 0 64 c0 63 0 64 -27 64 -16 -1 -44 -8
-63 -16z"/>
<path d="M1044 1051 c-56 -26 -83 -68 -96 -148 -14 -90 -4 -233 19 -281 27
-55 87 -82 183 -82 118 1 180 38 212 128 8 23 13 85 13 162 0 148 -13 181 -85
218 -58 29 -184 31 -246 3z m155 -92 c43 -15 51 -40 51 -169 0 -127 -10 -148
-76 -157 -33 -4 -45 -1 -70 20 l-29 25 0 120 c0 125 6 145 50 162 28 12 37 12
74 -1z"/>
<path d="M1814 1053 c13 -45 129 -415 147 -471 l21 -63 56 3 57 3 18 70 c29
115 87 308 102 340 18 37 45 114 45 126 0 5 -29 9 -65 9 l-64 0 -21 -72 c-12
-40 -25 -86 -30 -103 -5 -16 -14 -59 -20 -95 -19 -118 -21 -122 -36 -60 -11
47 -69 279 -80 318 -2 8 -25 12 -69 12 -59 0 -66 -2 -61 -17z"/>
<path d="M2350 1052 c-46 -23 -80 -75 -80 -123 l0 -39 59 0 c57 0 59 1 64 29
5 22 14 32 41 41 66 21 107 -6 121 -81 l7 -36 -89 -5 c-103 -6 -164 -28 -195
-70 -28 -40 -35 -113 -15 -161 38 -89 182 -112 265 -42 32 27 42 24 42 -12 0
-21 4 -23 53 -23 l52 0 -3 177 c-3 260 -19 315 -99 349 -47 20 -180 18 -223
-4z m202 -307 c10 -11 -5 -55 -28 -80 -19 -20 -32 -25 -73 -25 -53 0 -81 17
-81 49 0 19 24 44 50 54 20 7 125 9 132 2z"/>
<path d="M135 463 c-46 -10 -77 -27 -95 -53 -22 -30 -26 -90 -10 -121 14 -25
69 -51 153 -74 92 -24 127 -69 97 -126 -39 -71 -201 -60 -230 16 -10 28 -40
34 -40 9 0 -29 34 -74 70 -91 21 -10 57 -17 90 -17 91 1 148 42 157 113 10 70
-38 113 -153 140 -80 19 -114 44 -114 84 0 54 38 82 110 82 48 0 63 -4 84 -24
14 -14 26 -30 26 -38 0 -7 9 -13 20 -13 23 0 25 9 8 45 -21 46 -112 83 -173
68z"/>
<path d="M525 465 c-5 -2 -22 -6 -37 -9 -37 -8 -85 -51 -110 -100 -29 -55 -31
-184 -4 -236 24 -46 54 -78 91 -98 37 -19 140 -21 175 -3 101 53 144 177 105
307 -14 48 -56 99 -100 122 -22 11 -104 23 -120 17z m122 -63 c46 -33 67 -85
68 -167 0 -120 -50 -185 -147 -192 -107 -8 -172 64 -173 192 0 84 29 146 85
176 46 25 125 21 167 -9z"/>
<path d="M2765 465 c-5 -2 -22 -6 -38 -9 -47 -11 -105 -72 -122 -129 -39 -131
4 -255 105 -308 35 -18 138 -16 175 3 75 40 109 107 109 213 0 104 -35 174
-104 210 -26 14 -108 27 -125 20z m105 -53 c55 -30 85 -92 85 -177 0 -126 -66
-200 -171 -192 -99 7 -149 72 -149 192 0 119 62 195 160 195 22 0 56 -8 75
-18z"/>
<path d="M800 236 l0 -226 105 0 c152 0 203 27 212 112 6 50 -20 92 -70 113
l-31 13 31 16 c62 32 65 132 5 172 -21 14 -52 19 -139 22 l-113 4 0 -226z
m234 164 c9 -8 18 -30 22 -47 5 -27 1 -37 -24 -63 -29 -28 -35 -30 -111 -30
l-81 0 0 79 c0 44 4 81 10 83 27 9 171 -8 184 -22z m-4 -190 c36 -19 49 -40
50 -78 0 -66 -74 -100 -195 -90 l-40 3 -3 79 c-2 44 -1 85 2 93 7 17 151 12
186 -7z"/>
<path d="M1160 235 l0 -225 136 0 c124 0 135 2 132 18 -3 15 -18 17 -116 20
l-112 3 0 84 0 85 110 0 c103 0 110 1 110 20 0 19 -7 20 -110 20 l-110 0 0 80
0 80 115 0 c108 0 115 1 115 20 0 19 -7 20 -135 20 l-135 0 0 -225z"/>
<path d="M1480 235 c0 -218 1 -225 20 -225 19 0 20 7 20 95 l0 96 62 -3 61 -3
51 -92 51 -92 46 -1 47 0 23 67 24 68 96 3 96 3 25 -68 c19 -52 31 -69 47 -71
11 -2 21 -2 21 0 0 2 -38 102 -83 223 -69 183 -86 221 -103 223 -19 3 -30 -20
-100 -208 -78 -211 -90 -238 -97 -230 -9 13 -97 173 -97 179 0 3 14 12 30 19
43 19 63 64 58 124 -9 89 -59 118 -203 118 l-95 0 0 -225z m207 179 c27 -5 53
-51 53 -94 0 -21 -9 -41 -29 -61 -28 -27 -34 -29 -110 -29 l-81 0 0 94 0 95
43 3 c43 3 84 1 124 -8z m373 -221 c0 -9 -23 -13 -80 -13 -44 0 -80 2 -80 4 0
3 57 164 76 216 5 14 84 -180 84 -207z"/>
<path d="M2200 235 c0 -217 1 -225 20 -225 19 0 20 8 22 188 l3 187 130 -187
c102 -147 135 -187 153 -188 l22 0 0 225 c0 218 -1 225 -20 225 -19 0 -20 -8
-22 -190 l-3 -191 -133 191 c-94 134 -139 190 -153 190 -18 0 -19 -10 -19
-225z"/>
</g>
</svg>
