<?xml version="1.0" standalone="no"?>
<!DOCTYPE svg PUBLIC "-//W3C//DTD SVG 20010904//EN"
 "http://www.w3.org/TR/2001/REC-SVG-20010904/DTD/svg10.dtd">
<svg version="1.0" xmlns="http://www.w3.org/2000/svg"
 width="815.000000pt" height="549.000000pt" viewBox="0 0 815.000000 549.000000"
 preserveAspectRatio="xMidYMid meet">

<g transform="translate(0.000000,549.000000) scale(0.100000,-0.100000)"
fill="#000000" stroke="none">
<path d="M6155 5195 c-238 -52 -430 -218 -516 -446 -28 -73 -39 -257 -39 -673
0 -341 11 -506 35 -526 21 -17 841 -25 1080 -11 175 11 202 15 220 32 20 19
20 33 20 547 0 524 0 527 -24 602 -105 339 -446 548 -776 475z m289 -55 c206
-52 377 -219 440 -430 24 -76 39 -453 30 -742 -6 -211 -8 -227 -24 -218 -9 5
-45 14 -80 19 -41 7 -71 18 -88 33 -24 23 -97 156 -89 164 2 3 16 -1 31 -7 14
-7 29 -10 32 -7 6 7 -27 138 -56 222 -14 42 -31 69 -58 92 l-39 33 -6 98 c-8
121 -47 284 -86 362 -17 32 -49 75 -72 94 -38 33 -41 39 -35 70 5 25 3 36 -8
40 -23 9 -35 -12 -23 -42 9 -25 6 -31 -40 -77 -34 -35 -58 -72 -81 -125 -33
-80 -72 -276 -72 -364 0 -49 -3 -56 -45 -96 -41 -41 -47 -54 -80 -169 -43
-151 -43 -152 -8 -144 22 6 25 4 20 -10 -4 -10 -7 -24 -7 -31 0 -24 -51 -75
-83 -84 -31 -9 -31 -9 -5 -10 40 -1 96 55 104 106 6 38 10 42 68 69 48 23 72
28 114 26 l52 -3 0 -60 0 -60 73 3 72 3 3 56 3 56 59 6 c46 5 69 2 103 -12 41
-18 49 -27 88 -107 24 -48 55 -95 69 -105 14 -11 52 -24 85 -30 92 -17 95 -20
95 -93 l0 -63 -122 -6 c-296 -16 -590 -19 -838 -8 -145 7 -266 14 -268 16 -11
11 -13 97 -3 128 17 51 46 66 137 70 l79 3 -81 2 c-70 2 -85 -1 -108 -19 -15
-12 -32 -31 -36 -43 -12 -29 -12 778 0 881 10 94 48 179 126 282 151 201 415
294 658 231z m-61 -314 c26 -27 53 -69 69 -110 l27 -67 -26 -10 c-65 -24 -246
-30 -268 -8 -7 8 24 94 52 145 23 40 77 94 96 94 4 0 27 -20 50 -44z m98 -211
c0 -26 -178 -44 -273 -29 -72 12 -37 22 60 17 67 -3 113 0 147 10 55 16 67 16
66 2z m27 -96 c17 -85 28 -464 14 -473 -6 -3 -37 -9 -70 -12 -53 -6 -60 -4
-65 12 -3 11 -15 63 -28 117 -13 56 -28 97 -35 97 -11 0 -44 -108 -60 -192 -6
-37 -8 -38 -48 -38 -22 0 -52 3 -65 7 l-24 6 6 191 c6 234 22 350 46 341 37
-15 187 -16 241 -2 30 8 60 14 65 13 6 -2 16 -32 23 -67z"/>
<path d="M6243 5080 c0 -25 2 -35 4 -22 2 12 2 32 0 45 -2 12 -4 2 -4 -23z"/>
<path d="M6306 5089 c-8 -44 -8 -61 3 -55 10 7 20 86 10 86 -4 0 -9 -14 -13
-31z"/>
<path d="M6357 5076 c-5 -21 -6 -40 -3 -43 9 -10 18 24 14 54 -3 26 -4 25 -11
-11z"/>
<path d="M6391 5095 c0 -11 -4 -31 -7 -45 -5 -19 -4 -22 5 -14 7 6 11 26 8 45
-2 19 -5 25 -6 14z"/>
<path d="M6174 5082 c-6 -21 -7 -21 -20 -5 -12 16 -13 15 -14 -12 0 -40 15
-64 23 -36 7 28 24 27 30 -1 3 -15 5 -11 5 12 1 19 -3 42 -8 50 -8 12 -11 11
-16 -8z"/>
<path d="M6431 5080 c-1 -8 -4 -26 -7 -40 -5 -19 -4 -22 5 -14 7 6 11 24 8 40
-2 16 -5 22 -6 14z"/>
<path d="M6482 5051 c-17 -46 -15 -60 4 -33 8 12 14 32 12 45 -3 19 -5 17 -16
-12z"/>
<path d="M6058 5058 c-7 -20 6 -61 21 -66 10 -3 11 0 2 16 -15 27 -14 55 1 46
7 -4 8 -3 4 4 -9 16 -23 15 -28 0z"/>
<path d="M6511 5037 c-7 -14 -11 -31 -8 -39 3 -8 9 -2 16 16 15 38 9 55 -8 23z"/>
<path d="M5990 5015 c-11 -13 -11 -18 0 -28 10 -9 11 -9 6 1 -4 7 -2 19 4 27
7 8 10 15 7 15 -2 0 -10 -7 -17 -15z"/>
<path d="M6566 5008 c-18 -26 -21 -48 -6 -48 6 0 10 7 10 15 0 8 9 24 20 35
15 15 16 20 6 20 -8 0 -22 -10 -30 -22z"/>
<path d="M6030 4965 c7 -9 15 -13 17 -11 7 7 -7 26 -19 26 -6 0 -6 -6 2 -15z"/>
<path d="M6655 4905 c-16 -14 -27 -25 -23 -25 16 0 57 24 62 36 8 20 -5 17
-39 -11z"/>
<path d="M5880 4903 c8 -3 29 -12 45 -21 l30 -15 -19 22 c-11 12 -30 21 -45
20 -16 0 -20 -3 -11 -6z"/>
<path d="M6691 4895 c-13 -8 -28 -21 -33 -29 -18 -31 21 -11 51 27 15 20 15
20 -18 2z"/>
<path d="M6709 4831 c-13 -11 -22 -22 -19 -25 3 -3 19 6 35 19 17 13 25 24 19
25 -7 0 -22 -9 -35 -19z"/>
<path d="M5820 4836 c0 -7 71 -49 75 -45 8 9 -32 44 -53 46 -12 2 -22 1 -22
-1z"/>
<path d="M6751 4767 c-30 -18 -32 -21 -15 -27 11 -4 21 -3 23 4 2 6 10 17 19
23 27 22 9 21 -27 0z"/>
<path d="M5790 4775 c0 -9 62 -36 73 -32 7 2 -5 12 -27 21 -42 17 -46 18 -46
11z"/>
<path d="M6037 4733 c-14 -13 -6 -33 12 -33 24 0 35 26 15 34 -19 7 -19 7 -27
-1z"/>
<path d="M6782 4729 c-13 -5 -28 -7 -32 -4 -10 6 -25 -13 -17 -21 6 -6 77 22
77 30 0 7 1 7 -28 -5z"/>
<path d="M6583 4632 c-14 -9 -5 -26 19 -35 10 -4 18 1 21 13 3 11 -1 21 -10
24 -18 7 -15 7 -30 -2z"/>
<path d="M5907 4505 c-4 -8 -13 -15 -22 -15 -17 0 -20 -16 -5 -25 6 -3 10 -14
10 -23 0 -12 8 -17 30 -17 22 0 30 5 30 17 0 9 5 20 10 23 14 8 13 25 -2 25
-6 0 -19 7 -28 15 -16 14 -18 14 -23 0z"/>
<path d="M6746 4402 c-4 -13 -15 -22 -27 -22 -20 0 -26 -15 -9 -25 6 -3 10
-16 10 -28 0 -19 5 -22 40 -22 35 0 40 3 40 22 0 12 5 25 10 28 17 10 11 25
-9 25 -10 0 -25 10 -33 22 l-15 23 -7 -23z"/>
<path d="M6485 3938 c-11 -26 31 -103 78 -143 59 -51 58 -34 -1 29 -28 30 -54
67 -57 82 -11 47 -12 50 -20 32z"/>
<path d="M6176 3833 c-4 -18 -28 -55 -53 -83 -25 -27 -41 -50 -35 -50 5 0 28
20 50 44 41 44 58 83 49 108 -2 7 -7 -2 -11 -19z"/>
<path d="M6480 3683 c0 -13 29 -38 35 -31 3 3 -4 13 -15 23 -11 10 -20 13 -20
8z"/>
<path d="M6294 4530 c-29 -11 -74 -67 -74 -91 0 -95 151 -137 189 -52 15 33
14 59 -4 98 -23 46 -65 64 -111 45z m85 -36 c21 -27 28 -87 13 -111 -11 -18
-55 -32 -84 -26 -79 15 -94 113 -23 151 35 20 72 14 94 -14z"/>
<path d="M6295 4498 c-51 -27 -59 -75 -19 -107 75 -59 156 28 89 94 -27 27
-40 30 -70 13z"/>
<path d="M1564 5130 c-57 -12 -137 -54 -184 -96 -50 -46 -100 -144 -100 -198
l0 -41 -82 -2 c-151 -4 -232 -52 -290 -170 -29 -59 -33 -77 -33 -148 0 -63 5
-89 22 -121 24 -45 103 -121 141 -135 13 -5 97 -9 188 -9 l164 0 0 -115 0
-116 98 3 97 3 3 113 3 112 104 0 105 0 0 -70 0 -70 -32 0 c-33 -1 -33 -1 52
-80 47 -44 87 -80 90 -80 3 0 41 38 84 85 l77 85 -35 0 -36 0 0 69 0 70 158 3
c148 3 161 5 194 27 45 31 75 75 104 156 62 171 1 351 -141 420 -59 28 -174
32 -251 7 l-62 -19 -6 43 c-20 149 -156 267 -321 278 -38 3 -89 1 -111 -4z
m216 -45 c108 -46 169 -121 189 -230 6 -32 15 -63 21 -69 6 -6 28 -1 62 15 41
19 67 24 132 24 70 0 87 -4 128 -28 61 -36 112 -97 129 -155 40 -136 -14 -320
-111 -376 -28 -17 -57 -21 -181 -24 l-148 -4 -3 88 -3 89 -102 3 -103 3 0 -91
0 -90 -100 0 -100 0 0 35 c0 32 2 35 30 35 19 0 30 5 30 14 0 7 -37 48 -81 90
-93 87 -74 89 -187 -18 -69 -66 -77 -86 -32 -86 28 0 30 -3 30 -35 l0 -35
-167 0 -168 0 -48 36 c-151 110 -118 376 57 466 48 25 209 39 229 19 22 -22
27 -10 27 55 0 85 26 139 97 204 71 65 136 89 238 89 62 0 92 -5 135 -24z
m-210 -699 c52 -54 53 -56 27 -56 l-27 0 0 -170 0 -171 -82 3 -83 3 -3 168
c-2 159 -3 167 -22 167 -11 0 -20 3 -20 8 0 4 28 33 62 64 71 65 67 66 148
-16z m410 -95 c0 -59 3 -136 6 -170 6 -53 10 -61 28 -61 16 0 8 -13 -44 -65
l-63 -64 -71 62 c-66 59 -68 62 -43 65 l27 3 -7 170 -6 169 86 0 87 0 0 -109z"/>
<path d="M2963 5060 c-100 -21 -147 -65 -180 -167 -24 -73 -31 -530 -9 -632
29 -136 84 -214 187 -264 81 -40 172 -48 419 -39 118 5 223 7 232 4 9 -2 44
-39 78 -82 33 -43 81 -94 107 -113 62 -45 151 -89 163 -82 19 12 9 83 -25 181
-49 141 -52 136 48 128 45 -4 83 -8 85 -9 1 -1 7 -85 12 -186 5 -101 12 -198
16 -216 12 -61 24 -65 273 -92 51 -6 96 -13 99 -16 11 -11 -22 -54 -64 -84
-32 -22 -44 -37 -44 -56 0 -31 30 -40 105 -32 81 8 146 41 209 106 61 64 86
73 163 65 26 -3 101 -1 166 5 141 12 209 38 253 97 l29 38 0 230 c0 217 -1
233 -21 271 -53 99 -52 99 -512 105 l-393 5 1 271 c1 289 -2 309 -48 357 -36
38 -70 51 -252 97 -197 50 -340 76 -510 95 -164 18 -529 28 -587 15z m362 -50
c201 -11 422 -41 590 -79 275 -63 351 -90 382 -138 16 -24 17 -54 15 -297 -3
-300 -5 -324 -35 -379 -31 -55 -92 -71 -272 -72 l-140 0 -3 -51 c-2 -37 5 -73
28 -134 38 -107 39 -118 3 -95 -74 47 -126 94 -178 160 -32 41 -70 79 -85 85
-21 9 -84 9 -253 1 -197 -10 -236 -9 -304 5 -132 27 -200 86 -243 213 -20 60
-21 80 -18 345 3 271 4 283 27 333 48 107 125 124 486 103z m1802 -836 c54 -7
99 -43 114 -92 16 -54 24 -388 10 -439 -26 -97 -125 -133 -371 -137 -83 -1
-154 -7 -165 -13 -11 -6 -37 -30 -58 -52 -66 -72 -108 -93 -190 -98 -67 -4
-71 -3 -52 12 72 56 116 118 97 137 -17 17 -118 36 -233 44 -148 9 -147 8
-159 154 -14 168 -13 300 3 304 6 2 39 8 72 15 50 9 66 17 97 50 23 24 42 57
49 84 l11 45 366 -4 c202 -3 386 -7 409 -10z"/>
<path d="M5012 5029 c-32 -12 -56 -74 -45 -113 8 -27 4 -40 -31 -96 -53 -87
-65 -100 -92 -100 -38 0 -75 -40 -81 -87 -5 -37 -2 -45 25 -73 40 -40 80 -40
125 0 l34 30 57 -15 c31 -8 58 -15 60 -15 2 0 9 -13 15 -29 17 -39 54 -55 97
-41 89 30 63 160 -31 160 -29 0 -39 -5 -53 -30 -9 -16 -21 -28 -27 -26 -5 3
-36 10 -67 17 -43 10 -58 17 -58 30 0 9 -8 27 -18 40 -19 22 -19 23 31 101 49
77 50 78 92 78 53 0 85 31 85 83 0 62 -62 108 -118 86z m81 -47 c37 -33 8
-102 -45 -102 -45 0 -65 73 -28 110 21 21 42 18 73 -8z m-193 -302 c41 -41 12
-120 -45 -120 -40 0 -68 36 -62 77 3 19 11 41 18 49 17 20 66 17 89 -6z m292
-95 c17 -37 -3 -75 -40 -75 -35 0 -52 16 -52 50 0 34 17 50 52 50 21 0 32 -7
40 -25z"/>
<path d="M1142 4888 c11 -52 12 -53 29 -31 8 9 9 14 3 10 -8 -4 -14 6 -18 28
-4 19 -11 35 -15 35 -5 0 -5 -19 1 -42z"/>
<path d="M1045 4893 c3 -10 9 -31 11 -48 l5 -30 -20 24 c-12 13 -21 29 -21 37
0 8 -4 14 -10 14 -11 0 4 -46 22 -67 14 -17 35 -16 42 2 5 15 -19 85 -30 85
-3 0 -3 -8 1 -17z"/>
<path d="M900 4817 c0 -30 27 -67 48 -66 11 0 12 2 4 6 -14 5 -46 62 -39 69 3
3 14 -7 26 -22 11 -15 21 -22 21 -15 0 14 -36 51 -50 51 -5 0 -10 -10 -10 -23z"/>
<path d="M800 4722 c0 -5 15 -21 34 -36 31 -23 35 -24 47 -9 10 12 10 15 2 9
-8 -4 -27 4 -48 20 -19 14 -35 22 -35 16z"/>
<path d="M750 4615 c0 -17 49 -44 68 -38 20 7 14 22 -7 16 -11 -3 -28 4 -40
16 -16 16 -21 17 -21 6z"/>
<path d="M2965 3832 c-71 -34 -155 -120 -193 -199 -30 -61 -27 -67 42 -88 l46
-14 15 36 c38 92 120 155 200 155 48 0 126 -38 144 -69 8 -15 15 -12 50 27 22
25 40 48 41 51 0 13 -72 70 -122 95 -79 40 -149 42 -223 6z"/>
<path d="M1890 3763 c-65 -11 -172 -49 -241 -84 -227 -118 -374 -323 -408
-573 -6 -44 -13 -82 -16 -84 -3 -3 -48 -9 -101 -13 -53 -4 -100 -11 -106 -17
-6 -6 13 -28 56 -63 36 -30 65 -58 65 -64 0 -5 -70 -75 -155 -155 -85 -79
-154 -150 -154 -156 0 -14 195 -174 212 -174 7 1 49 58 93 128 43 70 94 151
112 180 l34 52 33 -65 c46 -87 98 -148 171 -200 123 -88 255 -127 437 -129 74
-1 124 2 121 7 -3 5 8 6 25 2 21 -4 53 2 103 19 40 14 76 23 81 20 4 -3 8 0 8
6 0 6 5 8 10 5 6 -3 23 3 38 14 16 11 35 21 43 23 8 2 20 10 27 18 12 13 13
13 6 0 -4 -8 10 1 31 20 21 19 34 28 30 20 -5 -8 17 12 48 44 31 33 59 68 63
78 3 10 11 15 17 12 7 -4 9 -4 5 1 -4 4 4 22 17 40 14 17 22 35 18 38 -3 4 0
7 7 7 7 0 11 3 7 6 -3 4 3 24 14 46 11 21 17 43 14 48 -3 6 -1 10 4 10 6 0 10
8 9 18 -2 9 4 51 11 92 28 154 -7 355 -87 500 -46 84 -168 206 -252 253 -95
52 -202 77 -324 76 -56 -1 -112 -4 -126 -6z m259 -53 c20 -10 92 -135 121
-209 l21 -54 -33 7 c-18 4 -66 11 -106 16 -60 8 -78 14 -93 34 -11 14 -35 31
-54 37 l-35 13 0 72 c0 108 -1 108 88 100 42 -4 83 -11 91 -16z m-225 -77 c-6
-72 -11 -92 -29 -109 -12 -11 -26 -27 -31 -35 -9 -15 -180 -46 -191 -35 -7 6
46 103 100 183 35 51 48 63 82 71 79 19 76 22 69 -75z m401 15 c100 -61 176
-143 231 -250 19 -37 34 -70 34 -73 0 -3 -24 8 -52 24 -29 16 -84 42 -121 57
-38 15 -71 34 -74 43 -5 12 -74 160 -111 235 -7 14 40 -4 93 -36z m-623 -36
c-20 -32 -50 -85 -65 -118 l-29 -59 -106 -27 c-59 -15 -109 -25 -111 -23 -12
13 117 149 189 198 50 35 141 87 152 87 4 0 -9 -26 -30 -58z m325 -114 c31
-29 37 -52 23 -93 -31 -95 -158 -102 -176 -10 -13 70 43 142 100 131 17 -4 40
-16 53 -28z m-177 -99 c0 -20 9 -40 28 -58 l27 -28 1 -258 0 -258 -110 7
c-148 9 -194 16 -199 30 -3 7 -8 37 -12 67 l-6 54 42 19 c51 23 85 87 75 141
-7 38 -56 85 -88 85 -18 0 -19 4 -13 36 3 20 16 64 28 97 l22 62 95 17 c52 9
98 17 103 17 4 1 7 -13 7 -30z m364 15 c84 -16 89 -18 101 -48 21 -51 44 -193
47 -296 3 -89 2 -95 -20 -106 -38 -19 -72 -56 -80 -88 -7 -26 -14 -31 -67 -43
-32 -7 -98 -17 -147 -21 -70 -6 -89 -5 -93 6 -3 7 -5 119 -5 247 l0 233 35 12
c38 13 82 58 91 96 7 29 18 30 138 8z m-652 -121 c-16 -59 -34 -98 -52 -118
-54 -58 -57 -155 -7 -190 16 -11 25 -32 33 -80 12 -74 15 -71 -65 -54 -55 12
-49 1 -69 124 l-8 50 -57 -3 -57 -2 0 30 c0 48 28 174 51 224 18 42 25 47 72
60 29 8 75 21 102 29 87 26 85 28 57 -70z m926 29 c111 -55 130 -75 142 -152
5 -36 10 -92 10 -126 l0 -61 -81 -35 -81 -35 -24 23 c-12 13 -27 24 -32 24 -5
0 -12 60 -15 133 -4 72 -13 159 -22 192 -8 33 -14 66 -15 73 0 17 26 10 118
-36z m-844 -167 c50 -46 29 -132 -40 -161 -80 -34 -142 52 -99 136 29 56 93
67 139 25z m-264 -242 c6 -49 15 -115 19 -148 5 -33 7 -62 5 -64 -1 -2 -27 17
-57 43 -30 25 -59 46 -64 46 -6 0 -40 -48 -77 -107 -113 -181 -155 -246 -165
-256 -6 -6 -40 16 -92 59 l-82 68 162 156 c89 85 162 158 161 161 0 4 -25 26
-55 49 -31 24 -53 46 -50 49 4 3 66 11 138 17 73 6 135 12 138 12 4 1 12 -37
19 -85z m1055 2 c59 -58 7 -166 -78 -165 -46 1 -82 53 -73 105 15 79 99 112
151 60z m175 -67 c-32 -107 -75 -184 -138 -250 -47 -50 -155 -128 -176 -128
-3 0 1 17 10 38 9 20 29 75 44 122 19 60 33 88 48 96 49 25 92 82 92 122 0 14
18 27 68 50 37 16 69 28 71 26 2 -1 -7 -36 -19 -76z m-1118 -49 c63 -13 74
-21 83 -57 11 -47 72 -178 115 -247 22 -37 40 -69 40 -72 0 -8 -60 8 -109 29
-103 46 -188 119 -247 213 l-19 30 33 -27 c52 -43 56 -38 48 57 -4 47 -5 85
-2 85 3 0 29 -5 58 -11z m799 -41 l40 -42 -25 -76 c-13 -42 -37 -102 -52 -134
-32 -68 -49 -78 -167 -97 -64 -10 -80 -10 -87 1 -8 13 -25 140 -36 271 l-6 76
83 7 c65 6 178 25 207 35 1 1 21 -18 43 -41z m-382 -4 c2 -2 8 -50 12 -106 5
-57 14 -136 20 -176 6 -41 9 -75 7 -77 -2 -3 -36 -2 -74 2 l-71 6 -51 81 c-52
83 -115 211 -127 257 l-6 26 143 -5 c79 -2 145 -6 147 -8z"/>
<path d="M3026 3675 c-58 -21 -136 -103 -136 -145 0 -12 59 -40 84 -40 8 0 19
14 25 32 6 17 19 40 28 50 21 24 71 23 98 -2 l21 -20 34 35 c40 41 36 59 -21
87 -40 21 -80 22 -133 3z"/>
<path d="M3030 3549 c-17 -31 2 -69 34 -69 31 0 48 22 44 57 -2 23 -8 29 -35
31 -24 2 -34 -2 -43 -19z"/>
<path d="M3665 3389 c-504 -11 -555 -14 -597 -32 -59 -25 -61 -35 -49 -255 6
-109 13 -334 16 -502 l5 -305 -58 -40 c-81 -57 -256 -235 -327 -333 -80 -111
-154 -242 -205 -362 -23 -54 -54 -117 -68 -140 -15 -23 -105 -107 -207 -192
-99 -83 -180 -155 -180 -161 0 -29 36 -5 212 142 189 158 192 161 228 238 116
243 172 348 232 433 73 101 257 294 336 348 l47 33 -1 -43 c0 -40 -4 -46 -65
-96 -35 -29 -64 -59 -64 -67 0 -31 23 -24 66 18 100 99 299 220 644 392 236
118 285 135 391 135 69 0 78 -2 84 -20 4 -12 -1 -36 -12 -58 -16 -30 -40 -49
-129 -99 -199 -112 -319 -192 -456 -303 -80 -65 -218 -203 -218 -217 0 -8 11
-18 24 -25 56 -25 448 47 681 124 66 22 148 42 181 45 58 5 63 4 79 -21 37
-56 0 -105 -132 -173 -139 -73 -185 -88 -393 -133 -222 -47 -294 -70 -298 -95
-3 -14 1 -16 20 -11 36 9 301 74 418 102 58 14 136 39 173 56 55 26 73 30 95
22 36 -13 56 -56 47 -102 -11 -61 -69 -107 -173 -137 -129 -38 -282 -91 -416
-143 -107 -41 -139 -62 -123 -79 5 -4 84 24 161 56 5 2 -6 -24 -24 -58 -73
-137 -210 -218 -594 -350 -174 -60 -243 -71 -300 -47 -29 12 -43 13 -50 6 -13
-13 15 -37 52 -47 14 -3 21 -11 18 -19 -3 -7 -45 -62 -94 -121 -161 -197 -217
-283 -183 -283 5 0 54 60 109 133 149 197 230 287 259 287 28 0 206 56 353
112 212 80 352 162 417 244 40 51 76 123 69 139 -4 10 36 14 187 18 106 3 220
4 255 4 89 -3 98 11 106 162 9 153 9 166 1 232 -7 55 -6 57 24 78 39 28 61 69
61 114 0 43 -33 87 -66 87 -14 0 -26 6 -28 13 -3 6 -12 244 -21 527 -20 616
-26 699 -49 735 -20 30 -55 46 -99 43 -18 0 -185 -5 -372 -9z m438 -22 c15
-10 3 -11 -65 -8 -46 2 -269 -2 -496 -9 -227 -7 -416 -10 -419 -6 -4 3 -3 9 1
14 4 4 177 10 384 13 207 3 422 6 478 7 67 1 106 -2 117 -11z m-4 -55 c6 -10
13 -147 16 -303 3 -156 8 -305 11 -330 l4 -47 -62 5 c-121 10 -187 -8 -399
-110 -188 -91 -460 -239 -546 -298 l-42 -29 -5 42 c-3 24 -10 225 -16 448 -6
223 -13 453 -17 513 l-6 107 164 1 c90 1 245 5 344 8 99 4 262 8 362 9 168 2
183 1 192 -16z m70 -652 c6 -173 13 -372 16 -442 3 -71 1 -128 -3 -128 -7 0
-26 482 -37 950 -3 164 -3 167 5 55 4 -66 13 -262 19 -435z m-30 -460 l1 -115
-108 -33 c-242 -75 -556 -143 -658 -142 l-39 1 66 63 c150 144 335 276 562
404 66 37 129 79 141 93 l21 25 6 -90 c4 -50 7 -143 8 -206z m48 -382 c-3 -8
-6 -5 -6 6 -1 11 2 17 5 13 3 -3 4 -12 1 -19z m11 -265 l-1 -68 -6 60 c-4 33
-5 63 -3 68 9 20 12 1 10 -60z m-35 -33 c4 -30 3 -61 -2 -68 -7 -11 -51 -14
-200 -15 -105 -1 -191 -1 -191 0 0 1 53 19 118 38 151 47 250 84 258 97 9 14
11 9 17 -52z"/>
<path d="M3279 3151 c-140 -7 -149 -13 -149 -86 0 -91 7 -94 194 -96 155 -2
160 -2 178 20 20 25 22 56 8 115 -10 47 -23 56 -75 54 -22 -1 -92 -4 -156 -7z
m-14 -43 c57 -26 35 -108 -29 -108 -45 0 -71 29 -59 67 5 15 20 34 34 40 29
15 23 15 54 1z"/>
<path d="M3566 3105 c-22 -22 -20 -58 5 -81 25 -22 49 -11 64 30 17 49 -33 87
-69 51z m49 -16 c12 -19 -4 -61 -23 -57 -30 6 -28 68 2 68 8 0 18 -5 21 -11z"/>
<path d="M5537 3329 c-56 -13 -89 -33 -130 -78 -89 -99 -88 -277 4 -376 114
-123 323 -54 354 117 10 51 -2 78 -41 94 -50 21 -157 19 -177 -4 -36 -39 -14
-89 43 -98 45 -7 51 -23 20 -54 -31 -31 -85 -27 -122 10 l-30 30 4 106 c3 102
4 107 31 130 34 29 78 31 121 5 27 -16 37 -17 76 -7 55 14 63 39 25 84 -39 46
-98 60 -178 41z"/>
<path d="M4745 3323 c-52 -8 -54 -17 -48 -234 5 -174 4 -201 -10 -217 -32 -36
15 -62 113 -62 76 0 123 15 177 56 120 91 104 347 -26 434 -28 19 -51 25 -106
26 -38 1 -83 0 -100 -3z m162 -129 c27 -17 38 -71 35 -172 -2 -34 -9 -50 -31
-73 -30 -30 -78 -39 -85 -16 -3 6 -7 71 -10 144 -5 119 -4 132 12 136 22 6 51
-1 79 -19z"/>
<path d="M6136 3321 c-135 -7 -154 -17 -123 -65 15 -22 25 -26 62 -26 l45 0 2
-207 3 -208 32 -3 c24 -2 34 2 43 17 6 12 16 106 22 211 l12 190 33 -6 c51
-10 85 17 81 64 -3 37 -4 37 -48 38 -25 0 -99 -2 -164 -5z"/>
<path d="M5168 3309 c-16 -9 -18 -32 -18 -249 0 -230 1 -239 20 -245 26 -8 57
2 64 21 13 33 32 348 27 436 -2 40 -54 60 -93 37z"/>
<path d="M5866 3304 c-14 -13 -16 -49 -16 -243 0 -233 3 -251 40 -251 50 0 69
98 70 367 0 111 -2 123 -19 133 -28 14 -57 12 -75 -6z"/>
<path d="M6467 3308 c-14 -11 -91 -251 -121 -381 -4 -16 -18 -39 -31 -51 -44
-41 -29 -66 39 -66 39 0 70 29 89 85 13 38 16 40 58 43 l45 3 18 -51 c22 -62
39 -80 75 -80 48 0 56 21 33 84 -17 47 -18 57 -6 67 21 17 17 31 -15 59 -23
20 -37 50 -66 143 -44 144 -72 178 -118 145z m53 -285 c0 -7 -10 -13 -21 -13
-17 0 -20 4 -15 23 3 12 6 31 7 42 0 16 4 14 14 -10 8 -16 14 -36 15 -42z"/>
<path d="M6745 3311 c-3 -6 -9 -113 -12 -238 -7 -274 -14 -259 116 -255 111 3
159 16 171 46 8 21 -1 90 -13 102 -3 3 -39 -4 -80 -14 -41 -11 -79 -17 -84
-13 -6 4 -6 68 -1 165 9 188 4 209 -54 214 -20 2 -39 -2 -43 -7z"/>
<path d="M4726 2741 c-3 -4 -9 -89 -12 -187 -6 -161 -5 -181 10 -193 13 -11
20 -11 28 -3 14 14 26 96 27 185 1 37 4 67 7 67 3 0 19 -13 34 -30 15 -16 33
-30 40 -30 6 0 24 14 38 30 15 17 30 30 34 30 5 0 8 -53 8 -118 0 -103 3 -121
18 -135 21 -19 40 -21 61 -8 13 8 13 12 0 27 -10 13 -15 60 -19 185 -3 106 -9
172 -16 179 -19 19 -49 -4 -83 -64 -16 -30 -35 -57 -40 -60 -5 -4 -24 20 -42
51 -17 32 -39 64 -47 71 -18 14 -39 16 -46 3z"/>
<path d="M5172 2725 c-6 -14 -28 -89 -47 -167 -20 -79 -45 -155 -56 -171 -23
-31 -18 -47 15 -47 33 0 54 20 68 65 12 36 17 40 48 43 34 3 37 1 57 -48 23
-53 44 -70 67 -51 12 10 12 19 0 57 -11 36 -11 49 -1 65 12 19 5 30 -25 41 -4
2 -19 44 -33 93 -32 110 -45 139 -66 143 -9 1 -20 -8 -27 -23z m45 -185 c10
-39 9 -40 -15 -40 -20 0 -23 4 -18 23 3 12 6 30 6 40 0 31 16 18 27 -23z"/>
<path d="M5366 2741 c-10 -16 -9 -382 1 -392 26 -26 53 19 53 91 0 62 12 63
44 4 42 -75 76 -101 113 -88 38 13 38 48 2 52 -21 2 -33 16 -58 61 l-31 58 37
24 c66 42 69 144 5 181 -28 17 -157 24 -166 9z m132 -54 c24 -49 -5 -117 -49
-117 -17 0 -19 8 -19 68 0 38 3 72 7 76 15 15 48 0 61 -27z"/>
<path d="M5646 2742 c-2 -4 -6 -92 -8 -195 -2 -158 -1 -189 12 -197 23 -14 38
8 47 68 l8 52 35 -47 c28 -38 42 -49 68 -51 32 -3 62 11 62 30 0 5 -16 16 -35
24 -27 11 -42 28 -66 75 l-30 61 24 37 c37 56 67 118 60 125 -17 17 -45 2 -75
-41 l-33 -48 -3 35 c-5 67 -11 80 -37 80 -13 0 -26 -4 -29 -8z"/>
<path d="M5902 2741 c-14 -8 -20 -377 -7 -390 16 -15 175 5 194 24 15 15 14
17 -2 29 -13 10 -28 11 -55 5 -20 -5 -47 -9 -60 -9 -22 0 -23 3 -20 52 l3 52
45 11 c34 8 45 16 45 30 0 17 -7 20 -42 19 l-43 -1 0 57 0 57 50 7 c93 12 73
51 -31 59 -37 2 -71 2 -77 -2z"/>
<path d="M6260 2740 c-14 -4 -46 -8 -71 -9 -55 -1 -82 -23 -50 -40 11 -6 29
-11 40 -11 20 0 21 -6 23 -167 3 -150 5 -168 20 -171 28 -5 38 37 46 197 l7
146 35 11 c46 15 49 48 5 51 -16 1 -41 -2 -55 -7z"/>
<path d="M6392 2742 c-9 -7 -12 -54 -10 -203 3 -175 5 -194 20 -197 28 -5 36
32 44 211 5 128 4 170 -6 182 -14 17 -29 19 -48 7z"/>
<path d="M6486 2742 c-2 -4 -8 -91 -11 -192 -7 -169 -6 -187 10 -200 28 -23
42 9 50 108 3 48 7 93 8 101 1 8 22 -30 46 -85 24 -54 52 -108 63 -119 16 -18
19 -18 34 -3 12 12 18 52 26 176 12 175 8 207 -22 217 -33 10 -40 -3 -41 -78
0 -40 -4 -94 -7 -120 l-7 -48 -34 88 c-53 134 -69 163 -91 163 -10 0 -21 -3
-24 -8z"/>
<path d="M6810 2724 c-122 -104 -86 -353 55 -380 25 -4 47 0 81 16 50 25 78
62 89 117 11 60 -23 76 -107 52 -46 -12 -50 -37 -8 -45 36 -8 38 -27 5 -59
-27 -27 -37 -30 -65 -15 -52 28 -68 208 -24 267 24 33 74 42 94 19 11 -14 50
-23 50 -12 0 18 -17 39 -41 51 -44 23 -93 19 -129 -11z"/>
<path d="M5627 2256 c-75 -28 -107 -78 -107 -170 0 -44 5 -60 25 -85 l26 -30
-27 -43 c-15 -24 -42 -62 -60 -85 -34 -41 -35 -42 -88 -36 -67 7 -118 -9 -151
-48 -14 -17 -29 -29 -33 -27 -4 2 -53 34 -109 71 l-101 68 5 53 c6 61 -9 99
-57 140 -26 21 -42 26 -89 26 -103 0 -161 -62 -161 -172 0 -46 5 -62 25 -86
l25 -30 -45 -83 c-25 -46 -52 -95 -59 -108 -12 -21 -21 -24 -79 -25 -98 -1
-152 -49 -163 -142 -12 -98 29 -155 123 -170 58 -9 123 22 158 75 24 36 27 48
23 101 -3 48 -10 66 -32 89 l-27 29 58 111 58 111 42 -6 c62 -9 109 3 148 37
l35 31 53 -34 c29 -18 78 -51 110 -73 l57 -40 0 -58 c0 -71 19 -109 64 -131
151 -72 312 94 221 228 -14 20 -25 39 -25 41 0 2 22 33 49 69 27 36 52 73 55
83 5 15 17 18 79 18 66 0 78 3 111 29 43 32 66 78 66 130 0 105 -105 178 -203
142z m113 -31 c44 -23 60 -53 60 -112 0 -44 -5 -58 -31 -88 -43 -48 -97 -62
-156 -40 -70 27 -91 91 -57 175 27 68 117 100 184 65z m-795 -188 c59 -59 59
-132 0 -192 -87 -86 -225 -43 -225 71 0 97 53 154 144 154 41 0 53 -5 81 -33z
m493 -267 c34 -21 62 -71 62 -111 0 -37 -32 -89 -69 -115 -65 -44 -167 -21
-192 44 -14 35 -3 121 19 149 41 53 123 68 180 33z m-810 -224 c85 -46 79
-172 -10 -226 -55 -34 -152 -18 -177 28 -15 28 -13 122 3 150 30 55 126 80
184 48z"/>
<path d="M2030 2180 c0 -5 23 -10 50 -10 l50 0 0 -45 c0 -25 5 -45 10 -45 11
0 14 69 4 94 -5 12 -20 16 -60 16 -30 0 -54 -4 -54 -10z"/>
<path d="M6390 2164 c-248 -65 -379 -247 -380 -524 0 -120 16 -185 84 -330 83
-177 98 -243 73 -331 -9 -30 -25 -90 -37 -134 -12 -44 -23 -87 -26 -96 -2 -9
16 -47 41 -84 25 -38 43 -70 40 -73 -2 -3 -28 -7 -56 -10 -37 -3 -50 -2 -45 7
4 6 3 11 -1 11 -5 0 -8 18 -8 40 0 22 -4 40 -8 40 -5 0 -7 -25 -5 -55 l5 -55
-199 0 c-113 0 -198 -4 -198 -9 0 -16 138 -23 375 -19 217 4 233 6 286 29 103
45 103 46 139 176 58 212 110 292 248 385 86 58 213 180 261 250 71 105 103
252 82 377 -31 187 -189 355 -382 406 -69 19 -218 18 -289 -1z m315 -25 c110
-34 200 -103 266 -203 97 -147 104 -329 21 -495 -36 -72 -177 -220 -277 -290
-103 -72 -141 -111 -189 -194 -35 -61 -41 -66 -65 -60 -41 9 -41 10 -20 71 39
111 72 165 107 174 32 9 58 40 47 58 -10 17 -35 11 -60 -14 -18 -18 -27 -21
-34 -12 -17 21 -1 50 42 77 49 30 80 77 67 99 -15 23 -59 -6 -95 -62 -24 -37
-36 -47 -58 -47 -40 -1 -43 21 -8 58 35 38 70 136 55 151 -6 6 -18 8 -27 4
-19 -7 -64 -94 -73 -141 -6 -28 -11 -33 -35 -33 -29 0 -29 1 -29 59 0 69 -26
115 -53 93 -36 -30 -22 -117 24 -152 20 -16 20 -18 4 -95 -9 -44 -29 -111 -44
-150 -24 -64 -29 -70 -55 -70 l-29 0 2 81 c2 90 -14 145 -87 290 -73 146 -94
275 -68 419 43 235 189 370 441 408 50 8 167 -4 230 -24z m-220 -731 c-11 -36
-37 -88 -46 -94 -15 -9 -10 29 11 74 20 44 47 59 35 20z m-171 -6 c3 -5 8 -32
12 -62 5 -41 4 -51 -6 -45 -19 12 -42 74 -35 96 7 20 20 25 29 11z m264 -94
c-8 -12 -25 -29 -38 -37 -23 -15 -23 -15 -10 9 19 38 31 50 47 50 14 0 14 -3
1 -22z m-163 -68 c10 -11 29 -20 42 -20 19 0 23 -5 23 -29 0 -17 4 -33 10 -36
6 -4 1 -25 -14 -53 -13 -26 -34 -77 -47 -114 -26 -75 -26 -75 -114 -54 -34 8
-49 16 -48 26 1 8 16 56 33 105 18 50 34 114 37 143 5 49 8 52 33 52 15 0 35
-9 45 -20z m150 -70 c-3 -5 -11 -10 -16 -10 -6 0 -7 5 -4 10 3 6 11 10 16 10
6 0 7 -4 4 -10z m-109 -297 c-6 -6 -148 23 -211 43 -101 33 -63 31 74 -4 78
-19 139 -37 137 -39z m-188 12 c48 -14 113 -30 145 -36 51 -9 58 -13 55 -32
-3 -19 -9 -22 -41 -19 -35 3 -253 64 -263 75 -5 5 6 37 13 37 2 0 43 -11 91
-25z m32 -82 c63 -18 122 -33 132 -33 19 0 22 -8 13 -32 -5 -12 -19 -11 -93 4
-101 20 -203 52 -203 61 1 4 1 16 1 28 0 16 4 19 18 14 9 -5 69 -23 132 -42z"/>
<path d="M1595 2110 c-236 -4 -452 -10 -480 -14 -27 -4 -68 -9 -90 -12 l-41
-5 4 -342 c3 -249 7 -345 16 -355 23 -24 435 -37 757 -23 157 7 299 15 315 20
l29 7 0 107 c-1 510 -4 586 -25 607 -11 11 -28 19 -37 18 -10 -1 -211 -5 -448
-8z m353 -40 l54 0 -198 -207 c-108 -115 -203 -214 -209 -221 -9 -10 -25 -2
-81 41 -38 29 -130 97 -204 149 -74 53 -164 122 -198 154 -56 50 -62 58 -46
67 20 11 594 27 738 21 49 -2 114 -4 144 -4z m112 -178 c0 -99 3 -246 6 -328
l7 -150 -184 -12 c-215 -14 -600 -15 -748 -2 -57 5 -105 11 -106 12 -1 2 -5
142 -9 312 l-7 309 58 -52 c32 -29 102 -84 157 -124 54 -40 155 -114 225 -165
l126 -93 100 103 c55 57 156 163 225 236 69 73 131 132 138 132 9 0 12 -43 12
-178z"/>
<path d="M7087 1690 c3 -30 7 -57 9 -59 7 -8 2 64 -6 89 -6 16 -7 6 -3 -30z"/>
<path d="M5926 1558 c-10 -38 -6 -91 9 -123 l14 -30 -7 35 c-4 19 -7 59 -6 88
0 28 0 52 -2 52 -1 0 -4 -10 -8 -22z"/>
<path d="M5971 1509 c0 -30 4 -63 8 -74 5 -11 6 10 3 50 -6 85 -12 98 -11 24z"/>
<path d="M928 1390 c-15 -109 -15 -110 42 -110 28 0 50 5 50 10 0 6 -18 10
-40 10 l-39 0 -3 73 -3 72 -7 -55z"/>
<path d="M5990 1403 c0 -6 9 -21 21 -34 l20 -24 -17 30 c-24 39 -24 40 -24 28z"/>
<path d="M832 1248 l3 -53 73 -3 c50 -2 72 1 67 8 -3 5 -36 10 -72 10 l-66 0
7 39 c4 24 2 42 -5 46 -7 5 -9 -11 -7 -47z"/>
<path d="M1251 1130 c-67 -24 -122 -62 -156 -106 -124 -162 -71 -398 108 -474
62 -27 192 -38 253 -21 56 15 108 52 112 79 5 30 -19 29 -69 -5 -53 -35 -159
-43 -243 -19 -142 42 -217 203 -160 345 9 23 39 62 69 89 122 112 294 108 398
-8 72 -80 86 -186 36 -266 -25 -41 -57 -51 -97 -30 -43 22 -57 63 -43 126 20
92 19 95 -48 107 -95 18 -166 -7 -224 -80 -26 -31 -32 -49 -35 -102 -4 -61 -3
-66 26 -95 26 -26 38 -30 82 -30 58 0 82 10 126 52 l31 29 32 -30 c125 -117
283 67 217 252 -58 163 -247 247 -415 187z m151 -282 c-6 -66 -23 -100 -67
-133 -41 -32 -97 -37 -122 -12 -38 38 -3 139 61 178 20 12 50 19 82 19 l51 0
-5 -52z"/>
<path d="M4519 1133 c-4 -36 2 -637 7 -644 3 -5 179 -9 405 -9 312 0 399 3
399 13 1 6 0 151 0 322 -1 230 -4 311 -13 317 -16 10 -797 10 -798 1z m785
-34 c3 -17 6 -95 6 -172 l0 -140 -101 127 c-55 69 -104 126 -108 126 -13 0
-129 -125 -176 -190 -26 -36 -50 -65 -54 -65 -4 0 -27 23 -51 50 -23 28 -48
53 -55 57 -13 8 -131 -107 -189 -185 l-36 -49 0 199 c0 109 -3 215 -6 236 l-7
37 385 0 386 0 6 -31z m-94 -219 l100 -125 0 -132 0 -133 -97 0 -98 1 -42 52
c-24 29 -59 70 -79 92 -20 22 -52 59 -71 83 l-36 43 39 57 c47 68 163 194 176
190 5 -2 54 -59 108 -128z m-417 -42 c13 -18 84 -100 156 -183 72 -82 131
-153 131 -158 0 -4 -120 -6 -267 -5 l-268 3 -3 65 c-2 64 -2 66 48 132 62 82
152 178 167 178 6 0 22 -15 36 -32z"/>
<path d="M4827 1052 c-25 -27 -22 -78 5 -96 33 -23 74 -20 92 6 19 27 21 79 4
96 -19 19 -82 15 -101 -6z m98 -22 c8 -25 -19 -70 -41 -70 -28 0 -54 21 -54
43 0 32 18 47 56 47 24 0 34 -5 39 -20z"/>
<path d="M2128 1033 c-43 -35 -61 -63 -40 -63 16 0 102 73 102 86 0 21 -11 17
-62 -23z"/>
<path d="M4133 1062 c-10 -6 -10 -25 2 -88 17 -97 50 -211 66 -230 17 -20 70
-17 98 7 29 24 23 33 -14 19 -34 -13 -41 -7 -50 47 -6 40 -5 44 19 53 35 13
33 24 -3 17 -29 -6 -30 -5 -60 75 -18 44 -30 82 -28 84 1 2 14 7 27 13 24 9
23 10 -10 10 -19 0 -41 -3 -47 -7z"/>
<path d="M3888 1023 c-10 -2 -18 -8 -18 -11 1 -27 81 -326 90 -337 15 -18 47
-20 52 -3 3 7 -1 33 -9 57 -7 24 -11 46 -8 49 2 2 23 -12 46 -32 41 -35 69
-46 69 -27 0 7 -43 45 -99 88 -3 2 3 26 13 53 10 28 18 66 19 86 2 65 -68 100
-155 77z m106 -36 c19 -23 18 -66 -4 -122 -11 -30 -12 -29 -39 55 -15 47 -26
89 -24 93 7 13 46 -3 67 -26z"/>
<path d="M3644 985 c-10 -25 21 -337 36 -364 17 -32 46 -26 56 11 12 40 65 59
93 34 16 -15 41 -22 41 -12 0 9 -179 303 -199 327 -19 23 -20 23 -27 4z m116
-201 c44 -78 44 -91 0 -96 -22 -3 -25 1 -32 52 -4 30 -9 70 -12 88 -3 17 -3
32 -1 32 2 0 22 -34 45 -76z"/>
<path d="M3485 914 c4 -16 15 -71 24 -122 19 -96 17 -106 -23 -114 -15 -2 -22
8 -37 62 -29 104 -49 149 -70 160 -24 13 -24 7 -4 -120 20 -121 44 -213 58
-222 29 -18 62 27 48 66 -9 22 -7 26 20 35 27 9 31 8 39 -15 6 -14 10 -31 10
-38 0 -8 7 -19 16 -26 12 -11 18 -11 30 2 14 13 11 31 -22 164 -37 153 -43
168 -77 186 -18 9 -19 8 -12 -18z"/>
<path d="M2221 883 c-25 -25 -31 -37 -23 -45 8 -8 21 -1 47 25 19 19 35 40 35
46 0 20 -24 9 -59 -26z"/>
<path d="M3161 831 c-20 -21 -32 -47 -37 -78 -11 -71 2 -94 72 -127 66 -31 88
-56 79 -87 -7 -22 -53 -27 -73 -7 -16 16 -29 1 -16 -20 17 -27 98 -28 123 -3
12 12 21 30 21 40 0 32 -48 80 -93 93 -56 15 -77 35 -77 70 0 36 22 89 44 107
15 12 19 11 39 -10 l22 -24 3 24 c5 29 -5 39 -46 47 -27 5 -36 2 -61 -25z"/>
<path d="M2355 800 c-29 -29 -36 -43 -28 -51 8 -8 21 0 50 31 44 49 50 60 31
60 -8 0 -32 -18 -53 -40z"/>
<path d="M5501 735 c-38 -50 -36 -123 5 -139 20 -8 44 4 44 21 0 13 -3 13 -15
3 -12 -10 -16 -8 -25 15 -13 35 -3 71 26 94 29 23 30 31 5 31 -11 0 -29 -11
-40 -25z"/>
<path d="M5600 696 c0 -63 11 -106 26 -106 8 0 14 10 14 22 0 20 1 21 20 3 11
-10 20 -13 20 -8 0 6 -6 16 -14 22 -12 10 -12 16 2 41 16 27 16 31 1 46 -15
15 -16 14 -12 -8 3 -15 -2 -29 -11 -37 -14 -12 -16 -9 -16 28 0 30 -4 41 -15
41 -11 0 -15 -12 -15 -44z"/>
<path d="M5720 671 c0 -27 3 -56 6 -65 7 -17 44 -22 44 -6 0 6 -4 10 -9 10 -6
0 -9 8 -9 18 1 9 -2 29 -5 45 -5 17 -3 27 3 27 6 0 8 5 5 10 -3 6 -13 10 -21
10 -10 0 -14 -13 -14 -49z"/>
<path d="M5816 689 c-10 -53 -7 -99 7 -94 11 5 15 24 18 84 2 38 -17 46 -25
10z"/>
<path d="M5897 692 c6 -4 13 -30 16 -57 l3 -50 2 52 c1 30 7 53 15 56 6 3 -1
6 -18 6 -17 0 -25 -3 -18 -7z"/>
<path d="M5963 635 c0 -27 2 -38 4 -22 2 15 2 37 0 50 -2 12 -4 0 -4 -28z"/>
<path d="M6001 650 c-1 -35 13 -69 24 -58 3 3 8 23 11 44 4 36 4 37 -7 14
l-12 -25 -7 30 -8 30 -1 -35z"/>
<path d="M5851 628 c-1 -16 4 -28 9 -28 12 0 12 8 0 35 -8 18 -9 17 -9 -7z"/>
<path d="M2362 604 c-17 -14 -32 -30 -32 -35 0 -16 24 -9 55 16 42 35 21 53
-23 19z"/>
<path d="M580 165 c0 -57 4 -95 10 -95 6 0 10 38 10 95 0 57 -4 95 -10 95 -6
0 -10 -38 -10 -95z"/>
</g>
</svg>
