<?xml version="1.0" standalone="no"?>
<!DOCTYPE svg PUBLIC "-//W3C//DTD SVG 20010904//EN"
 "http://www.w3.org/TR/2001/REC-SVG-20010904/DTD/svg10.dtd">
<svg version="1.0" xmlns="http://www.w3.org/2000/svg"
 width="467.000000pt" height="973.000000pt" viewBox="0 0 467.000000 973.000000"
 preserveAspectRatio="xMidYMid meet">

<g transform="translate(0.000000,973.000000) scale(0.100000,-0.100000)"
fill="#000000" stroke="none">
<path d="M330 9663 c-26 -10 -30 -26 -30 -140 0 -97 2 -113 16 -113 9 0 29
-13 44 -30 15 -16 33 -30 40 -30 7 0 25 14 40 30 24 26 35 30 80 30 45 0 56
-4 80 -30 15 -16 33 -30 40 -30 7 0 25 14 40 30 15 17 35 30 44 30 12 0 16 11
16 46 0 62 -49 134 -92 134 -26 0 -28 3 -28 40 l0 40 -137 -1 c-76 0 -145 -3
-153 -6z m364 -128 l16 -25 -45 0 c-41 0 -45 2 -45 25 0 21 5 25 29 25 20 0
34 -8 45 -25z m-269 -125 c0 -18 -6 -26 -23 -28 -24 -4 -38 18 -28 44 3 9 15
14 28 12 17 -2 23 -10 23 -28z m240 0 c0 -18 -6 -26 -23 -28 -24 -4 -38 18
-28 44 3 9 15 14 28 12 17 -2 23 -10 23 -28z"/>
<path d="M1770 9635 c-21 -25 -1 -31 23 -7 17 18 18 22 5 22 -8 0 -21 -7 -28
-15z"/>
<path d="M1100 9490 l0 -100 70 0 c56 0 70 3 70 15 0 11 -12 15 -50 15 l-50 0
0 85 c0 78 -2 85 -20 85 -19 0 -20 -7 -20 -100z"/>
<path d="M1309 9561 c-23 -23 -29 -38 -29 -71 0 -111 146 -139 180 -35 34 103
-76 180 -151 106z m105 -23 c46 -66 -19 -153 -76 -101 -23 20 -24 80 -1 105
22 25 59 23 77 -4z"/>
<path d="M1547 9565 c-46 -46 -39 -133 13 -160 35 -18 71 -19 89 -2 11 10 14
10 18 0 11 -30 23 -9 23 37 l0 50 -35 0 c-19 0 -35 -4 -35 -10 0 -5 9 -10 20
-10 24 0 26 -13 4 -34 -22 -23 -60 -20 -78 6 -46 65 19 153 75 102 10 -9 26
-14 36 -12 16 3 15 7 -9 31 -36 36 -86 37 -121 2z"/>
<path d="M1750 9490 c0 -93 1 -100 20 -100 19 0 20 7 20 100 0 93 -1 100 -20
100 -19 0 -20 -7 -20 -100z"/>
<path d="M1872 9574 c-24 -17 -29 -56 -9 -72 7 -6 31 -17 53 -24 28 -9 39 -19
39 -33 0 -26 -62 -35 -71 -11 -6 16 -44 23 -44 9 2 -42 91 -68 135 -39 25 16
32 49 17 73 -4 6 -30 20 -57 30 -56 21 -66 46 -21 51 19 2 32 -2 38 -12 11
-20 38 -21 38 -2 0 20 -39 46 -70 46 -14 0 -36 -7 -48 -16z"/>
<path d="M2040 9576 c0 -9 12 -16 28 -18 27 -3 27 -4 30 -85 2 -64 6 -83 17
-83 11 0 15 19 17 83 3 81 3 82 31 85 15 2 27 9 27 18 0 11 -17 14 -75 14 -58
0 -75 -3 -75 -14z"/>
<path d="M2240 9490 c0 -93 1 -100 20 -100 19 0 20 7 20 100 0 93 -1 100 -20
100 -19 0 -20 -7 -20 -100z"/>
<path d="M2367 9565 c-28 -29 -37 -67 -25 -113 9 -35 50 -62 93 -62 26 0 75
39 75 60 0 18 -35 11 -48 -10 -16 -27 -57 -26 -76 2 -46 65 19 153 75 102 10
-9 26 -14 36 -12 16 3 15 7 -9 31 -36 36 -86 37 -121 2z"/>
<path d="M2590 9503 c-18 -48 -35 -94 -38 -100 -2 -8 4 -13 16 -13 13 0 22 9
26 25 5 21 12 25 46 25 34 0 41 -4 46 -25 4 -16 13 -25 25 -25 25 0 25 0 -15
105 -47 124 -62 125 -106 8z m79 -35 c1 -10 -46 -10 -53 0 -2 4 3 23 11 42
l15 35 13 -35 c8 -19 14 -38 14 -42z"/>
<path d="M1270 8630 c0 -60 4 -100 10 -100 6 0 10 20 10 45 l0 45 50 0 c45 0
52 3 61 26 20 54 -12 84 -92 84 l-39 0 0 -100z m108 68 c29 -29 -2 -68 -54
-68 -33 0 -34 1 -34 40 0 40 0 40 38 40 21 0 43 -5 50 -12z"/>
<path d="M1451 8714 c0 -11 3 -14 6 -6 3 7 2 16 -1 19 -3 4 -6 -2 -5 -13z"/>
<path d="M1663 8630 c-1 -104 0 -110 11 -57 9 37 30 34 56 -8 12 -19 26 -35
31 -35 14 0 11 7 -18 50 l-26 41 23 24 c34 36 12 31 -27 -7 -37 -36 -40 -32
-46 47 -2 28 -4 3 -4 -55z"/>
<path d="M1453 8600 c0 -41 2 -58 4 -37 2 20 2 54 0 75 -2 20 -4 3 -4 -38z"/>
<path d="M1516 8654 c-22 -22 -21 -87 2 -107 10 -10 30 -17 44 -17 26 0 66 35
54 47 -3 4 -15 -3 -26 -15 -40 -43 -94 14 -66 70 14 28 48 35 66 13 18 -22 33
-19 20 5 -13 25 -71 27 -94 4z"/>
<path d="M1823 8662 c-6 -4 -17 -20 -22 -36 -13 -31 1 -71 31 -90 21 -13 69 2
76 24 4 12 2 13 -9 3 -20 -20 -67 -16 -79 6 -15 30 -14 31 45 31 60 0 67 9 39
48 -15 22 -57 29 -81 14z m65 -14 c25 -25 13 -38 -33 -38 -48 0 -55 9 -29 34
18 19 45 21 62 4z"/>
<path d="M1950 8600 c0 -40 4 -70 10 -70 6 0 10 22 10 49 0 42 4 52 28 70 18
13 22 20 12 21 -9 0 -21 -5 -28 -12 -9 -9 -12 -9 -12 0 0 7 -4 12 -10 12 -6 0
-10 -30 -10 -70z"/>
<path d="M2043 8654 c-9 -24 8 -45 47 -58 19 -6 36 -18 38 -27 4 -22 -31 -30
-62 -13 -27 13 -34 6 -14 -14 16 -16 60 -15 82 1 29 22 16 50 -32 67 -23 8
-42 20 -42 28 0 19 30 27 52 13 22 -13 34 -9 23 8 -11 18 -85 13 -92 -5z"/>
<path d="M425 7845 c-14 -13 -25 -29 -25 -35 0 -14 46 -60 60 -60 14 0 60 46
60 60 0 14 -46 60 -60 60 -6 0 -22 -11 -35 -25z"/>
<path d="M580 7810 c-11 -11 -20 -24 -20 -30 0 -13 37 -50 50 -50 13 0 50 37
50 50 0 13 -37 50 -50 50 -5 0 -19 -9 -30 -20z"/>
<path d="M1127 7785 c-28 -29 -37 -67 -25 -113 9 -35 50 -62 93 -62 26 0 75
39 75 60 0 18 -35 11 -48 -10 -16 -27 -57 -26 -76 2 -46 65 19 153 75 102 10
-9 26 -14 36 -12 16 3 15 7 -9 31 -36 36 -86 37 -121 2z"/>
<path d="M1330 7710 l0 -100 65 0 c50 0 65 3 65 14 0 11 -14 16 -47 18 l-48 3
-3 83 c-2 64 -6 82 -17 82 -12 0 -15 -19 -15 -100z"/>
<path d="M1510 7710 c0 -93 1 -100 20 -100 19 0 20 7 20 100 0 93 -1 100 -20
100 -19 0 -20 -7 -20 -100z"/>
<path d="M1610 7710 l0 -100 75 0 c60 0 75 3 75 15 0 12 -13 15 -55 15 -54 0
-55 0 -55 30 0 29 1 30 50 30 38 0 50 4 50 15 0 11 -12 15 -50 15 -47 0 -50 2
-50 25 0 24 3 25 55 25 42 0 55 3 55 15 0 12 -15 15 -75 15 l-75 0 0 -100z"/>
<path d="M1810 7710 c0 -93 1 -100 20 -100 17 0 19 8 22 68 l3 67 40 -67 c25
-42 47 -68 58 -68 15 0 17 11 17 100 0 81 -3 100 -15 100 -11 0 -15 -16 -17
-67 l-3 -68 -43 68 c-29 44 -50 67 -63 67 -17 0 -19 -8 -19 -100z"/>
<path d="M2020 7795 c0 -10 10 -15 30 -15 l30 0 0 -85 c0 -78 2 -85 20 -85 18
0 20 7 20 85 l0 85 30 0 c20 0 30 5 30 15 0 12 -16 15 -80 15 -64 0 -80 -3
-80 -15z"/>
<path d="M2230 7710 l0 -100 70 0 c54 0 70 3 70 14 0 11 -15 16 -52 18 -49 3
-53 5 -53 28 0 23 4 25 48 28 33 2 47 7 47 18 0 10 -13 14 -51 14 -47 0 -50 2
-47 23 3 19 10 22 56 25 37 2 52 7 52 18 0 11 -16 14 -70 14 l-70 0 0 -100z"/>
<path d="M2442 7794 c-32 -22 -26 -64 11 -81 15 -7 39 -19 55 -26 40 -19 35
-41 -11 -45 -26 -2 -39 1 -43 12 -8 20 -34 21 -34 2 0 -22 40 -46 75 -46 47 0
77 26 73 63 -3 28 -9 34 -55 51 -38 13 -53 24 -53 37 0 14 7 19 30 19 18 0 33
-6 36 -15 9 -22 45 -20 37 3 -15 42 -78 56 -121 26z"/>
<path d="M415 7701 c-64 -16 -95 -45 -95 -90 0 -19 6 -21 70 -21 l70 0 0 39
c0 22 6 44 15 51 31 26 2 36 -60 21z"/>
<path d="M556 7675 c-43 -15 -56 -29 -56 -62 0 -22 3 -23 110 -23 110 0 110 0
110 24 0 32 -22 53 -68 66 -46 12 -48 12 -96 -5z"/>
<path d="M2486 6944 c-10 -25 1 -29 14 -5 6 12 7 21 1 21 -5 0 -12 -7 -15 -16z"/>
<path d="M1270 6850 c0 -60 4 -100 10 -100 6 0 10 40 10 100 0 60 -4 100 -10
100 -6 0 -10 -40 -10 -100z"/>
<path d="M1513 6943 c-7 -2 -13 -15 -13 -28 0 -14 -7 -25 -17 -28 -17 -4 -17
-5 0 -6 14 -1 17 -11 17 -66 0 -37 4 -65 10 -65 6 0 10 28 10 64 0 42 4 66 13
69 10 4 10 6 0 6 -18 1 -16 41 2 41 8 0 15 5 15 10 0 10 -16 12 -37 3z"/>
<path d="M2371 6934 c0 -11 3 -14 6 -6 3 7 2 16 -1 19 -3 4 -6 -2 -5 -13z"/>
<path d="M2930 6916 l0 -34 -43 5 c-51 6 -68 -9 -70 -61 -2 -59 56 -99 91 -64
10 10 15 10 22 -2 7 -10 10 19 10 88 0 56 -2 102 -5 102 -3 0 -5 -15 -5 -34z
m-14 -62 c13 -19 15 -32 8 -52 -8 -22 -16 -27 -44 -27 -28 0 -36 5 -44 27 -11
33 14 78 44 78 11 0 27 -12 36 -26z"/>
<path d="M3910 6935 c0 -8 5 -15 10 -15 6 0 10 7 10 15 0 8 -4 15 -10 15 -5 0
-10 -7 -10 -15z"/>
<path d="M1330 6820 c0 -40 4 -70 10 -70 6 0 10 21 10 46 0 54 14 84 38 84 30
0 42 -22 42 -77 0 -29 5 -53 10 -53 13 0 13 96 0 121 -12 22 -59 26 -78 7 -9
-9 -12 -9 -12 0 0 7 -4 12 -10 12 -6 0 -10 -30 -10 -70z"/>
<path d="M1593 6882 c-6 -4 -16 -20 -22 -35 -23 -59 34 -116 87 -87 60 34 47
123 -18 128 -19 1 -40 -1 -47 -6z m69 -19 c38 -34 13 -97 -37 -91 -40 4 -56
45 -31 82 19 30 42 33 68 9z"/>
<path d="M1730 6820 c0 -40 4 -70 10 -70 6 0 10 18 10 41 0 47 14 79 35 79 8
0 15 5 15 10 0 14 -23 13 -38 -2 -9 -9 -12 -9 -12 0 0 7 -4 12 -10 12 -6 0
-10 -30 -10 -70z"/>
<path d="M1832 6820 l1 -75 7 60 c4 33 3 67 -1 75 -5 9 -8 -17 -7 -60z"/>
<path d="M1855 6880 c-4 -7 2 -9 18 -5 32 8 40 -5 48 -75 l6 -55 2 48 c1 58
15 87 41 87 26 0 34 -15 41 -80 6 -54 7 -53 5 15 -1 69 -1 70 -29 73 -16 2
-34 -2 -42 -8 -9 -7 -15 -8 -20 0 -8 13 -62 13 -70 0z"/>
<path d="M2077 6884 c-4 -4 -7 -14 -7 -22 0 -13 3 -13 18 1 22 20 46 22 61 4
13 -17 -4 -37 -32 -37 -47 0 -73 -40 -45 -68 16 -16 50 -15 67 1 11 10 14 10
18 0 6 -15 33 -17 33 -3 0 6 -4 10 -10 10 -5 0 -10 26 -12 58 l-3 57 -40 3
c-23 2 -44 0 -48 -4z m77 -88 c-8 -20 -42 -36 -61 -29 -26 10 -14 42 20 51 37
11 51 3 41 -22z"/>
<path d="M2227 6872 c-38 -42 -7 -122 47 -122 24 0 56 23 56 41 0 14 -8 11
-31 -12 -18 -18 -23 -19 -42 -6 -25 16 -35 71 -16 93 15 19 44 18 64 -2 20
-20 33 -11 15 11 -17 21 -73 19 -93 -3z"/>
<path d="M2373 6820 c0 -41 2 -58 4 -37 2 20 2 54 0 75 -2 20 -4 3 -4 -38z"/>
<path d="M2436 6868 c-22 -31 -20 -60 5 -92 23 -29 54 -33 87 -10 27 18 31 84
6 108 -24 24 -80 20 -98 -6z m92 -20 c25 -53 -22 -103 -67 -71 -42 29 -16 108
33 101 11 -2 27 -15 34 -30z"/>
<path d="M2590 6823 c0 -86 18 -99 22 -17 3 60 20 83 52 71 12 -5 16 -20 16
-67 0 -35 4 -60 10 -60 7 0 10 25 8 68 -3 65 -4 67 -31 70 -16 2 -35 -2 -43
-9 -13 -10 -17 -10 -25 2 -6 9 -9 -11 -9 -58z"/>
<path d="M2996 6868 c-9 -12 -16 -32 -16 -44 0 -30 37 -74 64 -74 27 0 64 25
53 36 -4 5 -11 4 -15 -2 -13 -19 -40 -23 -61 -8 -39 28 -26 44 35 44 53 0 55
1 48 23 -11 36 -25 47 -60 47 -23 0 -38 -7 -48 -22z m78 -4 c26 -25 19 -34
-29 -34 -46 0 -58 13 -33 38 17 17 44 15 62 -4z"/>
<path d="M3222 6834 c-2 -75 13 -94 59 -77 16 6 29 7 29 2 0 -5 5 -9 10 -9 6
0 10 30 10 70 0 40 -4 70 -10 70 -5 0 -10 -20 -10 -44 0 -62 -7 -76 -41 -76
-31 0 -36 9 -42 85 -3 28 -4 22 -5 -21z"/>
<path d="M3377 6883 c-4 -3 -7 -16 -7 -29 0 -17 9 -25 42 -36 48 -15 58 -32
28 -48 -17 -9 -26 -8 -45 4 -33 22 -42 20 -20 -4 22 -24 68 -26 90 -4 25 26
14 48 -33 62 -30 10 -42 19 -42 33 0 22 38 27 58 7 13 -13 27 -5 17 11 -7 12
-78 15 -88 4z"/>
<path d="M3510 6839 c0 -28 5 -59 10 -70 12 -21 50 -25 68 -7 10 10 15 10 22
-2 7 -10 9 10 8 60 -1 74 -1 74 -7 21 -8 -60 -31 -87 -62 -70 -15 8 -19 21
-19 64 0 30 -4 55 -10 55 -5 0 -10 -23 -10 -51z"/>
<path d="M3682 6878 c-20 -20 -13 -32 7 -14 23 21 65 17 69 -6 2 -12 -5 -19
-25 -23 -56 -12 -74 -24 -71 -47 5 -32 32 -45 68 -31 17 6 32 7 36 2 3 -5 9
-9 13 -9 10 0 1 99 -11 123 -10 20 -67 24 -86 5z m58 -100 c-25 -21 -29 -21
-50 -8 -22 14 0 44 36 50 37 7 45 -17 14 -42z"/>
<path d="M3821 6820 l1 -75 9 50 c7 35 18 57 37 72 18 16 22 23 12 23 -9 0
-22 -6 -28 -12 -10 -10 -15 -10 -22 2 -7 10 -9 -9 -9 -60z"/>
<path d="M3910 6820 c0 -40 4 -70 10 -70 6 0 10 30 10 70 0 40 -4 70 -10 70
-6 0 -10 -30 -10 -70z"/>
<path d="M3986 6874 c-25 -24 -21 -90 6 -108 67 -47 140 33 92 102 -18 26 -74
30 -98 6z m78 -10 c37 -37 4 -109 -45 -97 -19 5 -36 45 -30 73 8 40 47 53 75
24z"/>
<path d="M4133 6874 c-9 -24 8 -45 47 -58 19 -6 36 -18 38 -27 4 -22 -31 -30
-62 -13 -27 13 -34 6 -14 -14 16 -16 60 -15 82 1 29 22 16 50 -32 67 -23 8
-42 20 -42 28 0 19 30 27 52 13 22 -13 34 -9 23 8 -11 18 -85 13 -92 -5z"/>
<path d="M400 6150 c0 -12 -9 -22 -24 -26 -13 -3 -27 -15 -30 -27 -10 -36 -6
-291 4 -307 8 -12 38 -15 169 -15 88 0 163 4 168 8 10 10 17 257 9 303 -5 23
-13 34 -31 38 -16 4 -25 13 -25 26 0 13 -7 20 -20 20 -13 0 -20 -7 -20 -20 0
-18 -7 -20 -80 -20 -73 0 -80 2 -80 20 0 13 -7 20 -20 20 -13 0 -20 -7 -20
-20z m260 -230 l0 -110 -140 0 -140 0 0 110 0 110 140 0 140 0 0 -110z"/>
<path d="M520 5900 l0 -50 50 0 50 0 0 50 0 50 -50 0 -50 0 0 -50z"/>
<path d="M1100 5930 c0 -93 1 -100 20 -100 17 0 20 7 20 41 l0 40 38 -3 c34
-3 38 -6 46 -40 13 -51 44 -54 38 -3 -2 19 -10 39 -18 46 -11 9 -11 13 1 26
22 21 18 60 -7 77 -14 10 -44 16 -80 16 l-58 0 0 -100z m118 38 c3 -27 1 -28
-37 -28 -39 0 -41 1 -41 31 0 29 2 30 38 27 32 -3 37 -7 40 -30z"/>
<path d="M1320 5930 l0 -100 75 0 c60 0 75 3 75 15 0 12 -13 15 -55 15 -54 0
-55 0 -55 30 0 29 1 30 50 30 38 0 50 4 50 15 0 11 -12 15 -50 15 -47 0 -50 2
-50 25 0 24 3 25 55 25 42 0 55 3 55 15 0 12 -15 15 -75 15 l-75 0 0 -100z"/>
<path d="M1547 6005 c-46 -46 -39 -133 13 -160 35 -18 71 -19 89 -2 11 10 14
10 18 0 11 -30 23 -9 23 37 l0 50 -35 0 c-19 0 -35 -4 -35 -10 0 -5 9 -10 20
-10 24 0 26 -13 4 -34 -22 -23 -60 -20 -78 6 -46 65 19 153 75 102 10 -9 26
-14 36 -12 16 3 15 7 -9 31 -36 36 -86 37 -121 2z"/>
<path d="M1750 5930 c0 -93 1 -100 20 -100 19 0 20 7 20 100 0 93 -1 100 -20
100 -19 0 -20 -7 -20 -100z"/>
<path d="M1872 6014 c-24 -17 -29 -56 -9 -72 7 -6 31 -17 53 -24 28 -9 39 -19
39 -33 0 -26 -62 -35 -71 -11 -6 16 -44 23 -44 9 2 -42 91 -68 135 -39 25 16
32 49 17 73 -4 6 -30 20 -57 30 -56 21 -66 46 -21 51 19 2 32 -2 38 -12 11
-20 38 -21 38 -2 0 20 -39 46 -70 46 -14 0 -36 -7 -48 -16z"/>
<path d="M2040 6016 c0 -9 12 -16 28 -18 27 -3 27 -4 30 -85 2 -64 6 -83 17
-83 11 0 15 19 17 83 3 81 3 82 31 85 15 2 27 9 27 18 0 11 -17 14 -75 14 -58
0 -75 -3 -75 -14z"/>
<path d="M2240 5930 c0 -93 1 -100 20 -100 17 0 20 7 20 41 l0 40 38 -3 c34
-3 38 -6 46 -40 13 -51 44 -54 38 -3 -2 19 -10 39 -18 46 -11 9 -11 13 1 26
22 21 18 60 -7 77 -14 10 -44 16 -80 16 l-58 0 0 -100z m118 38 c3 -27 1 -28
-37 -28 -39 0 -41 1 -41 31 0 29 2 30 38 27 32 -3 37 -7 40 -30z"/>
<path d="M2487 6005 c-46 -46 -39 -133 13 -160 75 -39 140 3 140 91 0 80 -98
124 -153 69z m97 -18 c13 -10 19 -27 19 -57 0 -30 -6 -47 -19 -57 -27 -20 -61
-16 -78 9 -46 66 17 150 78 105z"/>
<path d="M2710 6010 c-38 -38 -18 -73 50 -93 34 -10 45 -18 45 -32 0 -26 -56
-33 -75 -11 -16 20 -40 21 -40 1 0 -24 45 -47 86 -43 26 2 43 11 57 30 19 25
19 29 4 51 -10 15 -33 29 -62 36 -35 9 -46 16 -43 29 4 23 56 29 64 8 7 -17
44 -22 44 -6 0 23 -41 50 -75 50 -22 0 -43 -8 -55 -20z"/>
<path d="M3939 5158 c-12 -23 -12 -23 10 -4 23 21 26 26 11 26 -5 0 -15 -10
-21 -22z"/>
<path d="M1286 5145 c-21 -20 -26 -33 -26 -75 0 -41 5 -56 25 -75 40 -41 105
-33 131 16 18 36 3 38 -20 4 -12 -19 -25 -25 -51 -25 -41 0 -65 29 -65 80 0
51 24 80 65 80 24 0 39 -6 47 -20 15 -23 28 -26 28 -6 0 22 -40 46 -76 46 -19
0 -41 -9 -58 -25z"/>
<path d="M1850 5070 c0 -60 4 -100 10 -100 6 0 10 5 10 10 0 7 6 7 19 0 49
-26 91 3 91 61 0 55 -19 73 -68 66 l-42 -5 0 34 c0 19 -4 34 -10 34 -6 0 -10
-40 -10 -100z m108 -2 c19 -40 1 -78 -37 -78 -48 0 -68 55 -34 92 23 25 55 19
71 -14z"/>
<path d="M2020 5155 c0 -8 5 -15 10 -15 6 0 10 7 10 15 0 8 -4 15 -10 15 -5 0
-10 -7 -10 -15z"/>
<path d="M2997 5163 c-11 -11 -8 -193 3 -193 6 0 10 40 10 100 0 100 -1 106
-13 93z"/>
<path d="M3287 5163 c-11 -11 -8 -193 3 -193 6 0 10 40 10 100 0 100 -1 106
-13 93z"/>
<path d="M1470 5091 c-13 -25 -5 -27 17 -5 21 21 58 14 58 -11 0 -13 -9 -21
-31 -25 -44 -9 -54 -18 -54 -45 0 -30 42 -45 74 -25 14 9 21 10 24 1 2 -6 11
-11 19 -11 11 0 13 3 5 13 -6 7 -12 37 -14 67 l-3 55 -42 3 c-34 3 -44 -1 -53
-17z m80 -66 c0 -26 -32 -47 -57 -38 -26 10 -14 42 20 52 17 5 33 10 35 10 1
1 2 -10 2 -24z"/>
<path d="M1610 5040 c0 -40 4 -70 10 -70 6 0 10 22 10 48 0 55 18 86 46 80 16
-3 19 -13 22 -66 4 -77 20 -81 24 -6 3 60 20 83 52 71 12 -5 16 -20 16 -67 0
-35 4 -60 10 -60 7 0 10 25 8 68 -3 65 -4 67 -31 70 -16 2 -34 -2 -42 -8 -9
-7 -15 -8 -20 0 -9 14 -58 13 -73 -2 -9 -9 -12 -9 -12 0 0 7 -4 12 -10 12 -6
0 -10 -30 -10 -70z"/>
<path d="M2020 5040 c0 -40 4 -70 10 -70 6 0 10 30 10 70 0 40 -4 70 -10 70
-6 0 -10 -30 -10 -70z"/>
<path d="M2085 5076 c-8 -19 -12 -43 -8 -53 28 -81 127 -64 127 22 0 46 -19
65 -66 65 -35 0 -40 -3 -53 -34z m91 -2 c13 -19 15 -32 8 -52 -8 -22 -16 -27
-44 -27 -28 0 -36 5 -44 27 -11 33 14 78 44 78 11 0 27 -12 36 -26z"/>
<path d="M2247 5103 c-4 -3 -7 -16 -7 -29 0 -17 9 -25 42 -36 47 -15 58 -32
30 -47 -13 -7 -26 -6 -47 5 -33 17 -42 13 -20 -10 34 -33 111 -9 103 33 -2 9
-22 22 -46 29 -30 10 -42 19 -42 33 0 22 38 27 58 7 13 -13 27 -5 17 11 -7 12
-78 15 -88 4z"/>
<path d="M2466 5088 c-43 -62 14 -139 80 -109 24 11 33 31 14 31 -5 0 -10 -4
-10 -10 0 -14 -54 -12 -68 2 -26 26 -13 38 44 38 53 0 55 1 48 23 -11 36 -25
47 -60 47 -23 0 -38 -7 -48 -22z m78 -4 c26 -25 19 -34 -29 -34 -49 0 -50 1
-35 31 13 23 43 25 64 3z"/>
<path d="M2610 5041 c0 -84 18 -96 22 -15 3 60 20 83 52 71 12 -5 16 -20 16
-67 0 -35 4 -60 10 -60 7 0 10 25 8 68 -3 66 -4 67 -32 70 -16 2 -33 -1 -39
-7 -7 -7 -14 -7 -24 0 -11 9 -13 -2 -13 -60z"/>
<path d="M2856 5094 c-25 -24 -21 -90 6 -108 30 -22 61 -20 83 4 18 20 8 29
-12 9 -6 -6 -23 -9 -39 -7 -21 2 -30 9 -32 26 -3 20 0 22 47 22 43 0 51 3 51
18 0 44 -72 69 -104 36z m72 -6 c24 -24 13 -38 -28 -38 -26 0 -40 5 -40 13 0
18 21 37 40 37 9 0 21 -5 28 -12z"/>
<path d="M3140 5091 c-13 -25 -5 -27 17 -5 21 21 58 14 58 -11 0 -13 -9 -21
-31 -25 -44 -9 -54 -18 -54 -45 0 -30 42 -45 74 -25 14 9 21 10 24 1 2 -6 11
-11 19 -11 11 0 13 3 5 13 -6 7 -12 37 -14 67 l-3 55 -42 3 c-34 3 -44 -1 -53
-17z m80 -66 c0 -26 -32 -47 -57 -38 -26 10 -14 42 20 52 17 5 33 10 35 10 1
1 2 -10 2 -24z"/>
<path d="M3352 5040 l1 -75 7 60 c4 33 3 67 -1 75 -5 9 -8 -17 -7 -60z"/>
<path d="M3375 5100 c-4 -7 2 -9 18 -5 32 8 40 -5 48 -75 l6 -55 2 48 c1 58
15 87 41 87 26 0 34 -15 41 -80 6 -54 7 -53 5 15 -1 69 -1 70 -29 73 -16 2
-34 -2 -42 -8 -9 -7 -15 -8 -20 0 -8 13 -62 13 -70 0z"/>
<path d="M3590 5091 c-13 -25 -5 -27 17 -5 21 21 58 14 58 -11 0 -13 -9 -21
-31 -25 -44 -9 -54 -18 -54 -45 0 -30 42 -45 74 -25 14 9 21 10 24 1 2 -6 11
-11 19 -11 11 0 13 3 5 13 -6 7 -12 37 -14 67 l-3 55 -42 3 c-34 3 -44 -1 -53
-17z m80 -66 c0 -26 -32 -47 -57 -38 -26 10 -14 42 20 52 17 5 33 10 35 10 1
1 2 -10 2 -24z"/>
<path d="M3747 5092 c-38 -42 -7 -122 47 -122 24 0 56 23 56 41 0 14 -8 11
-31 -12 -18 -18 -23 -19 -42 -6 -25 16 -35 71 -16 93 15 19 44 18 64 -2 20
-20 33 -11 15 11 -17 21 -73 19 -93 -3z"/>
<path d="M3897 5092 c-38 -42 -7 -122 46 -122 27 0 65 25 54 36 -4 4 -13 2
-19 -4 -25 -25 -78 -8 -78 25 0 9 16 13 50 13 53 0 61 10 40 51 -14 25 -71 26
-93 1z m71 -4 c24 -24 13 -38 -28 -38 -26 0 -40 5 -40 13 0 18 21 37 40 37 9
0 21 -5 28 -12z"/>
<path d="M4042 5040 l1 -75 7 60 c5 33 4 67 -1 75 -5 9 -8 -13 -7 -60z"/>
<path d="M4064 5098 c-5 -8 -2 -9 11 -4 41 15 55 -2 55 -65 0 -33 4 -59 10
-59 14 0 12 114 -2 128 -15 15 -65 16 -74 0z"/>
<path d="M1286 4284 c-36 -37 -37 -114 -1 -149 44 -45 135 -23 135 33 0 13 -5
10 -23 -12 -46 -57 -117 -25 -117 54 0 72 70 111 111 61 20 -25 29 -27 29 -7
0 22 -40 46 -76 46 -20 0 -40 -9 -58 -26z"/>
<path d="M1850 4210 c0 -60 4 -100 10 -100 6 0 10 5 10 10 0 7 6 7 19 0 49
-26 91 3 91 63 0 50 -23 71 -72 64 -38 -5 -38 -5 -38 29 0 19 -4 34 -10 34 -6
0 -10 -40 -10 -100z m108 0 c21 -38 2 -80 -37 -80 -48 0 -68 55 -34 92 22 25
54 19 71 -12z"/>
<path d="M2020 4295 c0 -8 5 -15 10 -15 6 0 10 7 10 15 0 8 -4 15 -10 15 -5 0
-10 -7 -10 -15z"/>
<path d="M2760 4210 c0 -60 4 -100 10 -100 6 0 10 5 10 10 0 7 6 7 19 0 29
-15 49 -12 71 10 26 26 26 81 0 105 -14 13 -29 16 -55 12 -34 -6 -35 -5 -35
29 0 19 -4 34 -10 34 -6 0 -10 -40 -10 -100z m98 18 c13 -13 16 -67 4 -84 -24
-35 -82 -12 -82 32 0 54 45 85 78 52z"/>
<path d="M3600 4276 l0 -34 -43 5 c-51 6 -68 -9 -70 -61 -2 -59 56 -99 91 -64
10 10 15 10 22 -2 7 -10 10 19 10 88 0 56 -2 102 -5 102 -3 0 -5 -15 -5 -34z
m-14 -62 c13 -19 15 -32 8 -52 -8 -22 -16 -27 -44 -27 -28 0 -36 5 -44 27 -11
33 14 78 44 78 11 0 27 -12 36 -26z"/>
<path d="M1470 4231 c-6 -12 -7 -21 -1 -21 5 0 12 7 15 16 9 23 61 15 61 -11
0 -13 -9 -21 -31 -25 -44 -9 -54 -18 -54 -45 0 -30 42 -45 74 -25 14 9 21 10
24 1 2 -6 11 -11 19 -11 11 0 13 3 5 13 -6 7 -12 37 -14 67 l-3 55 -42 3 c-34
3 -44 -1 -53 -17z m80 -66 c0 -27 -32 -47 -58 -37 -25 9 -9 46 23 53 17 4 31
7 33 8 1 0 2 -10 2 -24z"/>
<path d="M1610 4180 c0 -40 4 -70 10 -70 6 0 10 22 10 48 0 55 18 86 46 80 16
-3 19 -13 22 -66 4 -77 20 -81 24 -6 3 60 20 83 52 71 12 -5 16 -20 16 -67 0
-35 4 -60 10 -60 7 0 10 25 8 68 -3 65 -4 67 -31 70 -16 2 -35 -3 -44 -10 -13
-10 -17 -10 -20 0 -6 15 -55 16 -71 0 -9 -9 -12 -9 -12 0 0 7 -4 12 -10 12 -6
0 -10 -30 -10 -70z"/>
<path d="M2020 4180 c0 -40 4 -70 10 -70 6 0 10 30 10 70 0 40 -4 70 -10 70
-6 0 -10 -30 -10 -70z"/>
<path d="M2103 4242 c-6 -4 -16 -20 -22 -35 -23 -59 34 -116 87 -87 60 34 47
123 -18 128 -19 1 -40 -1 -47 -6z m69 -19 c38 -34 13 -97 -37 -91 -40 4 -56
45 -31 82 19 30 42 33 68 9z"/>
<path d="M2247 4243 c-4 -3 -7 -16 -7 -29 0 -17 9 -25 42 -36 48 -15 58 -32
28 -48 -17 -9 -26 -8 -45 4 -33 22 -42 20 -20 -4 22 -24 68 -26 90 -4 25 26
14 48 -33 62 -30 10 -42 19 -42 33 0 22 38 27 58 7 13 -13 27 -5 17 11 -7 12
-78 15 -88 4z"/>
<path d="M2461 4236 c-18 -22 -2 -45 39 -56 45 -12 58 -35 29 -51 -16 -8 -26
-7 -46 6 -29 20 -47 10 -19 -11 24 -17 68 -18 84 -2 7 7 12 22 12 34 0 17 -9
25 -42 36 -26 8 -43 19 -43 28 0 18 43 26 58 11 17 -17 31 -13 17 4 -16 19
-74 20 -89 1z"/>
<path d="M2606 4228 c-22 -31 -20 -60 5 -92 23 -29 54 -33 87 -10 27 18 31 84
6 108 -24 24 -80 20 -98 -6z m92 -20 c25 -53 -22 -103 -67 -71 -42 29 -16 108
33 101 11 -2 27 -15 34 -30z"/>
<path d="M2932 4180 c1 -69 1 -71 7 -25 7 57 16 75 37 75 8 0 14 5 14 10 0 14
-13 13 -28 -2 -10 -10 -15 -10 -22 2 -7 10 -9 -10 -8 -60z"/>
<path d="M3026 4234 c-39 -38 -6 -124 47 -124 13 0 32 9 42 20 18 20 8 29 -12
9 -6 -6 -23 -9 -39 -7 -21 2 -30 9 -32 26 -3 20 0 22 47 22 43 0 51 3 51 18 0
44 -72 69 -104 36z m72 -6 c24 -24 13 -38 -28 -38 -26 0 -40 5 -40 13 0 18 21
37 40 37 9 0 21 -5 28 -12z"/>
<path d="M3256 4234 c-25 -24 -21 -90 6 -108 67 -47 140 33 92 102 -18 26 -74
30 -98 6z m78 -10 c37 -37 4 -109 -45 -97 -19 5 -36 45 -30 73 8 40 47 53 75
24z"/>
<path d="M3400 4180 c0 -40 4 -70 10 -70 6 0 10 18 10 41 0 47 14 79 35 79 8
0 15 5 15 10 0 14 -23 13 -38 -2 -9 -9 -12 -9 -12 0 0 7 -4 12 -10 12 -6 0
-10 -30 -10 -70z"/>
<path d="M3667 4232 c-10 -10 -17 -33 -17 -50 0 -59 66 -94 105 -56 22 22 11
30 -16 11 -30 -22 -68 -5 -69 31 0 8 17 12 50 12 53 0 61 10 40 51 -14 25 -71
26 -93 1z m71 -4 c24 -24 13 -38 -28 -38 -26 0 -40 5 -40 13 0 18 21 37 40 37
9 0 21 -5 28 -12z"/>
<path d="M3810 4183 c0 -86 18 -99 22 -17 3 60 20 83 52 71 12 -5 16 -20 16
-67 0 -35 4 -60 10 -60 7 0 10 25 8 68 -3 65 -4 67 -31 70 -16 2 -35 -2 -43
-9 -13 -10 -17 -10 -25 2 -6 9 -9 -11 -9 -58z"/>
<path d="M3976 4234 c-39 -38 -6 -124 47 -124 13 0 32 9 42 20 18 20 8 29 -12
9 -6 -6 -23 -9 -39 -7 -21 2 -30 9 -32 26 -3 20 0 22 47 22 43 0 51 3 51 18 0
44 -72 69 -104 36z m72 -6 c24 -24 13 -38 -28 -38 -26 0 -40 5 -40 13 0 18 21
37 40 37 9 0 21 -5 28 -12z"/>
<path d="M4113 4234 c-9 -24 8 -45 47 -58 19 -6 36 -18 38 -27 4 -22 -31 -30
-62 -13 -27 13 -34 6 -14 -14 16 -16 60 -15 82 1 29 22 16 50 -32 67 -23 8
-42 20 -42 28 0 19 30 27 52 13 22 -13 34 -9 23 8 -11 18 -85 13 -92 -5z"/>
<path d="M349 3464 c-10 -3 -20 -15 -23 -27 -9 -36 -7 -251 4 -267 8 -12 40
-15 189 -15 99 0 183 4 188 8 11 11 11 283 0 294 -9 8 -330 15 -358 7z m231
-134 l0 -40 -110 0 -110 0 0 40 0 40 110 0 110 0 0 -40z m100 -50 l0 -90 -40
0 -40 0 0 90 0 90 40 0 40 0 0 -90z m-100 -50 l0 -40 -110 0 -110 0 0 40 0 40
110 0 110 0 0 -40z"/>
<path d="M1090 3376 c0 -9 12 -16 28 -18 27 -3 27 -4 30 -85 2 -64 6 -83 17
-83 11 0 15 19 17 83 3 81 3 82 31 85 15 2 27 9 27 18 0 11 -17 14 -75 14 -58
0 -75 -3 -75 -14z"/>
<path d="M1290 3290 c0 -93 1 -100 20 -100 19 0 20 7 20 100 0 93 -1 100 -20
100 -19 0 -20 -7 -20 -100z"/>
<path d="M1390 3290 l0 -100 75 0 c60 0 75 3 75 15 0 12 -13 15 -55 15 -54 0
-55 0 -55 30 0 29 1 30 50 30 38 0 50 4 50 15 0 11 -12 15 -50 15 -47 0 -50 2
-50 25 0 24 3 25 55 25 42 0 55 3 55 15 0 12 -15 15 -75 15 l-75 0 0 -100z"/>
<path d="M1590 3290 c0 -93 1 -100 20 -100 17 0 19 8 22 68 l3 67 40 -67 c25
-42 47 -68 58 -68 15 0 17 11 17 100 0 81 -3 100 -15 100 -11 0 -15 -16 -17
-67 l-3 -68 -43 68 c-29 44 -50 67 -63 67 -17 0 -19 -8 -19 -100z"/>
<path d="M1820 3290 l0 -100 43 1 c70 2 91 11 111 53 16 33 17 43 7 78 -14 46
-54 68 -121 68 l-40 0 0 -100z m118 43 c33 -45 -4 -117 -56 -111 -25 3 -27 7
-30 57 -4 74 1 85 41 77 17 -3 38 -14 45 -23z"/>
<path d="M2096 3382 c-2 -4 -20 -49 -39 -100 -30 -80 -33 -92 -18 -92 10 0 23
11 29 25 10 20 19 25 51 25 33 0 40 -4 45 -25 4 -16 13 -25 26 -25 18 0 18 4
-11 83 -17 45 -34 90 -36 100 -5 17 -38 24 -47 9z m40 -90 c6 -30 4 -32 -20
-32 -29 0 -31 4 -15 49 13 37 26 31 35 -17z"/>
<path d="M2334 3373 c2 -10 14 -55 26 -100 18 -66 26 -83 41 -83 18 0 22 11
45 102 9 40 19 27 34 -42 11 -52 16 -61 33 -58 16 2 25 20 43 88 28 102 28
110 9 110 -14 0 -26 -33 -41 -109 -8 -41 -17 -28 -34 52 -10 44 -17 57 -31 57
-18 0 -22 -11 -45 -102 -9 -40 -19 -27 -34 42 -10 48 -17 60 -32 60 -14 0 -18
-5 -14 -17z"/>
<path d="M2630 3290 l0 -100 75 0 c60 0 75 3 75 15 0 12 -13 15 -55 15 -54 0
-55 0 -55 30 0 29 2 30 45 30 33 0 45 4 45 15 0 11 -12 15 -45 15 -41 0 -45 2
-45 25 0 23 3 25 50 25 38 0 50 4 50 15 0 12 -14 15 -70 15 l-70 0 0 -100z"/>
<path d="M2830 3290 l0 -100 53 0 c28 0 63 6 77 13 31 15 38 58 14 81 -12 13
-14 20 -5 29 6 6 11 21 11 34 0 29 -33 43 -101 43 l-49 0 0 -100z m108 43 c3
-20 -1 -23 -32 -23 -32 0 -36 3 -36 26 0 23 3 25 33 22 24 -2 33 -8 35 -25z
m7 -83 c0 -22 -5 -25 -37 -28 -36 -3 -38 -2 -38 28 0 30 2 31 38 28 32 -3 37
-6 37 -28z"/>
<path d="M477 2574 c-4 -4 -7 -18 -7 -30 0 -30 -33 -49 -60 -34 -25 13 -36 7
-56 -33 -16 -29 -16 -32 5 -48 11 -9 21 -27 21 -39 0 -12 -10 -30 -21 -39 -21
-17 -21 -18 -4 -52 10 -19 19 -35 20 -37 1 -1 14 2 29 8 36 13 64 -2 68 -37 3
-26 6 -28 48 -28 42 0 45 2 48 28 4 34 34 52 62 37 25 -13 36 -7 56 33 16 29
16 32 -5 48 -11 9 -21 27 -21 39 0 12 10 30 21 39 21 16 21 19 5 48 -20 40
-31 46 -56 33 -28 -15 -58 3 -62 37 -3 25 -8 28 -43 31 -23 2 -44 0 -48 -4z
m97 -134 c26 -25 25 -76 -2 -102 -45 -45 -125 -13 -125 51 0 70 75 100 127 51z"/>
<path d="M1127 2445 c-28 -29 -37 -67 -25 -113 9 -35 50 -62 93 -62 26 0 75
39 75 60 0 18 -35 11 -48 -10 -16 -27 -57 -26 -76 2 -46 65 19 153 75 102 10
-9 26 -14 36 -12 16 3 15 7 -9 31 -36 36 -86 37 -121 2z"/>
<path d="M1349 2441 c-23 -23 -29 -38 -29 -71 0 -111 146 -139 180 -35 34 103
-76 180 -151 106z m105 -23 c46 -66 -19 -153 -76 -101 -23 20 -24 80 -1 105
22 25 59 23 77 -4z"/>
<path d="M1570 2370 c0 -82 3 -100 15 -100 12 0 15 14 15 68 1 65 1 66 18 46
9 -12 29 -42 44 -68 18 -31 34 -46 48 -46 19 0 20 6 20 100 0 93 -1 100 -20
100 -17 0 -19 -8 -22 -67 l-3 -68 -42 68 c-61 97 -73 91 -73 -33z"/>
<path d="M1790 2370 c0 -93 1 -100 20 -100 17 0 20 7 20 45 l0 45 40 0 c22 0
40 5 40 10 0 6 -18 10 -40 10 -38 0 -40 2 -40 30 0 29 2 30 45 30 33 0 45 4
45 15 0 12 -14 15 -65 15 l-65 0 0 -100z"/>
<path d="M1970 2370 c0 -93 1 -100 20 -100 19 0 20 7 20 100 0 93 -1 100 -20
100 -19 0 -20 -7 -20 -100z"/>
<path d="M2099 2441 c-23 -23 -29 -38 -29 -71 0 -33 6 -48 29 -71 32 -31 77
-39 100 -16 11 10 14 10 18 0 3 -7 11 -13 19 -13 10 0 14 14 14 50 l0 50 -40
0 c-22 0 -40 -4 -40 -10 0 -5 9 -10 21 -10 14 0 19 -5 17 -16 -9 -47 -80 -42
-96 6 -14 37 2 87 29 95 22 7 59 -2 59 -16 0 -5 9 -9 20 -9 27 0 25 15 -6 39
-38 30 -80 27 -115 -8z"/>
<path d="M2302 2388 c4 -69 8 -84 28 -100 29 -23 81 -23 111 1 21 17 24 30 27
100 4 77 3 81 -17 81 -19 0 -21 -5 -21 -73 0 -77 -9 -97 -45 -97 -36 0 -45 20
-45 97 0 68 -2 73 -21 73 -21 0 -21 -4 -17 -82z"/>
<path d="M2530 2370 c0 -93 1 -100 20 -100 17 0 20 7 20 40 0 39 1 40 35 40
36 0 38 -3 49 -52 8 -37 36 -37 36 0 0 16 -6 37 -14 47 -11 16 -11 22 2 45 29
51 -7 80 -99 80 l-49 0 0 -100z m108 61 c8 -5 12 -17 10 -27 -2 -14 -13 -20
-41 -22 -35 -3 -37 -2 -37 27 0 27 3 31 28 31 15 0 33 -4 40 -9z"/>
<path d="M2770 2378 c-19 -50 -36 -96 -38 -100 -2 -4 6 -8 17 -8 14 0 23 8 27
25 5 21 12 25 45 25 33 0 41 -4 49 -25 6 -15 17 -25 29 -25 18 0 16 7 -18 98
-51 133 -64 134 -111 10z m80 -25 c0 -7 -11 -13 -25 -13 -28 0 -31 13 -14 57
l11 28 14 -30 c7 -16 13 -36 14 -42z"/>
<path d="M2993 2455 c-13 -9 -27 -33 -34 -53 -21 -72 23 -132 97 -132 25 0 74
40 74 60 0 18 -35 11 -48 -10 -16 -27 -57 -26 -76 2 -46 65 19 153 75 102 10
-9 26 -14 36 -12 16 3 15 7 -9 31 -31 31 -80 36 -115 12z"/>
<path d="M3190 2370 c0 -82 3 -100 15 -100 12 0 15 18 15 100 0 82 -3 100 -15
100 -12 0 -15 -18 -15 -100z"/>
<path d="M3309 2441 c-23 -23 -29 -38 -29 -71 0 -33 6 -48 29 -71 73 -72 179
2 150 105 -19 68 -99 88 -150 37z m105 -23 c43 -61 -13 -147 -71 -110 -22 14
-33 60 -22 89 18 48 67 59 93 21z"/>
<path d="M3520 2370 c0 -93 1 -100 20 -100 17 0 19 8 22 68 l3 67 40 -67 c25
-42 47 -68 58 -68 15 0 17 11 17 100 0 81 -3 100 -15 100 -11 0 -15 -16 -17
-67 l-3 -68 -43 68 c-29 44 -50 67 -63 67 -17 0 -19 -8 -19 -100z"/>
<path d="M3750 2370 l0 -100 70 0 c54 0 70 3 70 14 0 11 -15 16 -52 18 -49 3
-53 5 -53 28 0 23 4 25 48 28 33 2 47 7 47 18 0 10 -13 14 -51 14 -47 0 -50 2
-47 23 3 19 10 22 56 25 37 2 52 7 52 18 0 11 -16 14 -70 14 l-70 0 0 -100z"/>
<path d="M3960 2450 c-38 -38 -18 -73 50 -93 34 -10 45 -18 45 -32 0 -26 -56
-33 -75 -11 -16 20 -40 21 -40 1 0 -24 45 -47 86 -43 26 2 43 11 57 30 19 25
19 29 4 51 -10 15 -33 29 -62 36 -35 9 -46 16 -43 29 4 23 56 29 64 8 7 -17
44 -22 44 -6 0 23 -41 50 -75 50 -22 0 -43 -8 -55 -20z"/>
<path d="M1240 1560 c0 -5 16 -10 35 -10 l35 0 0 -90 c0 -53 4 -90 10 -90 6 0
10 37 10 90 l0 90 35 0 c19 0 35 5 35 10 0 6 -33 10 -80 10 -47 0 -80 -4 -80
-10z"/>
<path d="M1420 1555 c0 -8 5 -15 10 -15 6 0 10 7 10 15 0 8 -4 15 -10 15 -5 0
-10 -7 -10 -15z"/>
<path d="M2130 1537 c0 -32 -1 -32 -39 -29 -31 3 -42 0 -55 -19 -22 -31 -20
-61 5 -93 22 -27 57 -34 77 -14 9 9 12 9 12 0 0 -7 5 -12 10 -12 6 0 10 40 10
100 0 60 -4 100 -10 100 -5 0 -10 -15 -10 -33z m-12 -49 c7 -7 12 -29 12 -50
0 -31 -5 -40 -22 -47 -32 -13 -62 9 -66 46 -5 49 45 82 76 51z"/>
<path d="M1420 1440 c0 -40 4 -70 10 -70 6 0 10 30 10 70 0 40 -4 70 -10 70
-6 0 -10 -30 -10 -70z"/>
<path d="M1480 1413 c0 -55 4 -93 10 -93 6 0 10 16 10 35 0 32 2 35 19 25 49
-26 91 3 91 63 0 51 -21 67 -81 65 l-49 -2 0 -93z m108 57 c21 -38 2 -80 -37
-80 -48 0 -68 55 -34 92 22 25 54 19 71 -12z"/>
<path d="M1673 1502 c-6 -4 -16 -20 -22 -35 -23 -59 34 -116 87 -87 60 34 47
123 -18 128 -19 1 -40 -1 -47 -6z m69 -19 c38 -34 13 -97 -37 -91 -40 4 -56
45 -31 82 19 30 42 33 68 9z"/>
<path d="M1817 1503 c-4 -3 -7 -16 -7 -29 0 -17 9 -25 42 -36 48 -15 58 -32
28 -48 -17 -9 -26 -8 -45 4 -33 22 -42 20 -20 -4 22 -24 68 -26 90 -4 25 26
14 48 -33 62 -30 10 -42 19 -42 33 0 22 38 27 58 7 13 -13 27 -5 17 11 -7 12
-78 15 -88 4z"/>
<path d="M2206 1494 c-39 -38 -6 -124 47 -124 13 0 32 9 42 20 18 20 8 29 -12
9 -6 -6 -23 -9 -39 -7 -21 2 -30 9 -32 26 -3 20 0 22 47 22 43 0 51 3 51 18 0
44 -72 69 -104 36z m72 -6 c24 -24 13 -38 -28 -38 -26 0 -40 5 -40 13 0 18 21
37 40 37 9 0 21 -5 28 -12z"/>
<path d="M2420 1413 c0 -55 4 -93 10 -93 6 0 10 16 10 35 0 32 2 35 19 25 49
-26 91 3 91 63 0 51 -21 67 -81 65 l-49 -2 0 -93z m108 57 c21 -38 2 -80 -37
-80 -48 0 -68 55 -34 92 22 25 54 19 71 -12z"/>
<path d="M2602 1498 c-20 -20 -13 -32 7 -14 23 21 65 17 69 -6 2 -12 -5 -19
-25 -23 -56 -12 -74 -24 -71 -47 5 -32 32 -45 68 -31 17 6 32 7 36 2 3 -5 9
-9 13 -9 10 0 1 99 -11 123 -10 20 -67 24 -86 5z m58 -100 c-25 -21 -29 -21
-50 -8 -22 14 0 44 36 50 37 7 45 -17 14 -42z"/>
<path d="M2744 1485 c-35 -54 14 -133 66 -105 26 14 30 13 30 -8 0 -37 -51
-57 -78 -30 -6 6 -15 9 -19 5 -14 -14 15 -28 53 -25 29 2 42 9 51 28 15 30 17
160 3 160 -5 0 -10 -5 -10 -12 0 -9 -3 -9 -12 0 -21 21 -66 14 -84 -13z m88
-10 c18 -41 0 -80 -37 -80 -23 0 -32 6 -39 27 -22 63 49 112 76 53z"/>
<path d="M2923 1502 c-6 -4 -16 -20 -22 -35 -23 -59 34 -116 87 -87 60 34 47
123 -18 128 -19 1 -40 -1 -47 -6z m69 -19 c38 -34 13 -97 -37 -91 -40 4 -56
45 -31 82 19 30 42 33 68 9z"/>
<path d="M3067 1503 c-4 -3 -7 -16 -7 -29 0 -17 9 -25 42 -36 48 -15 58 -32
28 -48 -17 -9 -26 -8 -45 4 -33 22 -42 20 -20 -4 22 -24 68 -26 90 -4 25 26
14 48 -33 62 -30 10 -42 19 -42 33 0 22 38 27 58 7 13 -13 27 -5 17 11 -7 12
-78 15 -88 4z"/>
<path d="M1299 677 c-25 -19 -39 -53 -39 -95 0 -71 70 -114 132 -81 16 9 23 8
29 -2 6 -9 9 5 9 39 l0 52 -42 -2 c-37 -1 -39 -2 -10 -5 23 -3 32 -9 32 -23 0
-52 -76 -71 -112 -28 -24 27 -23 89 0 118 25 31 79 30 103 -2 10 -12 21 -20
24 -16 4 4 -4 18 -18 32 -29 28 -80 35 -108 13z"/>
<path d="M1850 675 c0 -8 5 -15 10 -15 6 0 10 7 10 15 0 8 -4 15 -10 15 -5 0
-10 -7 -10 -15z"/>
<path d="M2560 590 c0 -60 4 -100 10 -100 6 0 10 20 10 45 l0 45 50 0 c45 0
52 3 61 26 20 54 -12 84 -92 84 l-39 0 0 -100z m108 68 c29 -29 -2 -68 -54
-68 -33 0 -34 1 -34 40 0 40 0 40 38 40 21 0 43 -5 50 -12z"/>
<path d="M2741 674 c0 -11 3 -14 6 -6 3 7 2 16 -1 19 -3 4 -6 -2 -5 -13z"/>
<path d="M2953 590 c-1 -104 0 -110 11 -57 9 37 30 34 56 -8 12 -19 26 -35 31
-35 14 0 11 7 -18 50 l-26 41 23 24 c34 36 12 31 -27 -7 -37 -36 -40 -32 -46
47 -2 28 -4 3 -4 -55z"/>
<path d="M1770 651 c0 -11 -6 -22 -12 -24 -10 -4 -10 -6 0 -6 8 -1 12 -19 12
-54 0 -29 5 -58 12 -65 15 -15 38 -16 38 -2 0 6 -7 10 -15 10 -24 0 -21 107 3
113 16 4 16 5 0 6 -11 1 -18 9 -18 21 0 11 -4 20 -10 20 -5 0 -10 -9 -10 -19z"/>
<path d="M1486 614 c-39 -38 -6 -124 47 -124 13 0 32 9 42 20 18 20 8 29 -12
9 -6 -6 -23 -9 -39 -7 -21 2 -30 9 -32 26 -3 20 0 22 47 22 43 0 51 3 51 18 0
44 -72 69 -104 36z m72 -6 c24 -24 13 -38 -28 -38 -26 0 -40 5 -40 13 0 18 21
37 40 37 9 0 21 -5 28 -12z"/>
<path d="M1623 614 c-9 -24 8 -45 47 -58 19 -6 36 -18 38 -27 4 -22 -31 -30
-62 -13 -27 13 -34 6 -14 -14 16 -16 60 -15 82 1 29 22 16 50 -32 67 -23 8
-42 20 -42 28 0 19 30 27 52 13 22 -13 34 -9 23 8 -11 18 -85 13 -92 -5z"/>
<path d="M1850 560 c0 -40 4 -70 10 -70 6 0 10 30 10 70 0 40 -4 70 -10 70 -6
0 -10 -30 -10 -70z"/>
<path d="M1926 614 c-25 -24 -21 -90 6 -108 67 -47 140 33 92 102 -18 26 -74
30 -98 6z m78 -10 c37 -37 4 -109 -45 -97 -19 5 -36 45 -30 73 8 40 47 53 75
24z"/>
<path d="M2082 560 l1 -75 7 60 c5 33 4 67 -1 75 -5 9 -8 -13 -7 -60z"/>
<path d="M2104 618 c-5 -8 -2 -9 11 -4 41 15 55 -2 55 -65 0 -33 4 -59 10 -59
14 0 12 114 -2 128 -15 15 -65 16 -74 0z"/>
<path d="M2240 615 c-7 -9 -10 -19 -6 -23 4 -4 12 1 17 11 12 21 58 22 66 1 7
-19 -13 -34 -44 -34 -12 0 -29 -10 -37 -22 -29 -41 15 -74 64 -48 13 7 21 7
25 0 14 -23 22 -7 18 38 -8 90 -9 92 -52 92 -22 0 -44 -6 -51 -15z m77 -89
c-8 -20 -44 -26 -64 -11 -14 11 -15 15 -4 28 28 35 82 21 68 -17z"/>
<path d="M2380 560 c0 -40 4 -70 10 -70 6 0 10 22 10 49 0 42 4 52 28 70 18
13 22 20 12 21 -9 0 -21 -5 -28 -12 -9 -9 -12 -9 -12 0 0 7 -4 12 -10 12 -6 0
-10 -30 -10 -70z"/>
<path d="M2743 560 c0 -41 2 -58 4 -37 2 20 2 54 0 75 -2 20 -4 3 -4 -38z"/>
<path d="M2807 612 c-38 -42 -7 -122 47 -122 24 0 56 23 56 41 0 14 -8 11 -31
-12 -18 -18 -23 -19 -42 -6 -25 16 -35 71 -16 93 15 19 44 18 64 -2 20 -20 33
-11 15 11 -17 21 -73 19 -93 -3z"/>
<path d="M3113 622 c-6 -4 -17 -20 -22 -36 -13 -31 1 -71 31 -90 21 -13 69 2
76 24 4 12 2 13 -9 3 -20 -20 -67 -16 -79 6 -15 30 -14 31 45 31 60 0 67 9 39
48 -15 22 -57 29 -81 14z m65 -14 c25 -25 13 -38 -33 -38 -48 0 -55 9 -29 34
18 19 45 21 62 4z"/>
<path d="M3240 560 c0 -40 4 -70 10 -70 6 0 10 22 10 49 0 42 4 52 28 70 18
13 22 20 12 21 -9 0 -21 -5 -28 -12 -9 -9 -12 -9 -12 0 0 7 -4 12 -10 12 -6 0
-10 -30 -10 -70z"/>
<path d="M3341 616 c-20 -24 -6 -44 38 -57 28 -8 41 -18 41 -30 0 -30 -53 -34
-72 -5 -4 6 -11 7 -15 2 -10 -10 25 -36 50 -36 29 0 57 19 57 38 0 22 -19 42
-40 42 -9 0 -25 6 -36 14 -15 12 -17 17 -6 27 10 10 19 11 43 2 23 -9 29 -9
26 0 -6 19 -72 21 -86 3z"/>
</g>
</svg>
