<?xml version="1.0" standalone="no"?>
<!DOCTYPE svg PUBLIC "-//W3C//DTD SVG 20010904//EN"
 "http://www.w3.org/TR/2001/REC-SVG-20010904/DTD/svg10.dtd">
<svg version="1.0" xmlns="http://www.w3.org/2000/svg"
 width="800.000000pt" height="400.000000pt" viewBox="0 0 800.000000 400.000000"
 preserveAspectRatio="xMidYMid meet">

<g transform="translate(0.000000,400.000000) scale(0.100000,-0.100000)"
fill="#000000" stroke="none">
<path d="M811 3957 c-36 -74 -22 -170 30 -197 30 -17 154 -2 184 22 20 16 25
28 25 67 0 54 -43 151 -67 151 -12 0 -12 -2 2 -16 36 -37 63 -123 50 -163 -9
-29 -33 -40 -107 -50 -70 -9 -96 0 -116 45 -18 37 -15 78 9 127 18 37 26 44
51 45 46 1 47 12 1 12 -39 0 -43 -3 -62 -43z"/>
<path d="M1200 3963 c-54 -61 -80 -128 -80 -206 0 -79 15 -119 63 -165 l32
-31 135 -3 c196 -4 221 14 228 169 3 65 -1 96 -18 148 -23 68 -62 125 -86 125
-20 0 -18 -8 15 -45 45 -51 75 -153 69 -236 -6 -76 -25 -114 -66 -130 -15 -6
-78 -9 -142 -7 -134 4 -160 15 -191 81 -39 88 -17 195 59 286 27 33 32 35 88
33 32 -1 75 2 94 7 28 7 14 9 -66 10 l-102 1 -32 -37z"/>
<path d="M1976 3990 c7 -6 56 -27 109 -45 54 -19 103 -39 108 -44 19 -19 31
-12 13 8 -9 10 -45 26 -79 36 -34 9 -73 23 -87 30 -14 7 -36 16 -50 20 -19 6
-22 5 -14 -5z"/>
<path d="M2352 3976 c-34 -25 -79 -82 -106 -134 -19 -36 -21 -152 -5 -222 5
-24 37 -101 71 -170 69 -144 81 -200 76 -360 -3 -113 4 -134 50 -159 61 -32
218 3 265 58 22 27 24 39 30 197 3 93 11 185 18 204 7 19 42 73 77 120 88 115
103 152 103 250 0 102 -16 154 -62 202 -28 30 -43 38 -70 38 l-34 -1 30 -16
c78 -41 109 -103 108 -222 0 -90 -20 -135 -110 -248 -67 -83 -72 -95 -84 -203
-10 -84 -18 -100 -53 -100 -17 0 -18 7 -14 83 9 140 67 345 119 418 14 20 19
41 17 66 -3 35 -5 38 -32 36 -17 -1 -36 2 -42 8 -7 6 -18 8 -23 5 -6 -4 -19
-1 -30 6 -16 10 -23 9 -38 -3 -12 -11 -34 -15 -68 -14 -34 2 -56 -2 -68 -13
-13 -12 -20 -13 -29 -4 -17 17 -43 15 -62 -6 -20 -23 -46 -119 -46 -171 0 -62
69 -239 89 -227 5 3 9 -4 9 -17 0 -12 9 -44 21 -70 12 -27 21 -62 21 -79 0
-28 -2 -30 -27 -23 -37 9 -35 6 -44 75 -6 40 -27 96 -64 172 -73 148 -88 201
-84 297 4 74 6 80 47 135 24 32 65 71 90 87 45 29 46 29 16 29 -17 0 -45 -11
-62 -24z m295 -215 c2 -3 11 5 19 18 15 21 17 21 34 6 12 -11 20 -13 25 -6 11
19 25 12 25 -12 0 -12 -11 -39 -24 -58 -44 -64 -99 -260 -112 -395 -3 -38 -7
-78 -8 -89 -2 -16 -12 -21 -49 -23 -44 -3 -47 -1 -47 21 0 30 -39 147 -55 167
-42 50 -84 177 -85 253 0 86 39 164 62 123 13 -22 34 -20 52 6 16 22 16 22 31
3 14 -19 16 -19 29 -2 17 22 26 22 26 -3 0 -28 16 -25 36 6 16 24 18 24 27 7
6 -10 12 -20 14 -22z m53 -636 c0 -48 -4 -65 -14 -65 -7 0 -39 -24 -70 -54
-37 -36 -66 -55 -84 -56 -44 -3 -48 -1 -22 17 73 48 170 127 168 135 -5 15
-20 9 -72 -30 -28 -21 -75 -54 -105 -75 -52 -37 -55 -37 -72 -20 -14 14 -17
28 -12 62 6 40 9 45 52 64 25 11 65 33 87 49 28 20 51 28 69 26 27 -3 26 -5
-31 -44 -32 -23 -83 -54 -113 -68 -35 -19 -50 -31 -43 -38 20 -20 242 114 242
147 0 8 5 15 10 15 6 0 10 -28 10 -65z m-182 39 c5 -4 -75 -44 -88 -44 -5 0
-10 13 -10 30 0 30 0 30 48 23 26 -3 49 -7 50 -9z m153 -165 c-13 -10 -28 -19
-35 -19 -6 0 3 11 19 24 17 13 32 22 35 19 3 -2 -6 -13 -19 -24z"/>
<path d="M2995 3970 c-16 -16 -26 -32 -24 -34 5 -5 69 51 69 60 0 12 -19 1
-45 -26z"/>
<path d="M5600 3977 c0 -19 8 -26 40 -36 47 -14 98 -55 112 -90 6 -14 13 -62
17 -106 l6 -80 39 2 c22 2 41 5 44 8 3 3 1 57 -4 120 -9 104 -13 118 -41 157
-18 26 -40 44 -54 46 l-24 4 26 -29 c41 -44 62 -93 66 -158 9 -120 9 -120 -9
-123 -15 -3 -18 4 -19 35 -4 134 -42 201 -134 234 -19 7 -35 19 -35 26 0 7 -7
13 -15 13 -9 0 -15 -9 -15 -23z"/>
<path d="M5867 3963 c12 -27 18 -74 20 -162 1 -69 7 -129 12 -134 15 -15 89 2
96 22 6 20 -12 289 -21 302 -3 5 -11 9 -19 9 -11 0 -12 -7 -4 -32 5 -18 12
-87 16 -153 l6 -120 -27 -3 c-23 -2 -26 2 -27 31 -3 177 -7 214 -23 245 -9 17
-23 32 -31 32 -12 0 -11 -6 2 -37z"/>
<path d="M6337 3983 c11 -9 39 -13 77 -11 91 5 79 23 -15 23 -70 1 -78 -1 -62
-12z"/>
<path d="M878 3945 c-16 -21 -16 -25 -3 -39 8 -8 18 -29 21 -46 6 -25 4 -29
-10 -24 -11 4 -15 2 -11 -8 7 -18 45 -42 45 -27 0 5 4 8 10 4 14 -9 50 17 50
37 0 9 -11 30 -25 46 -18 22 -21 32 -13 40 9 9 9 15 0 24 -20 20 -46 18 -64
-7z m82 -101 c0 -8 -4 -14 -10 -14 -5 0 -10 9 -10 21 0 11 5 17 10 14 6 -3 10
-13 10 -21z"/>
<path d="M4599 3945 c-25 -7 -66 -24 -89 -38 l-44 -26 -27 20 c-49 34 -108 49
-199 49 -131 0 -257 -47 -337 -127 -23 -22 -56 -44 -74 -48 -20 -5 -56 -30
-96 -69 -62 -61 -63 -62 -63 -118 0 -42 6 -64 25 -92 17 -24 25 -51 25 -78 0
-111 116 -171 320 -167 l85 2 14 -36 c20 -53 67 -69 222 -75 109 -4 135 -2
191 16 100 33 157 59 182 87 l23 25 105 -11 c161 -16 267 14 332 95 29 35 31
43 31 117 -1 45 -6 84 -12 90 -9 9 -8 16 4 27 38 39 -9 189 -75 240 -30 23
-47 28 -114 31 -73 3 -80 5 -98 31 -44 61 -210 89 -331 55z m243 -31 c25 -8
54 -24 63 -34 16 -17 15 -20 -4 -47 -25 -33 -32 -84 -13 -90 7 -3 12 4 12 19
0 13 7 34 16 46 13 19 24 22 92 22 98 0 133 -19 167 -93 30 -63 32 -117 6
-141 -17 -16 -18 -20 -5 -46 8 -16 17 -50 20 -77 9 -91 -55 -158 -175 -182
-31 -6 -69 -9 -86 -7 -16 2 -63 7 -102 11 -74 8 -82 12 -61 33 6 6 9 15 5 19
-12 11 -57 -39 -57 -63 0 -30 -44 -56 -155 -89 -84 -26 -98 -27 -213 -22 -68
4 -135 12 -150 19 -30 15 -55 69 -34 75 6 3 12 8 12 13 0 4 -51 5 -113 2 -221
-9 -329 42 -314 150 7 49 32 78 69 78 15 0 28 5 28 10 0 18 -67 11 -93 -10
l-25 -20 -16 25 c-9 14 -16 45 -16 73 0 43 4 52 43 88 43 42 86 74 99 74 4 0
8 -14 10 -32 2 -17 9 -33 16 -36 9 -3 11 3 7 20 -14 54 55 126 173 181 59 28
79 32 173 35 91 4 112 1 156 -18 59 -25 90 -54 95 -89 1 -14 9 -27 17 -29 11
-4 13 4 8 38 -5 40 -4 43 31 63 20 12 55 27 77 33 61 17 185 16 237 -2z"/>
<path d="M1333 3931 c-3 -11 -16 -22 -29 -25 -35 -9 -44 -54 -16 -77 18 -14
22 -28 22 -73 0 -55 -1 -56 -25 -50 -32 8 -33 -9 -2 -33 13 -10 26 -26 30 -35
8 -23 27 -23 27 -2 0 12 3 14 13 6 17 -15 85 15 93 40 8 28 -4 72 -32 109 -31
42 -33 83 -4 74 24 -8 29 22 5 31 -8 4 -15 15 -15 25 0 22 -11 24 -28 7 -9 -9
-12 -8 -12 5 0 23 -21 22 -27 -2z m-13 -66 c0 -8 -4 -15 -10 -15 -5 0 -10 7
-10 15 0 8 5 15 10 15 6 0 10 -7 10 -15z m37 -17 c-3 -7 -5 -2 -5 12 0 14 2
19 5 13 2 -7 2 -19 0 -25z m-10 -140 c-2 -18 -4 -4 -4 32 0 36 2 50 4 33 2
-18 2 -48 0 -65z m66 11 c2 -24 -3 -34 -15 -37 -15 -3 -18 4 -18 49 0 49 1 52
16 37 9 -8 17 -31 17 -49z"/>
<path d="M6405 3931 l-69 -6 -3 -66 c-3 -76 0 -79 88 -79 69 0 81 13 77 89 -2
36 -7 65 -13 66 -5 1 -41 -1 -80 -4z m67 -35 c7 -21 3 -86 -4 -86 -5 0 -30 0
-58 0 l-50 0 0 48 0 47 55 1 c31 0 56 -4 57 -10z"/>
<path d="M5597 3894 c-4 -4 -7 -23 -7 -43 0 -26 8 -44 31 -68 20 -19 34 -47
38 -70 6 -36 9 -38 41 -38 l35 0 3 55 c3 62 -18 113 -58 141 -30 21 -73 33
-83 23z m84 -60 c29 -31 41 -134 16 -134 -11 0 -15 9 -15 30 1 22 -8 41 -30
63 -37 38 -44 78 -13 70 11 -3 29 -16 42 -29z"/>
<path d="M355 3881 c-6 -6 -29 -11 -62 -14 -27 -2 -29 -14 -8 -37 13 -14 12
-21 -6 -57 -17 -35 -19 -47 -9 -82 6 -23 20 -46 32 -52 27 -15 117 -3 140 18
34 31 14 121 -35 159 -18 15 -24 27 -20 45 3 19 0 26 -11 26 -9 0 -18 -3 -21
-6z m13 -40 c-4 -19 -46 -27 -60 -13 -16 16 -3 27 32 28 23 1 30 -3 28 -15z
m62 -72 c40 -77 22 -112 -60 -123 -66 -9 -90 9 -90 65 0 60 16 84 63 95 55 13
64 9 87 -37z"/>
<path d="M332 3778 c-14 -14 -16 -38 -3 -38 12 0 21 -39 10 -46 -5 -3 -2 -12
6 -21 14 -13 18 -13 40 1 30 20 31 26 4 60 -12 15 -16 26 -9 26 10 0 9 4 0 15
-15 18 -32 19 -48 3z m55 -80 c-3 -8 -6 -5 -6 6 -1 11 2 17 5 13 3 -3 4 -12 1
-19z"/>
<path d="M6590 3873 c0 -4 4 -12 8 -18 8 -11 402 -15 402 -4 0 11 -123 19
-250 18 -63 -1 -125 1 -137 5 -13 4 -23 4 -23 -1z"/>
<path d="M560 3795 c0 -2 8 -20 17 -40 16 -34 16 -35 -9 -63 -63 -68 -76 -137
-39 -198 18 -30 24 -32 99 -39 52 -4 87 -3 100 4 50 27 53 153 6 224 -22 33
-24 43 -15 64 6 13 11 27 11 31 0 11 -39 12 -45 1 -10 -15 -25 -10 -25 9 0 14
-2 14 -9 3 -7 -11 -13 -12 -23 -3 -10 8 -18 8 -25 1 -8 -8 -13 -8 -17 0 -7 11
-26 15 -26 6z m125 -39 c28 3 32 -8 10 -29 -31 -31 -122 6 -92 37 9 10 16 10
34 1 13 -7 34 -11 48 -9z m32 -71 c19 -6 45 -109 38 -149 -12 -61 -25 -70 -96
-68 -78 2 -113 15 -128 48 -22 49 -7 109 40 160 16 17 28 20 77 17 31 -3 62
-6 69 -8z"/>
<path d="M640 3673 c0 -6 -9 -15 -20 -18 -22 -7 -27 -34 -9 -52 14 -14 7 -59
-9 -55 -15 3 -15 -8 1 -30 15 -19 33 -23 65 -13 26 9 30 49 7 82 -14 20 -14
23 1 31 16 9 16 11 0 33 -9 13 -16 19 -16 14 0 -6 -5 -3 -10 5 -6 9 -10 10
-10 3z m35 -143 c-12 -19 -22 -10 -17 16 4 22 6 24 14 10 5 -9 6 -21 3 -26z"/>
<path d="M3068 3783 c-32 -2 -58 -7 -58 -12 0 -9 160 -2 210 9 29 7 24 8 -30
7 -36 0 -91 -2 -122 -4z"/>
<path d="M1998 3753 c-33 -2 -58 -9 -58 -15 0 -7 16 -9 46 -4 26 3 75 6 110 6
36 0 64 4 64 10 0 10 -40 10 -162 3z"/>
<path d="M6408 3743 l-78 -4 0 -69 c0 -81 3 -83 110 -78 l65 3 0 60 c1 65 -4
96 -14 93 -3 -1 -41 -4 -83 -5z m72 -75 l0 -48 -65 0 -65 0 0 51 0 50 65 -2
65 -2 0 -49z"/>
<path d="M6620 3680 c0 -17 41 -28 106 -29 32 0 66 -2 74 -3 8 -2 41 1 73 5
49 7 62 6 77 -8 11 -10 26 -15 35 -12 21 9 19 27 -3 27 -10 0 -22 3 -26 8 -4
4 -71 8 -148 9 -78 1 -152 4 -165 8 -13 3 -23 1 -23 -5z"/>
<path d="M2980 3651 c0 -5 24 -19 53 -31 28 -12 85 -38 125 -58 40 -19 75 -32
79 -29 5 5 -238 127 -253 127 -2 0 -4 -4 -4 -9z"/>
<path d="M2045 3564 c-38 -35 -65 -64 -60 -64 14 0 141 116 135 123 -3 3 -36
-24 -75 -59z"/>
<path d="M2946 3503 c16 -26 31 -44 117 -136 15 -17 30 -27 33 -24 6 5 -154
187 -164 187 -2 0 4 -12 14 -27z"/>
<path d="M2170 3497 c-14 -12 -41 -35 -59 -50 -18 -15 -31 -30 -28 -33 6 -6
120 82 125 97 6 16 -12 9 -38 -14z"/>
<path d="M1117 3440 c-37 -4 -73 -12 -80 -19 -9 -10 -6 -10 16 -2 15 6 73 12
129 13 57 1 91 5 77 9 -29 8 -53 8 -142 -1z"/>
<path d="M1335 3401 c47 -27 87 -61 71 -61 -3 0 -30 16 -59 35 -64 43 -122 52
-226 36 -72 -11 -116 -33 -195 -98 -39 -32 -46 -20 -11 17 16 17 24 30 19 30
-12 0 -76 -84 -102 -136 -68 -135 -67 -284 3 -388 22 -32 23 -37 8 -43 -9 -4
-21 0 -27 9 -10 13 -35 -7 -161 -132 -83 -81 -219 -220 -303 -308 -170 -178
-165 -167 -96 -225 l31 -26 173 189 c218 239 414 420 447 412 6 -1 10 5 8 15
-4 29 4 34 35 18 40 -21 161 -45 218 -44 136 2 273 109 319 249 22 67 24 223
5 291 -18 59 -82 133 -143 164 -66 34 -75 31 -14 -4z m3 -34 c99 -61 153 -198
131 -338 -6 -39 -9 -73 -6 -75 2 -3 10 29 16 71 13 88 -1 169 -44 258 -13 28
-23 53 -21 55 9 8 57 -63 68 -101 25 -85 8 -321 -21 -302 -11 6 -23 -23 -15
-36 10 -16 -58 -98 -108 -130 -81 -52 -197 -74 -253 -48 -14 6 2 8 50 5 47 -3
60 -2 40 3 -16 5 -59 9 -95 10 -82 2 -135 25 -183 81 -63 74 -81 122 -81 220
1 75 0 80 -8 40 -16 -83 7 -173 63 -243 39 -49 32 -59 -9 -13 -40 46 -72 134
-72 200 0 55 17 119 29 112 4 -3 13 16 19 40 22 82 159 198 260 221 94 21 174
11 240 -30z m-443 -587 c16 -17 16 -20 2 -26 -8 -3 -25 0 -37 6 -17 9 -19 14
-9 26 15 19 22 18 44 -6z m-78 -3 c4 -7 20 -22 36 -34 l27 -21 -77 -65 c-100
-82 -183 -165 -368 -366 -81 -88 -151 -161 -155 -161 -12 0 -62 58 -59 68 11
28 564 592 581 592 4 0 11 -6 15 -13z"/>
<path d="M1115 3355 c-71 -19 -118 -40 -137 -62 -17 -19 -16 -19 60 -5 42 7
95 22 117 32 22 11 56 26 75 34 l35 15 -50 0 c-27 0 -72 -6 -100 -14z m44 -20
c-25 -13 -70 -26 -100 -30 l-54 -5 45 21 c42 19 104 36 140 37 8 1 -6 -10 -31
-23z"/>
<path d="M1412 2870 c-24 -32 -93 -82 -162 -117 -25 -13 -39 -23 -32 -23 33 0
181 97 206 135 24 37 14 41 -12 5z"/>
<path d="M1105 2857 c-11 -6 -38 -14 -60 -17 l-40 -5 28 -19 c20 -14 53 -21
106 -24 64 -4 86 -1 128 18 28 12 58 29 66 38 14 16 7 17 -97 19 -66 1 -120
-3 -131 -10z m203 -12 c1 -1 -14 -11 -35 -21 -48 -23 -150 -30 -198 -14 l-38
13 49 17 c38 13 69 16 134 12 47 -3 86 -6 88 -7z"/>
<path d="M978 3388 c-13 -13 -17 -18 -8 -12 8 6 24 16 35 22 11 6 15 12 8 12
-7 0 -22 -10 -35 -22z"/>
<path d="M6315 3344 c-26 -10 -55 -13 -82 -9 -50 7 -56 -6 -23 -47 l19 -25
-42 -31 c-23 -17 -91 -79 -152 -137 l-110 -105 -9 27 c-5 16 -10 30 -12 32 -2
2 -65 -59 -140 -137 -75 -78 -144 -142 -153 -142 -19 0 -131 -69 -168 -103
-22 -20 -23 -20 -43 -2 -15 13 -25 16 -40 9 -27 -12 -220 -168 -215 -173 3 -2
30 16 60 40 167 131 167 131 185 114 21 -19 44 -19 61 1 23 28 148 104 162 98
9 -3 67 50 151 137 75 78 136 135 136 127 0 -8 6 -22 13 -31 11 -15 20 -9 92
60 105 101 196 183 217 194 13 7 20 4 27 -10 6 -10 7 -21 4 -25 -3 -3 1 -6 10
-6 10 0 17 8 17 18 0 10 13 33 30 52 31 37 36 50 20 50 -5 0 -22 -19 -36 -42
-24 -38 -27 -40 -36 -22 -6 10 -20 27 -32 36 -11 9 -19 19 -16 21 3 3 34 7 70
9 67 4 90 12 90 29 0 12 -6 11 -55 -7z"/>
<path d="M6648 3323 c7 -3 16 -2 19 1 4 3 -2 6 -13 5 -11 0 -14 -3 -6 -6z"/>
<path d="M7210 3320 c0 -5 5 -10 10 -10 6 0 10 5 10 10 0 6 -4 10 -10 10 -5 0
-10 -4 -10 -10z"/>
<path d="M6600 3310 c0 -5 5 -10 10 -10 6 0 10 5 10 10 0 6 -4 10 -10 10 -5 0
-10 -4 -10 -10z"/>
<path d="M6795 3280 c-10 -11 -14 -20 -9 -20 5 0 15 9 22 20 7 11 11 20 9 20
-2 0 -12 -9 -22 -20z"/>
<path d="M6910 3226 c0 -8 -6 -17 -12 -19 -8 -3 -6 -6 5 -6 11 -1 17 6 17 19
0 11 -2 20 -5 20 -3 0 -5 -6 -5 -14z"/>
<path d="M7517 3233 c-4 -3 -7 -11 -7 -17 0 -6 5 -5 12 2 6 6 9 14 7 17 -3 3
-9 2 -12 -2z"/>
<path d="M6858 3193 c7 -3 16 -2 19 1 4 3 -2 6 -13 5 -11 0 -14 -3 -6 -6z"/>
<path d="M7408 3193 c7 -3 16 -2 19 1 4 3 -2 6 -13 5 -11 0 -14 -3 -6 -6z"/>
<path d="M6631 3175 c-1 -21 15 -31 39 -24 l25 7 -27 1 c-14 1 -29 7 -31 14
-3 6 -6 8 -6 2z"/>
<path d="M7240 3169 c0 -5 9 -9 20 -9 11 0 20 2 20 4 0 2 -9 6 -20 9 -11 3
-20 1 -20 -4z"/>
<path d="M7335 3081 c-16 -5 -122 -27 -235 -50 -113 -24 -207 -45 -209 -47 -9
-8 55 -287 66 -291 13 -5 480 91 489 100 5 5 -36 220 -52 280 -6 18 -12 19
-59 8z m23 -20 c-6 -19 -181 -191 -193 -191 -7 0 -57 19 -111 41 -55 23 -110
45 -123 50 -13 5 -22 12 -19 14 6 6 405 93 431 94 10 1 17 -3 15 -8z m54 -123
c14 -68 24 -125 22 -127 -7 -7 -199 78 -199 88 0 12 133 161 143 161 4 0 19
-55 34 -122z m-402 -19 c55 -23 100 -45 100 -48 0 -4 -23 -29 -51 -56 -28 -28
-60 -63 -71 -80 -11 -16 14 6 55 50 68 73 77 79 109 77 21 -2 39 2 47 12 10
12 25 9 109 -26 53 -22 100 -43 105 -47 9 -9 -430 -102 -447 -95 -7 3 -23 55
-36 117 -13 62 -25 118 -28 125 -6 17 -3 17 108 -29z"/>
<path d="M7518 3063 c7 -3 16 -2 19 1 4 3 -2 6 -13 5 -11 0 -14 -3 -6 -6z"/>
<path d="M6088 3052 c-12 -2 -16 -37 -21 -220 -4 -119 -7 -283 -7 -364 l0
-148 -29 0 c-29 0 -29 0 -35 73 -3 39 -7 159 -10 266 -2 106 -8 197 -13 201
-4 5 -48 6 -98 3 l-90 -6 -3 -226 c-4 -323 -2 -305 -34 -309 l-28 -3 0 169 0
169 -46 7 c-70 9 -109 7 -122 -6 -8 -8 -12 -62 -12 -175 l0 -163 -41 0 -41 0
3 83 4 82 -69 3 c-88 4 -106 -10 -106 -82 0 -88 -5 -96 -61 -96 -47 0 -70 -12
-49 -25 6 -4 238 -6 515 -5 527 1 707 -5 667 -23 -23 -11 -30 -37 -9 -37 6 0
71 18 142 39 138 40 168 62 103 76 -18 4 -68 23 -111 43 -42 19 -80 32 -83 29
-15 -14 8 -36 65 -63 34 -15 58 -31 54 -35 -15 -13 -71 -20 -78 -10 -3 6 -39
11 -79 11 l-73 0 -9 53 c-5 28 -8 196 -9 372 l0 319 -86 1 c-47 0 -92 -1 -101
-3z m147 -346 c0 -171 4 -328 8 -348 l8 -38 -76 0 -75 0 -1 38 c-5 126 -3 318
4 382 4 41 8 120 8 175 l0 100 62 1 63 1 -1 -311z m-291 72 c3 -29 7 -144 9
-255 l3 -201 -60 0 c-34 1 -66 3 -73 5 -9 4 -10 33 -5 111 4 59 6 169 6 244
l0 137 40 4 c23 2 49 4 58 5 13 2 18 -9 22 -50z m-264 -159 c3 -4 4 -73 2
-153 l-3 -146 -50 0 -49 0 0 160 0 160 48 -7 c26 -3 49 -9 52 -14z m-260 -234
l0 -65 -51 0 -51 0 6 43 c3 23 5 52 5 65 1 19 6 22 46 22 l45 0 0 -65z"/>
<path d="M7528 3003 c6 -2 18 -2 25 0 6 3 1 5 -13 5 -14 0 -19 -2 -12 -5z"/>
<path d="M7478 2993 c7 -3 16 -2 19 1 4 3 -2 6 -13 5 -11 0 -14 -3 -6 -6z"/>
<path d="M7558 2913 c7 -3 16 -2 19 1 4 3 -2 6 -13 5 -11 0 -14 -3 -6 -6z"/>
<path d="M7508 2903 c7 -3 16 -2 19 1 4 3 -2 6 -13 5 -11 0 -14 -3 -6 -6z"/>
<path d="M7458 2893 c7 -3 16 -2 19 1 4 3 -2 6 -13 5 -11 0 -14 -3 -6 -6z"/>
<path d="M6808 2863 c6 -2 18 -2 25 0 6 3 1 5 -13 5 -14 0 -19 -2 -12 -5z"/>
<path d="M6748 2853 c7 -3 16 -2 19 1 4 3 -2 6 -13 5 -11 0 -14 -3 -6 -6z"/>
<path d="M6848 2753 c6 -2 18 -2 25 0 6 3 1 5 -13 5 -14 0 -19 -2 -12 -5z"/>
<path d="M3882 2721 c-25 -15 -34 -697 -10 -713 18 -12 316 3 339 17 16 11 9
44 -12 55 -15 8 -49 8 -126 1 -59 -6 -114 -11 -123 -11 -24 0 -31 127 -18 341
12 192 5 294 -21 308 -9 5 -23 6 -29 2z"/>
<path d="M2870 2691 c-19 -37 2 -50 88 -53 l76 -3 -3 -301 c-2 -270 -1 -302
14 -317 20 -20 27 -21 43 -5 9 9 12 80 12 259 0 135 3 273 6 305 l6 59 85 0
c70 0 88 3 97 17 8 14 7 21 -5 33 -12 12 -54 17 -211 22 -195 6 -196 6 -208
-16z"/>
<path d="M3532 2688 c-11 -15 -69 -188 -106 -323 -14 -49 -41 -142 -61 -205
-38 -120 -39 -160 -5 -160 26 0 30 8 71 135 l35 110 87 3 88 3 13 -33 c13 -32
35 -100 53 -163 9 -33 36 -44 59 -24 19 16 12 55 -42 204 -36 100 -67 214
-109 403 -6 27 -39 62 -59 62 -7 0 -18 -6 -24 -12z m57 -248 c11 -52 21 -101
21 -107 0 -9 -19 -13 -60 -13 -33 0 -60 3 -60 8 0 24 64 222 70 215 4 -4 17
-51 29 -103z"/>
<path d="M2333 2659 c-85 -42 -117 -139 -118 -349 0 -137 2 -148 26 -195 48
-94 137 -122 226 -70 42 24 43 24 54 4 6 -13 18 -19 32 -17 21 3 22 7 19 107
l-3 103 44 -6 c34 -5 48 -3 61 9 37 37 7 56 -98 62 -97 6 -152 -1 -160 -22
-10 -28 5 -45 39 -45 19 0 36 -3 38 -7 2 -5 -1 -28 -7 -53 -17 -69 -91 -109
-147 -80 -43 23 -54 67 -54 210 0 193 29 278 101 296 44 11 89 -18 116 -75 17
-39 28 -51 45 -51 16 0 25 8 29 25 18 74 -86 175 -181 175 -11 0 -39 -9 -62
-21z"/>
<path d="M2730 2665 c-11 -13 -12 -61 -5 -248 5 -128 9 -265 10 -305 1 -52 5
-76 15 -83 21 -12 26 -11 46 8 14 15 16 31 9 132 -4 64 -11 204 -14 311 -6
188 -7 195 -27 198 -11 2 -27 -4 -34 -13z"/>
<path d="M1585 2641 c-12 -23 -15 -67 -16 -198 0 -92 -4 -211 -8 -263 -11
-153 10 -182 122 -161 132 24 207 81 246 185 35 95 21 239 -31 324 -39 64
-133 113 -260 136 -34 6 -38 4 -53 -23z m167 -83 c81 -34 115 -91 125 -208 6
-76 -6 -128 -45 -179 -29 -38 -108 -78 -167 -83 -37 -3 -40 -1 -38 22 1 14 5
128 9 253 l7 228 31 -7 c17 -3 52 -15 78 -26z"/>
<path d="M2042 2638 c-9 -9 -12 -91 -12 -309 0 -258 2 -298 16 -310 11 -9 20
-10 32 -2 15 9 17 43 20 308 2 298 0 325 -32 325 -7 0 -17 -5 -24 -12z"/>
<path d="M7088 2603 c6 -2 18 -2 25 0 6 3 1 5 -13 5 -14 0 -19 -2 -12 -5z"/>
<path d="M6851 2521 c-7 -5 -9 -11 -5 -14 5 -3 15 1 22 9 14 16 5 18 -17 5z"/>
<path d="M7145 2450 c-3 -5 -2 -10 4 -10 5 0 13 5 16 10 3 6 2 10 -4 10 -5 0
-13 -4 -16 -10z"/>
<path d="M6908 2363 c7 -3 16 -2 19 1 4 3 -2 6 -13 5 -11 0 -14 -3 -6 -6z"/>
<path d="M5500 1940 c-12 -7 -14 -63 -15 -359 0 -408 8 -403 -112 -76 -50 137
-204 416 -237 428 -26 10 -48 -18 -52 -64 -6 -87 -6 -738 1 -748 10 -18 44
-12 55 8 6 12 10 135 10 330 0 195 4 311 10 311 15 0 143 -271 191 -404 51
-141 126 -265 161 -266 4 0 16 9 26 20 18 20 19 41 18 416 -1 337 -4 396 -16
404 -19 12 -21 12 -40 0z"/>
<path d="M1023 1923 c-6 -21 -99 -102 -233 -204 -102 -77 -282 -172 -395 -209
-92 -30 -98 -38 -92 -125 6 -86 30 -149 67 -175 23 -17 30 -17 46 -6 16 12 20
12 32 -5 7 -10 23 -19 34 -19 14 0 63 -42 141 -120 66 -66 122 -120 126 -120
3 1 21 14 40 30 l34 29 -26 38 c-15 21 -47 58 -71 82 -38 37 -44 48 -39 73 6
32 -9 55 -45 69 -16 6 -22 15 -20 31 4 25 44 41 243 95 109 30 149 36 250 38
l120 3 24 33 c21 31 23 41 18 129 -5 110 -26 174 -82 250 -21 28 -54 62 -73
75 -43 30 -92 33 -99 8z m117 -54 c81 -81 120 -180 120 -305 0 -58 -21 -114
-44 -114 -18 0 -40 27 -69 85 -27 53 -27 65 3 65 26 0 35 39 20 85 -13 39 -37
56 -71 52 -19 -2 -26 6 -40 43 -10 25 -18 66 -18 93 -1 43 1 47 24 47 16 0 41
-17 75 -51z m-120 -19 c0 -32 97 -308 125 -356 l26 -44 -58 0 c-69 0 -208 -28
-353 -71 l-104 -31 -23 28 c-43 54 -64 108 -57 151 5 35 11 41 72 73 77 41
161 102 292 214 36 30 68 55 73 55 4 1 7 -8 7 -19z m118 -143 c7 -7 13 -29 14
-48 3 -28 -1 -35 -19 -37 -17 -2 -24 4 -33 33 -6 20 -9 42 -6 50 7 19 30 19
44 2z m-585 -177 c-3 -11 -9 -23 -14 -26 -10 -6 -12 29 -2 39 13 13 21 7 16
-13z m-43 -10 c0 -5 -6 -10 -13 -10 -7 0 -24 -8 -37 -17 -23 -16 -89 -29 -75
-15 7 7 105 50 118 51 4 1 7 -3 7 -9z m-162 -70 c-15 -23 -28 -26 -28 -7 0 17
10 27 27 27 11 0 11 -4 1 -20z m228 -21 c11 -22 13 -34 5 -42 -11 -11 -14 -5
-25 46 -8 36 0 34 20 -4z m49 -90 c-4 -5 -13 -9 -22 -9 -13 0 -13 3 -3 15 13
15 35 11 25 -6z m-25 -50 c0 -40 -87 -100 -125 -85 -29 11 -14 34 43 64 62 33
82 38 82 21z m-215 -38 c3 -5 1 -12 -5 -16 -5 -3 -10 1 -10 9 0 18 6 21 15 7z
m283 -52 c4 -24 4 -24 -27 5 -17 16 -28 33 -25 38 10 15 49 -17 52 -43z m32
-86 l102 -107 -24 -18 c-12 -9 -26 -17 -29 -15 -10 3 -182 168 -202 193 -17
23 -17 23 10 38 15 8 31 15 34 16 4 0 53 -48 109 -107z"/>
<path d="M5855 1920 c-107 -48 -154 -165 -158 -390 -2 -103 2 -141 21 -216 42
-165 78 -197 212 -192 70 2 95 8 139 31 29 15 54 27 56 27 2 0 5 -14 7 -31 3
-36 26 -56 52 -46 15 6 17 22 15 124 l-1 118 37 2 c42 1 69 22 60 45 -9 22
-34 27 -151 29 -110 2 -124 -2 -124 -32 0 -21 35 -39 76 -39 23 0 25 -3 19
-32 -16 -80 -89 -128 -193 -128 -83 0 -101 18 -132 130 -21 72 -24 104 -22
212 4 238 60 338 189 338 79 0 165 -69 193 -156 10 -30 16 -35 38 -32 81 9
-18 187 -132 239 -53 24 -147 24 -201 -1z"/>
<path d="M4257 1923 c-14 -13 -7 -51 11 -58 9 -3 56 -9 105 -12 l87 -6 0 -256
c0 -397 8 -456 59 -424 14 9 16 45 12 347 l-3 337 94 -7 c81 -6 96 -4 111 10
13 13 14 22 7 36 -8 15 -28 19 -137 24 -71 3 -176 8 -234 11 -58 3 -109 2
-112 -2z"/>
<path d="M3819 1914 c-23 -7 -27 -28 -18 -109 4 -38 8 -193 8 -343 1 -168 5
-281 11 -293 13 -23 67 -25 202 -8 96 13 120 29 94 64 -12 17 -20 17 -103 7
-149 -20 -133 -36 -133 138 l0 151 78 -3 c73 -3 77 -2 80 19 4 28 -19 40 -96
49 l-62 7 0 61 c0 33 -3 91 -6 128 l-7 66 129 -1 c126 -2 129 -1 132 20 2 13
-4 25 -15 31 -20 10 -268 23 -294 16z"/>
<path d="M4877 1907 c-4 -11 -12 -731 -8 -775 1 -8 11 -12 29 -10 25 3 27 7
33 63 13 116 10 710 -3 723 -16 16 -45 15 -51 -1z"/>
<path d="M3252 1868 c-6 -8 -7 -33 -2 -68 5 -30 13 -179 20 -330 6 -151 12
-288 13 -305 2 -25 7 -31 29 -33 39 -5 42 19 34 230 -6 137 -5 179 4 176 7 -2
45 -60 84 -128 120 -210 221 -314 241 -250 7 23 4 27 -65 110 -26 30 -68 93
-95 140 -26 47 -61 107 -78 133 l-30 48 29 32 c16 18 64 68 107 113 61 63 78
87 75 105 -2 15 -11 25 -24 27 -16 2 -49 -26 -135 -117 -63 -67 -116 -121
-120 -121 -3 0 -9 44 -12 98 -3 54 -11 110 -16 125 -11 29 -41 36 -59 15z"/>
<path d="M2729 1829 c-21 -21 -21 -27 -15 -193 18 -501 18 -506 56 -506 32 0
37 29 30 180 -4 80 -6 147 -4 148 8 10 149 -116 233 -207 70 -76 99 -101 115
-99 13 2 22 12 24 26 3 18 -21 49 -101 135 -58 62 -123 126 -146 142 -48 35
-51 45 -13 45 41 0 126 44 150 78 47 65 12 178 -66 221 -97 52 -226 67 -263
30z m205 -77 c74 -33 101 -113 49 -150 -34 -23 -107 -42 -162 -42 l-41 0 0
111 0 112 54 -6 c30 -3 75 -14 100 -25z"/>
<path d="M1564 1809 c-4 -7 -7 -163 -8 -348 l-1 -336 30 0 30 0 5 75 c3 41 5
168 4 283 0 114 1 207 3 207 3 0 49 -40 104 -90 54 -49 103 -90 109 -90 6 0
17 8 24 18 92 112 140 168 146 170 4 2 11 -34 15 -80 3 -46 10 -117 15 -158 5
-41 12 -133 16 -205 7 -144 14 -168 47 -163 19 3 22 10 25 61 2 32 -2 113 -7
180 -6 67 -16 192 -22 277 -6 85 -13 165 -15 176 -5 30 -32 38 -61 19 -23 -15
-101 -95 -161 -165 l-30 -34 -53 46 c-30 25 -83 73 -118 107 -63 61 -83 71
-97 50z"/>
<path d="M6735 1811 l60 -6 27 -55 c14 -30 36 -91 48 -135 11 -44 35 -123 52
-175 17 -52 32 -101 34 -107 2 -7 17 -13 33 -13 28 0 29 -2 24 -33 -3 -24 0
-39 12 -50 37 -37 89 -9 89 47 l0 36 79 0 c68 0 78 -2 68 -14 -7 -8 -11 -27
-9 -43 2 -23 8 -29 35 -31 39 -4 69 33 59 73 l-6 25 -187 2 -186 3 -13 45 c-7
24 -12 45 -11 47 2 1 96 4 210 6 l207 3 57 117 c31 64 55 119 52 121 -8 9
-247 19 -427 19 l-183 0 -29 63 -29 64 -63 -2 -63 -1 60 -6z m384 -127 c30 -6
32 -9 29 -43 l-3 -36 -54 1 c-58 1 -71 11 -71 57 0 24 4 27 34 27 18 0 48 -3
65 -6z m-111 -41 c3 -31 2 -33 -31 -33 -68 0 -95 11 -106 42 l-10 29 72 -3 72
-3 3 -32z m303 15 c1 -17 2 -19 6 -5 4 14 16 17 73 17 l69 0 -24 -52 c-53
-120 -86 -178 -97 -178 -37 1 -56 12 -52 33 4 22 4 22 -7 0 -10 -19 -20 -23
-64 -23 l-52 0 -1 35 -1 35 52 2 52 2 -52 3 c-51 4 -53 5 -53 34 0 26 3 29 33
29 17 0 49 3 70 6 34 6 37 5 38 -17 2 -24 2 -24 6 -1 4 20 11 22 61 23 40 0
51 3 37 9 -11 4 -30 6 -42 3 -11 -2 -30 0 -41 6 -11 6 -22 7 -24 2 -2 -5 -33
-12 -70 -15 l-68 -8 0 41 0 41 75 0 c71 0 75 -1 76 -22z m-329 -64 c30 -5 37
-11 40 -35 3 -16 0 -31 -6 -33 -7 -3 -6 -8 3 -15 10 -6 21 -6 32 0 10 5 36 9
59 9 l41 0 -3 -37 -3 -38 -103 -3 -103 -3 -14 35 c-20 47 -20 46 23 47 l37 1
-38 8 c-44 8 -44 8 -52 43 -7 25 -5 27 21 27 16 0 45 -3 66 -6z m166 -34 c-1
-29 -2 -30 -53 -30 -51 0 -53 1 -57 30 l-5 30 58 0 c58 0 58 0 57 -30z m-47
-256 c19 -23 -8 -69 -41 -69 -35 0 -53 51 -25 71 25 18 49 18 66 -2z m235 -8
c10 -27 -15 -57 -44 -54 -37 4 -44 44 -10 57 33 14 48 13 54 -3z"/>
<path d="M7278 1529 c-8 -5 9 -9 41 -9 30 0 51 3 48 6 -10 10 -74 12 -89 3z"/>
<path d="M7042 1470 c0 -14 2 -19 5 -12 2 6 2 18 0 25 -3 6 -5 1 -5 -13z"/>
<path d="M2413 1802 c-13 -8 -50 -137 -83 -282 -11 -52 -37 -159 -57 -237 -19
-78 -33 -149 -30 -158 4 -8 17 -15 31 -15 27 0 28 1 71 166 l27 101 52 7 c97
11 93 14 116 -66 40 -136 50 -158 77 -158 13 0 26 7 30 16 3 9 -22 107 -56
217 -34 111 -72 246 -85 301 -13 54 -30 102 -37 107 -17 11 -40 11 -56 1z m54
-240 c12 -48 23 -90 23 -93 0 -8 -90 -22 -97 -16 -2 3 5 51 18 106 12 56 25
99 28 96 3 -3 15 -45 28 -93z"/>
<path d="M7542 1048 c-7 -7 -12 -25 -12 -41 0 -29 -22 -61 -130 -187 -31 -36
-72 -87 -91 -114 -32 -46 -90 -86 -124 -86 -13 0 -15 -23 -15 -164 l0 -164
113 -7 c183 -12 305 -9 332 9 14 9 34 16 45 16 12 0 35 14 52 30 23 23 29 37
25 57 -3 15 2 37 10 50 9 13 13 32 10 44 -3 11 -1 34 5 50 7 21 7 38 0 53 -6
15 -7 28 0 40 25 45 -34 116 -117 141 -79 23 -79 24 -45 86 37 67 40 133 9
173 -22 28 -48 33 -67 14z m52 -34 c16 -41 5 -97 -31 -163 -21 -38 -35 -72
-32 -75 4 -4 35 -14 70 -23 114 -28 148 -58 127 -112 -6 -16 -5 -34 2 -52 9
-20 9 -33 0 -49 -6 -12 -9 -34 -5 -50 5 -21 1 -33 -15 -48 -14 -13 -18 -22
-11 -27 29 -17 -5 -75 -43 -75 -12 0 -31 -7 -43 -15 -24 -17 -153 -21 -310
-10 l-103 7 0 134 c0 131 1 135 23 143 36 14 82 57 123 114 21 29 56 72 79 97
70 76 135 165 135 186 0 34 23 46 34 18z"/>
<path d="M5550 972 c-47 -23 -79 -89 -87 -179 -5 -61 -3 -72 13 -84 30 -22 67
-129 44 -129 -6 0 -24 -9 -39 -20 -15 -10 -54 -29 -87 -41 -100 -36 -122 -74
-123 -215 l-1 -52 198 3 c108 2 257 4 330 4 l132 1 0 89 c0 49 -4 100 -9 113
-6 17 -34 34 -100 62 -49 21 -98 47 -107 57 -19 21 -15 70 10 119 26 52 28 88
11 157 -21 84 -31 99 -78 118 -48 19 -64 19 -107 -3z m117 -13 c27 -10 35 -26
57 -109 17 -65 17 -65 -9 -133 -27 -72 -32 -144 -14 -195 9 -27 7 -40 -16 -89
l-26 -58 -27 35 c-15 19 -39 46 -53 60 -27 25 -45 77 -40 118 3 31 -29 114
-51 130 -22 16 -23 55 -2 136 28 108 84 141 181 105z m-132 -441 c5 -20 22
-45 36 -56 14 -11 38 -39 53 -61 16 -23 31 -41 35 -41 3 0 19 26 35 58 24 49
27 65 21 101 -7 41 -6 42 14 29 22 -13 36 -38 22 -38 -15 0 -24 -52 -22 -117
2 -34 0 -76 -4 -93 -6 -28 -9 -30 -56 -30 -28 0 -49 5 -49 11 0 5 -16 48 -37
94 -41 95 -67 121 -108 105 -31 -12 -33 2 -5 48 26 43 51 39 65 -10z m316 -25
c26 -12 49 -25 52 -30 3 -4 7 -49 8 -98 l4 -90 -86 -3 -86 -3 1 105 c1 104 8
137 21 97 9 -30 29 -27 21 3 -3 13 -9 31 -12 40 -7 18 -9 18 77 -21z m-413 -4
c-13 -37 -8 -43 26 -28 32 15 72 -2 82 -35 4 -11 20 -49 35 -83 16 -33 29 -64
29 -67 0 -3 -74 -6 -165 -6 l-165 0 6 63 c10 105 20 132 56 149 97 47 110 48
96 7z"/>
<path d="M4498 927 c-27 -21 -44 -42 -46 -58 -5 -41 57 -195 100 -252 75 -96
153 -161 253 -211 52 -25 106 -51 120 -56 25 -9 33 -34 16 -45 -9 -5 -11 -43
-9 -150 0 -27 1 -74 2 -103 1 -44 4 -52 20 -52 17 0 18 6 12 68 -14 127 -4
272 18 272 20 0 46 34 66 89 l20 51 -35 39 c-19 21 -49 44 -65 51 -26 11 -35
9 -82 -17 -45 -25 -58 -28 -86 -21 -54 14 -162 136 -162 183 0 11 10 48 22 82
l23 63 -50 50 c-30 30 -58 50 -71 50 -13 0 -42 -15 -66 -33z m117 -30 l44 -43
-24 -59 c-31 -77 -31 -92 3 -146 75 -116 181 -175 237 -131 47 37 80 37 125 2
22 -17 40 -38 40 -46 0 -7 -10 -34 -22 -59 -19 -39 -26 -45 -52 -45 -17 0 -76
23 -133 51 -109 54 -218 143 -272 223 -23 34 -91 205 -91 228 0 8 81 67 92 68
4 0 28 -19 53 -43z"/>
<path d="M6356 910 c-37 -12 -85 -57 -102 -96 -14 -32 -11 -119 6 -159 4 -11
12 -32 18 -47 13 -32 14 -31 -94 -87 -45 -23 -89 -50 -98 -60 -9 -10 -21 -47
-26 -82 -6 -35 -12 -76 -14 -90 l-5 -26 117 -1 c64 0 173 -4 242 -9 149 -10
336 -10 345 -1 3 3 -6 56 -20 116 l-26 110 -106 38 c-58 20 -107 44 -110 51
-3 8 -1 24 4 36 28 59 33 83 33 150 0 40 -6 83 -13 96 -26 52 -93 79 -151 61z
m97 -21 c36 -16 49 -47 52 -119 3 -64 -18 -164 -36 -175 -5 -4 -9 -15 -9 -25
0 -10 -18 -33 -40 -50 l-40 -32 -34 22 c-19 11 -37 29 -39 38 -3 9 -10 38 -17
65 -7 26 -17 50 -21 53 -5 3 -9 37 -9 76 0 70 0 71 44 114 37 38 49 44 84 44
23 0 52 -5 65 -11z m-158 -399 c4 -19 20 -68 36 -108 47 -119 54 -113 -118
-106 -82 4 -149 7 -149 8 -7 6 21 146 31 163 8 12 52 40 97 62 89 44 90 44
103 -19z m381 -24 c12 -12 54 -162 54 -191 0 -15 -14 -16 -154 -13 -85 1 -157
5 -159 8 -6 6 20 120 47 211 l17 56 92 -30 c50 -16 97 -34 103 -41z m-227 20
c-10 -37 -11 -37 -31 -20 -20 19 -20 19 7 42 15 13 29 21 31 19 2 -2 -1 -20
-7 -41z m-89 -6 c0 -4 -8 -15 -19 -24 -17 -16 -19 -16 -25 6 -3 13 -6 31 -6
41 0 16 2 16 25 1 14 -9 25 -20 25 -24z m40 -26 c0 -11 -6 -15 -20 -11 -16 4
-20 0 -20 -18 0 -29 -17 -42 -23 -18 -4 20 30 63 50 63 7 0 13 -7 13 -16z m22
-46 c-10 -22 -11 -21 -11 12 -1 26 2 31 11 22 8 -8 8 -17 0 -34z m-16 -33 c7
-29 -3 -92 -15 -100 -11 -6 -35 90 -27 110 9 24 35 17 42 -10z"/>
<path d="M1986 807 c-4 -9 -5 -33 -2 -52 6 -29 4 -35 -11 -35 -10 0 -31 -16
-47 -36 -27 -35 -29 -40 -26 -128 1 -50 6 -111 10 -136 l7 -45 2 53 1 52 24
-16 c15 -9 22 -21 19 -30 -7 -18 4 -18 23 0 12 13 18 13 44 -2 27 -15 32 -15
40 -2 8 12 10 9 10 -11 0 -25 -3 -27 -67 -33 -38 -4 -75 -11 -83 -17 -15 -10
31 -7 132 7 l37 6 -6 141 -6 142 -31 31 c-17 18 -36 30 -43 27 -8 -3 -13 12
-15 49 -2 37 -6 48 -12 35z m57 -119 c23 -21 26 -31 29 -116 1 -50 0 -92 -4
-92 -5 0 -8 9 -8 20 0 11 -4 20 -9 20 -5 0 -11 10 -15 23 -4 19 -13 23 -50 25
-40 1 -45 -1 -54 -26 -8 -23 -9 -19 -15 37 -5 57 -3 68 16 92 12 15 30 28 39
28 14 1 16 -5 11 -30 -5 -25 -3 -31 8 -27 8 3 15 16 16 29 3 48 1 47 36 17z"/>
<path d="M2298 703 c-3 -56 -6 -68 -21 -71 -10 -2 -35 -22 -55 -44 l-37 -41 3
-101 c4 -160 14 -266 24 -266 6 0 8 26 6 62 -2 43 1 63 9 65 7 3 16 -2 19 -11
3 -9 13 -16 21 -16 10 0 14 -7 10 -20 -6 -24 -3 -25 29 -4 23 15 26 15 43 0
23 -21 57 -21 69 0 7 13 10 10 16 -16 3 -18 4 -35 2 -38 -3 -2 -42 -8 -87 -13
-44 -4 -94 -11 -111 -14 -50 -11 -17 -24 37 -15 28 5 79 11 115 13 l65 3 -2
34 c-1 19 -5 107 -8 195 l-7 160 -39 38 c-22 20 -49 37 -59 37 -18 0 -20 7
-20 65 0 86 -18 84 -22 -2z m87 -115 l35 -31 -1 -121 c0 -93 -3 -115 -11 -93
-5 15 -14 27 -19 27 -5 0 -9 8 -9 19 0 23 -19 40 -45 41 -11 0 -36 1 -55 3
-31 2 -36 -1 -45 -30 -19 -58 -25 -47 -25 48 1 90 2 95 30 127 16 17 39 32 50
32 23 0 24 -4 8 -29 -13 -22 -4 -55 15 -49 6 3 13 23 15 46 2 23 8 42 13 42 5
0 25 -14 44 -32z"/>
<path d="M2611 728 c-1 -36 -5 -48 -19 -52 -10 -4 -29 -20 -42 -38 -22 -30
-23 -39 -21 -157 1 -69 7 -130 12 -135 5 -6 9 8 9 38 0 51 15 59 36 18 8 -16
14 -18 22 -10 8 8 19 8 41 -2 25 -10 34 -10 46 0 13 11 15 8 15 -13 0 -24 -4
-26 -57 -32 -105 -12 -123 -24 -28 -18 50 3 94 9 98 13 5 4 3 45 -3 91 -6 46
-10 107 -8 136 3 46 0 55 -26 82 -17 17 -35 31 -42 31 -6 0 -16 21 -22 48
l-10 47 -1 -47z m89 -202 l0 -91 -17 35 c-24 49 -33 55 -78 55 -34 0 -40 -3
-43 -22 -7 -48 -22 -20 -22 40 0 51 4 67 24 90 32 37 49 36 41 -3 -5 -23 -3
-30 9 -30 11 0 16 9 16 28 0 42 10 46 42 15 27 -26 28 -31 28 -117z"/>
<path d="M3614 751 c-109 -20 -164 -43 -276 -119 -87 -59 -165 -140 -204 -213
-27 -49 -29 -51 -32 -26 -6 49 -17 28 -18 -33 -1 -33 1 -60 3 -60 5 0 83 82
83 88 0 2 -11 -3 -25 -12 -14 -9 -25 -14 -25 -11 0 19 60 107 104 153 54 57
198 160 260 186 42 18 168 42 266 51 128 13 347 -28 425 -78 l50 -32 -40 -6
c-38 -6 -36 -6 17 -8 l57 -1 -27 55 c-15 30 -30 55 -35 55 -4 0 -1 -13 8 -30
8 -16 15 -31 15 -34 0 -3 -26 8 -57 24 -120 62 -365 85 -549 51z"/>
<path d="M1160 653 c-27 -19 -25 -45 6 -78 29 -32 25 -44 -8 -21 -40 28 -44
17 -5 -15 34 -28 37 -35 32 -68 -3 -20 -18 -54 -33 -76 -15 -22 -31 -46 -35
-55 -11 -19 32 27 55 60 l18 25 40 -45 c49 -55 54 -44 5 13 -28 33 -35 49 -35
84 0 39 3 44 38 62 20 11 31 20 24 21 -7 0 -24 -7 -37 -16 -24 -15 -25 -15
-25 2 0 11 9 25 20 32 14 8 20 23 20 46 0 30 -3 34 -30 38 -17 3 -39 -2 -50
-9z m70 -32 c0 -43 -50 -58 -70 -20 -15 27 3 49 41 49 25 0 29 -4 29 -29z"/>
<path d="M6934 659 c-4 -7 23 -331 32 -386 l5 -33 84 0 c46 0 87 4 90 10 6 9
9 400 3 405 -6 6 -210 10 -214 4z m186 -209 l0 -170 -59 0 c-33 0 -62 3 -64 8
-3 4 -8 43 -11 87 -3 44 -8 117 -12 163 l-7 82 77 0 76 0 0 -170z"/>
<path d="M3622 615 c-67 -15 -161 -59 -227 -106 -91 -66 -200 -222 -245 -354
-21 -60 -27 -60 -140 -12 -73 31 -78 32 -202 29 -71 -2 -128 -7 -128 -10 0 -4
57 -6 127 -4 l128 3 95 -40 94 -39 -3 -41 c-2 -31 1 -41 13 -41 9 0 16 12 18
32 3 35 4 35 68 24 l35 -6 -40 15 c-22 9 -43 19 -48 24 -8 8 16 81 27 81 2 0
58 -25 123 -56 176 -84 257 -114 300 -113 35 0 30 3 -57 38 -98 39 -244 105
-317 143 l-42 22 15 35 c22 54 55 99 128 178 109 117 226 171 391 180 142 7
228 -7 328 -55 132 -64 131 -60 35 -178 -46 -54 -117 -135 -158 -179 -69 -73
-125 -140 -144 -172 -5 -9 0 -13 13 -13 12 0 34 20 58 53 21 28 67 81 103 117
36 36 83 88 105 115 22 27 57 68 78 91 20 22 37 46 37 53 0 43 115 -73 150
-151 17 -39 40 -141 55 -240 4 -25 11 -38 22 -38 17 0 15 30 -14 170 -25 126
-58 184 -157 278 -106 99 -217 159 -324 173 -96 12 -227 10 -300 -6z"/>
<path d="M687 533 c-24 -27 -21 -50 8 -69 14 -9 25 -23 25 -30 0 -19 -7 -18
-41 7 -16 11 -29 17 -29 12 0 -4 16 -18 35 -31 54 -34 49 -80 -17 -164 -16
-21 -25 -38 -20 -38 5 0 21 18 36 40 14 22 29 40 33 40 4 0 25 -17 47 -38 l39
-37 -36 46 c-29 36 -37 55 -37 87 0 36 4 44 31 57 17 9 28 19 25 22 -3 3 -17
-2 -31 -11 -24 -16 -25 -15 -25 3 0 10 9 25 19 32 23 16 34 49 23 66 -15 23
-66 26 -85 6z m73 -33 c0 -34 -35 -48 -61 -24 -21 19 -14 43 15 54 31 11 46 1
46 -30z"/>
<path d="M1607 452 c-23 -25 -21 -48 3 -69 29 -25 27 -49 -2 -29 -36 26 -42
18 -9 -10 45 -37 43 -90 -5 -156 -19 -28 -34 -52 -31 -54 2 -2 18 16 36 41 18
25 36 45 41 45 5 0 21 -16 36 -35 14 -19 31 -35 36 -35 5 0 -9 22 -31 48 -56
66 -57 107 -3 140 20 13 28 20 17 16 -48 -16 -55 -16 -55 -2 0 8 11 20 25 26
35 16 36 77 3 86 -35 9 -44 7 -61 -12z m73 -20 c0 -10 -6 -27 -14 -37 -12 -17
-18 -18 -40 -7 -15 7 -26 20 -26 31 0 22 13 29 53 30 20 1 27 -4 27 -17z"/>
<path d="M212 148 c-18 -18 -14 -56 8 -70 11 -7 20 -18 20 -25 0 -17 -5 -16
-38 4 -23 14 -21 11 8 -18 l35 -34 37 24 c21 14 36 26 34 29 -3 2 -15 -3 -28
-12 -28 -20 -38 -20 -38 -2 0 7 12 21 26 30 20 14 25 24 22 49 -3 29 -7 32
-38 35 -19 2 -41 -3 -48 -10z m65 -6 c17 -11 5 -50 -19 -57 -20 -7 -48 10 -48
29 0 29 40 45 67 28z"/>
<path d="M871 41 c-6 -11 -11 -26 -11 -33 1 -7 8 0 16 15 20 37 64 35 76 -3 6
-23 7 -23 5 5 -2 27 -6 30 -39 33 -28 2 -39 -1 -47 -17z"/>
<path d="M6505 25 c-16 -14 -24 -25 -17 -25 17 0 62 30 62 41 0 15 -13 10 -45
-16z"/>
<path d="M2042 28 c-19 -19 -14 -33 6 -15 24 22 58 22 71 0 9 -16 10 -16 11
-2 0 28 -64 41 -88 17z"/>
<path d="M6068 3 c7 -3 16 -2 19 1 4 3 -2 6 -13 5 -11 0 -14 -3 -6 -6z"/>
</g>
</svg>
